<svg width="199" height="222" viewBox="0 0 199 222" fill="none" xmlns="http://www.w3.org/2000/svg">
<g filter="url(#filter0_dddd_549_1087)">
<path d="M106.877 9.69641V17.5464H16.8068V9.69641C16.8068 7.89641 18.2668 6.44641 20.0568 6.44641H103.617C105.417 6.44641 106.867 7.90641 106.867 9.69641H106.877Z" fill="url(#paint0_linear_549_1087)"/>
<path d="M106.877 17.5364V88.4764C106.877 90.3564 105.417 91.8964 103.627 91.8964H20.0668C18.2668 91.8964 16.8168 90.3564 16.8168 88.4764V17.5364H106.887H106.877Z" fill="white"/>
<path d="M96.0968 9.94641L100.157 14.0064" stroke="#F05E50" stroke-linecap="round" stroke-linejoin="round"/>
<path d="M100.157 9.94641L96.0968 14.0064" stroke="#F05E50" stroke-linecap="round" stroke-linejoin="round"/>
<path d="M89.5168 9.94641H87.1068C86.5876 9.94641 86.1667 10.3673 86.1667 10.8864V12.9064C86.1667 13.4256 86.5876 13.8464 87.1068 13.8464H89.5168C90.0359 13.8464 90.4568 13.4256 90.4568 12.9064V10.8864C90.4568 10.3673 90.0359 9.94641 89.5168 9.94641Z" stroke="white" stroke-miterlimit="10"/>
<path d="M80.5269 13.8464H76.4868" stroke="white" stroke-linecap="round" stroke-linejoin="round"/>
<path d="M43.3368 27.6264H95.6268" stroke="#B5B5B5" stroke-width="0.75" stroke-linecap="round" stroke-linejoin="round"/>
<path d="M43.3368 53.5264H95.6268" stroke="#B5B5B5" stroke-width="0.75" stroke-linecap="round" stroke-linejoin="round"/>
<path d="M43.3368 66.4764H95.6268" stroke="#B5B5B5" stroke-width="0.75" stroke-linecap="round" stroke-linejoin="round"/>
<path d="M43.3368 79.4264H95.6268" stroke="#B5B5B5" stroke-width="0.75" stroke-linecap="round" stroke-linejoin="round"/>
<path style="mix-blend-mode:multiply" opacity="0.64" d="M106.877 34.0164H16.8068V47.2764H106.877V34.0164Z" fill="url(#paint1_linear_549_1087)"/>
<path d="M43.3368 40.5764H95.6268" stroke="#6F4AFF" stroke-width="0.75" stroke-linecap="round" stroke-linejoin="round"/>
<path d="M31.6768 27.0564C31.0968 27.0564 30.6068 26.8464 30.1868 26.4364C29.7768 26.0264 29.5668 25.5264 29.5668 24.9464C29.5668 24.3664 29.7768 23.8764 30.1868 23.4564C30.5968 23.0464 31.0968 22.8364 31.6768 22.8364C32.2568 22.8364 32.7467 23.0464 33.1667 23.4564C33.5767 23.8664 33.7868 24.3664 33.7868 24.9464C33.7868 25.5264 33.5767 26.0164 33.1667 26.4364C32.7567 26.8464 32.2568 27.0564 31.6768 27.0564Z" stroke="#B5B5B5" stroke-width="0.75" stroke-linecap="round" stroke-linejoin="round"/>
<path d="M27.1667 31.6364V30.2964C27.1667 30.0064 27.2468 29.7264 27.4068 29.4764C27.5668 29.2264 27.7768 29.0364 28.0468 28.8964C28.6368 28.6064 29.2368 28.3864 29.8468 28.2364C30.4468 28.0864 31.0568 28.0164 31.6768 28.0164C32.2968 28.0164 32.8968 28.0864 33.5068 28.2364C34.1168 28.3864 34.7068 28.5964 35.3068 28.8964C35.5768 29.0264 35.7868 29.2264 35.9468 29.4764C36.1068 29.7264 36.1868 29.9964 36.1868 30.2964V31.6364H27.1667Z" stroke="#B5B5B5" stroke-width="0.75" stroke-linecap="round" stroke-linejoin="round"/>
<path d="M31.6768 40.0564C31.0968 40.0564 30.6068 39.8464 30.1868 39.4364C29.7768 39.0264 29.5668 38.5264 29.5668 37.9464C29.5668 37.3664 29.7768 36.8764 30.1868 36.4564C30.5968 36.0464 31.0968 35.8364 31.6768 35.8364C32.2568 35.8364 32.7467 36.0464 33.1667 36.4564C33.5767 36.8664 33.7868 37.3664 33.7868 37.9464C33.7868 38.5264 33.5767 39.0164 33.1667 39.4364C32.7567 39.8464 32.2568 40.0564 31.6768 40.0564Z" stroke="#6F4AFF" stroke-width="0.75" stroke-linecap="round" stroke-linejoin="round"/>
<path d="M27.1667 44.6364V43.2964C27.1667 43.0064 27.2468 42.7264 27.4068 42.4764C27.5668 42.2264 27.7768 42.0364 28.0468 41.8964C28.6368 41.6064 29.2368 41.3864 29.8468 41.2364C30.4468 41.0864 31.0568 41.0164 31.6768 41.0164C32.2968 41.0164 32.8968 41.0864 33.5068 41.2364C34.1168 41.3864 34.7068 41.5964 35.3068 41.8964C35.5768 42.0264 35.7868 42.2264 35.9468 42.4764C36.1068 42.7264 36.1868 42.9964 36.1868 43.2964V44.6364H27.1667Z" stroke="#6F4AFF" stroke-width="0.75" stroke-linecap="round" stroke-linejoin="round"/>
<path d="M31.6768 53.0564C31.0968 53.0564 30.6068 52.8464 30.1868 52.4364C29.7768 52.0264 29.5668 51.5264 29.5668 50.9464C29.5668 50.3664 29.7768 49.8764 30.1868 49.4564C30.5968 49.0464 31.0968 48.8364 31.6768 48.8364C32.2568 48.8364 32.7467 49.0464 33.1667 49.4564C33.5767 49.8664 33.7868 50.3664 33.7868 50.9464C33.7868 51.5264 33.5767 52.0164 33.1667 52.4364C32.7567 52.8464 32.2568 53.0564 31.6768 53.0564Z" stroke="#B5B5B5" stroke-width="0.75" stroke-linecap="round" stroke-linejoin="round"/>
<path d="M27.1667 57.6364V56.2964C27.1667 56.0064 27.2468 55.7264 27.4068 55.4764C27.5668 55.2264 27.7768 55.0364 28.0468 54.8964C28.6368 54.6064 29.2368 54.3864 29.8468 54.2364C30.4468 54.0864 31.0568 54.0164 31.6768 54.0164C32.2968 54.0164 32.8968 54.0864 33.5068 54.2364C34.1168 54.3864 34.7068 54.5964 35.3068 54.8964C35.5768 55.0264 35.7868 55.2264 35.9468 55.4764C36.1068 55.7264 36.1868 55.9964 36.1868 56.2964V57.6364H27.1667Z" stroke="#B5B5B5" stroke-width="0.75" stroke-linecap="round" stroke-linejoin="round"/>
<path d="M31.6768 66.0664C31.0968 66.0664 30.6068 65.8564 30.1868 65.4464C29.7768 65.0364 29.5668 64.5364 29.5668 63.9564C29.5668 63.3764 29.7768 62.8864 30.1868 62.4664C30.5968 62.0564 31.0968 61.8464 31.6768 61.8464C32.2568 61.8464 32.7467 62.0564 33.1667 62.4664C33.5767 62.8764 33.7868 63.3764 33.7868 63.9564C33.7868 64.5364 33.5767 65.0264 33.1667 65.4464C32.7567 65.8564 32.2568 66.0664 31.6768 66.0664Z" stroke="#B5B5B5" stroke-width="0.75" stroke-linecap="round" stroke-linejoin="round"/>
<path d="M27.1667 70.6364V69.2964C27.1667 69.0064 27.2468 68.7264 27.4068 68.4764C27.5668 68.2264 27.7768 68.0364 28.0468 67.8964C28.6368 67.6064 29.2368 67.3864 29.8468 67.2364C30.4468 67.0864 31.0568 67.0164 31.6768 67.0164C32.2968 67.0164 32.8968 67.0864 33.5068 67.2364C34.1168 67.3864 34.7068 67.5964 35.3068 67.8964C35.5768 68.0264 35.7868 68.2264 35.9468 68.4764C36.1068 68.7264 36.1868 68.9964 36.1868 69.2964V70.6364H27.1667Z" stroke="#B5B5B5" stroke-width="0.75" stroke-linecap="round" stroke-linejoin="round"/>
<path d="M31.6768 79.0664C31.0968 79.0664 30.6068 78.8564 30.1868 78.4464C29.7768 78.0364 29.5668 77.5364 29.5668 76.9564C29.5668 76.3764 29.7768 75.8864 30.1868 75.4664C30.5968 75.0564 31.0968 74.8464 31.6768 74.8464C32.2568 74.8464 32.7467 75.0564 33.1667 75.4664C33.5767 75.8764 33.7868 76.3764 33.7868 76.9564C33.7868 77.5364 33.5767 78.0264 33.1667 78.4464C32.7567 78.8564 32.2568 79.0664 31.6768 79.0664Z" stroke="#B5B5B5" stroke-width="0.75" stroke-linecap="round" stroke-linejoin="round"/>
<path d="M27.1667 83.6364V82.2964C27.1667 82.0064 27.2468 81.7264 27.4068 81.4764C27.5668 81.2264 27.7768 81.0364 28.0468 80.8964C28.6368 80.6064 29.2368 80.3864 29.8468 80.2364C30.4468 80.0864 31.0568 80.0164 31.6768 80.0164C32.2968 80.0164 32.8968 80.0864 33.5068 80.2364C34.1168 80.3864 34.7068 80.5964 35.3068 80.8964C35.5768 81.0264 35.7868 81.2264 35.9468 81.4764C36.1068 81.7264 36.1868 81.9964 36.1868 82.2964V83.6364H27.1667Z" stroke="#B5B5B5" stroke-width="0.75" stroke-linecap="round" stroke-linejoin="round"/>
</g>
<g filter="url(#filter1_dddd_549_1087)">
<path d="M176.527 69.5464V142.436C176.527 145.656 173.887 148.286 170.677 148.286H119.807V63.6864H170.677C173.897 63.6864 176.527 66.3264 176.527 69.5564V69.5464Z" fill="white" stroke="#D7D7D7" stroke-miterlimit="10"/>
<path d="M119.807 63.6864V148.296H63.0768C59.8568 148.296 57.2268 145.656 57.2268 142.446V69.5564C57.2268 66.3264 59.8668 63.6864 63.0768 63.6864H119.807Z" fill="#F5F2FF" stroke="#B5A2FF" stroke-miterlimit="10"/>
<path d="M105.477 120.646H71.5468C70.978 120.646 70.5168 121.108 70.5168 121.676V122.586C70.5168 123.155 70.978 123.616 71.5468 123.616H105.477C106.046 123.616 106.507 123.155 106.507 122.586V121.676C106.507 121.108 106.046 120.646 105.477 120.646Z" fill="url(#paint2_linear_549_1087)"/>
<path d="M70.5168 129.426H96.8469" stroke="#B5A2FF" stroke-linecap="round" stroke-linejoin="round"/>
<path d="M70.5168 134.446H96.8469" stroke="#B5A2FF" stroke-linecap="round" stroke-linejoin="round"/>
<path d="M88.5068 92.4264C86.1968 92.4264 84.2168 91.6064 82.5768 89.9564C80.9368 88.3164 80.1068 86.3364 80.1068 84.0264C80.1068 81.7164 80.9268 79.7364 82.5768 78.0964C84.2168 76.4564 86.1968 75.6264 88.5068 75.6264C90.8168 75.6264 92.7968 76.4464 94.4368 78.0964C96.0768 79.7364 96.9069 81.7164 96.9069 84.0264C96.9069 86.3364 96.0868 88.3164 94.4368 89.9564C92.7968 91.5964 90.8168 92.4264 88.5068 92.4264Z" fill="url(#paint3_linear_549_1087)"/>
<path d="M70.5168 110.696V105.366C70.5168 104.196 70.8368 103.106 71.4768 102.106C72.1168 101.106 72.9669 100.336 74.0369 99.7964C76.4069 98.6364 78.7969 97.7664 81.2169 97.1764C83.6269 96.5964 86.0668 96.3064 88.5168 96.3064C90.9668 96.3064 93.4068 96.5964 95.8168 97.1764C98.2268 97.7564 100.627 98.6264 102.997 99.7964C104.067 100.336 104.917 101.106 105.557 102.106C106.197 103.106 106.517 104.196 106.517 105.366V110.696H70.5269H70.5168Z" fill="url(#paint4_linear_549_1087)"/>
<g filter="url(#filter2_d_549_1087)">
<path d="M128.367 115.006V119.566C128.367 120.787 129.356 121.776 130.577 121.776H136.637C137.857 121.776 138.847 120.787 138.847 119.566V115.006C138.847 113.786 137.857 112.796 136.637 112.796H130.577C129.356 112.796 128.367 113.786 128.367 115.006Z" fill="white"/>
<path d="M128.367 115.006V119.566C128.367 120.787 129.356 121.776 130.577 121.776H136.637C137.857 121.776 138.847 120.787 138.847 119.566V115.006C138.847 113.786 137.857 112.796 136.637 112.796H130.577C129.356 112.796 128.367 113.786 128.367 115.006Z" stroke="#D7D7D7" stroke-width="0.5" stroke-miterlimit="10"/>
</g>
<g filter="url(#filter3_d_549_1087)">
<path d="M128.367 103.036V107.596C128.367 108.817 129.356 109.806 130.577 109.806H136.637C137.857 109.806 138.847 108.817 138.847 107.596V103.036C138.847 101.816 137.857 100.826 136.637 100.826H130.577C129.356 100.826 128.367 101.816 128.367 103.036Z" fill="white"/>
<path d="M128.367 103.036V107.596C128.367 108.817 129.356 109.806 130.577 109.806H136.637C137.857 109.806 138.847 108.817 138.847 107.596V103.036C138.847 101.816 137.857 100.826 136.637 100.826H130.577C129.356 100.826 128.367 101.816 128.367 103.036Z" stroke="#D7D7D7" stroke-width="0.5" stroke-miterlimit="10"/>
</g>
<g filter="url(#filter4_d_549_1087)">
<path d="M128.367 91.0664V95.6264C128.367 96.847 129.356 97.8364 130.577 97.8364H136.637C137.857 97.8364 138.847 96.847 138.847 95.6264V91.0664C138.847 89.8459 137.857 88.8564 136.637 88.8564H130.577C129.356 88.8564 128.367 89.8459 128.367 91.0664Z" fill="white"/>
<path d="M128.367 91.0664V95.6264C128.367 96.847 129.356 97.8364 130.577 97.8364H136.637C137.857 97.8364 138.847 96.847 138.847 95.6264V91.0664C138.847 89.8459 137.857 88.8564 136.637 88.8564H130.577C129.356 88.8564 128.367 89.8459 128.367 91.0664Z" stroke="#D7D7D7" stroke-width="0.5" stroke-miterlimit="10"/>
</g>
<g filter="url(#filter5_d_549_1087)">
<path d="M128.367 79.0964V83.6564C128.367 84.8769 129.356 85.8664 130.577 85.8664H136.637C137.857 85.8664 138.847 84.8769 138.847 83.6564V79.0964C138.847 77.8758 137.857 76.8864 136.637 76.8864H130.577C129.356 76.8864 128.367 77.8758 128.367 79.0964Z" fill="white"/>
<path d="M128.367 79.0964V83.6564C128.367 84.8769 129.356 85.8664 130.577 85.8664H136.637C137.857 85.8664 138.847 84.8769 138.847 83.6564V79.0964C138.847 77.8758 137.857 76.8864 136.637 76.8864H130.577C129.356 76.8864 128.367 77.8758 128.367 79.0964Z" stroke="#D7D7D7" stroke-width="0.5" stroke-miterlimit="10"/>
</g>
<g filter="url(#filter6_d_549_1087)">
<path d="M142.927 115.006V119.566C142.927 120.787 143.916 121.776 145.137 121.776H151.197C152.417 121.776 153.407 120.787 153.407 119.566V115.006C153.407 113.786 152.417 112.796 151.197 112.796H145.137C143.916 112.796 142.927 113.786 142.927 115.006Z" fill="white"/>
<path d="M142.927 115.006V119.566C142.927 120.787 143.916 121.776 145.137 121.776H151.197C152.417 121.776 153.407 120.787 153.407 119.566V115.006C153.407 113.786 152.417 112.796 151.197 112.796H145.137C143.916 112.796 142.927 113.786 142.927 115.006Z" stroke="#D7D7D7" stroke-width="0.5" stroke-miterlimit="10"/>
</g>
<g filter="url(#filter7_d_549_1087)">
<path d="M142.927 103.036V107.596C142.927 108.817 143.916 109.806 145.137 109.806H151.197C152.417 109.806 153.407 108.817 153.407 107.596V103.036C153.407 101.816 152.417 100.826 151.197 100.826H145.137C143.916 100.826 142.927 101.816 142.927 103.036Z" fill="url(#paint5_linear_549_1087)"/>
</g>
<g filter="url(#filter8_d_549_1087)">
<path d="M142.927 91.0664V95.6264C142.927 96.847 143.916 97.8364 145.137 97.8364H151.197C152.417 97.8364 153.407 96.847 153.407 95.6264V91.0664C153.407 89.8459 152.417 88.8564 151.197 88.8564H145.137C143.916 88.8564 142.927 89.8459 142.927 91.0664Z" fill="white"/>
<path d="M142.927 91.0664V95.6264C142.927 96.847 143.916 97.8364 145.137 97.8364H151.197C152.417 97.8364 153.407 96.847 153.407 95.6264V91.0664C153.407 89.8459 152.417 88.8564 151.197 88.8564H145.137C143.916 88.8564 142.927 89.8459 142.927 91.0664Z" stroke="#D7D7D7" stroke-width="0.5" stroke-miterlimit="10"/>
</g>
<g filter="url(#filter9_d_549_1087)">
<path d="M142.927 79.0964V83.6564C142.927 84.8769 143.916 85.8664 145.137 85.8664H151.197C152.417 85.8664 153.407 84.8769 153.407 83.6564V79.0964C153.407 77.8758 152.417 76.8864 151.197 76.8864H145.137C143.916 76.8864 142.927 77.8758 142.927 79.0964Z" fill="white"/>
<path d="M142.927 79.0964V83.6564C142.927 84.8769 143.916 85.8664 145.137 85.8664H151.197C152.417 85.8664 153.407 84.8769 153.407 83.6564V79.0964C153.407 77.8758 152.417 76.8864 151.197 76.8864H145.137C143.916 76.8864 142.927 77.8758 142.927 79.0964Z" stroke="#D7D7D7" stroke-width="0.5" stroke-miterlimit="10"/>
</g>
<g filter="url(#filter10_d_549_1087)">
<path d="M157.487 114.996V119.556C157.487 120.777 158.476 121.766 159.697 121.766H165.757C166.977 121.766 167.967 120.777 167.967 119.556V114.996C167.967 113.776 166.977 112.786 165.757 112.786H159.697C158.476 112.786 157.487 113.776 157.487 114.996Z" fill="white"/>
<path d="M157.487 114.996V119.556C157.487 120.777 158.476 121.766 159.697 121.766H165.757C166.977 121.766 167.967 120.777 167.967 119.556V114.996C167.967 113.776 166.977 112.786 165.757 112.786H159.697C158.476 112.786 157.487 113.776 157.487 114.996Z" stroke="#D7D7D7" stroke-width="0.5" stroke-miterlimit="10"/>
</g>
<g filter="url(#filter11_d_549_1087)">
<path d="M157.487 103.026V107.586C157.487 108.807 158.476 109.796 159.697 109.796H165.757C166.977 109.796 167.967 108.807 167.967 107.586V103.026C167.967 101.806 166.977 100.816 165.757 100.816H159.697C158.476 100.816 157.487 101.806 157.487 103.026Z" fill="white"/>
<path d="M157.487 103.026V107.586C157.487 108.807 158.476 109.796 159.697 109.796H165.757C166.977 109.796 167.967 108.807 167.967 107.586V103.026C167.967 101.806 166.977 100.816 165.757 100.816H159.697C158.476 100.816 157.487 101.806 157.487 103.026Z" stroke="#D7D7D7" stroke-width="0.5" stroke-miterlimit="10"/>
</g>
<g filter="url(#filter12_d_549_1087)">
<path d="M157.487 91.0664V95.6264C157.487 96.847 158.476 97.8364 159.697 97.8364H165.757C166.977 97.8364 167.967 96.847 167.967 95.6264V91.0664C167.967 89.8459 166.977 88.8564 165.757 88.8564H159.697C158.476 88.8564 157.487 89.8459 157.487 91.0664Z" fill="white"/>
<path d="M157.487 91.0664V95.6264C157.487 96.847 158.476 97.8364 159.697 97.8364H165.757C166.977 97.8364 167.967 96.847 167.967 95.6264V91.0664C167.967 89.8459 166.977 88.8564 165.757 88.8564H159.697C158.476 88.8564 157.487 89.8459 157.487 91.0664Z" stroke="#D7D7D7" stroke-width="0.5" stroke-miterlimit="10"/>
</g>
<g filter="url(#filter13_d_549_1087)">
<path d="M157.487 79.0964V83.6564C157.487 84.8769 158.476 85.8664 159.697 85.8664H165.757C166.977 85.8664 167.967 84.8769 167.967 83.6564V79.0964C167.967 77.8758 166.977 76.8864 165.757 76.8864H159.697C158.476 76.8864 157.487 77.8758 157.487 79.0964Z" fill="white"/>
<path d="M157.487 79.0964V83.6564C157.487 84.8769 158.476 85.8664 159.697 85.8664H165.757C166.977 85.8664 167.967 84.8769 167.967 83.6564V79.0964C167.967 77.8758 166.977 76.8864 165.757 76.8864H159.697C158.476 76.8864 157.487 77.8758 157.487 79.0964Z" stroke="#D7D7D7" stroke-width="0.5" stroke-miterlimit="10"/>
</g>
<path d="M166.687 132.526H129.647C128.94 132.526 128.367 133.1 128.367 133.806V138.276C128.367 138.983 128.94 139.556 129.647 139.556H166.687C167.394 139.556 167.967 138.983 167.967 138.276V133.806C167.967 133.1 167.394 132.526 166.687 132.526Z" fill="url(#paint6_radial_549_1087)"/>
</g>
<g filter="url(#filter14_d_549_1087)">
<path d="M160.577 147.356L156.847 153.246C156.557 153.706 155.867 153.636 155.677 153.126L149.807 137.236C149.617 136.706 150.127 136.196 150.647 136.396L166.537 142.266C167.047 142.456 167.117 143.146 166.657 143.436L160.767 147.166C160.687 147.216 160.617 147.286 160.567 147.366L160.577 147.356Z" fill="#2C2C2C"/>
</g>
<defs>
<filter id="filter0_dddd_549_1087" x="0.806763" y="3.44641" width="122.08" height="144.45" filterUnits="userSpaceOnUse" color-interpolation-filters="sRGB">
<feFlood flood-opacity="0" result="BackgroundImageFix"/>
<feColorMatrix in="SourceAlpha" type="matrix" values="0 0 0 0 0 0 0 0 0 0 0 0 0 0 0 0 0 0 127 0" result="hardAlpha"/>
<feOffset dy="2"/>
<feGaussianBlur stdDeviation="2.5"/>
<feColorMatrix type="matrix" values="0 0 0 0 0.45098 0 0 0 0 0.392157 0 0 0 0 0.686275 0 0 0 0.1 0"/>
<feBlend mode="normal" in2="BackgroundImageFix" result="effect1_dropShadow_549_1087"/>
<feColorMatrix in="SourceAlpha" type="matrix" values="0 0 0 0 0 0 0 0 0 0 0 0 0 0 0 0 0 0 127 0" result="hardAlpha"/>
<feOffset dy="10"/>
<feGaussianBlur stdDeviation="5"/>
<feColorMatrix type="matrix" values="0 0 0 0 0.45098 0 0 0 0 0.392157 0 0 0 0 0.686275 0 0 0 0.09 0"/>
<feBlend mode="normal" in2="effect1_dropShadow_549_1087" result="effect2_dropShadow_549_1087"/>
<feColorMatrix in="SourceAlpha" type="matrix" values="0 0 0 0 0 0 0 0 0 0 0 0 0 0 0 0 0 0 127 0" result="hardAlpha"/>
<feOffset dy="22"/>
<feGaussianBlur stdDeviation="6.5"/>
<feColorMatrix type="matrix" values="0 0 0 0 0.45098 0 0 0 0 0.392157 0 0 0 0 0.686275 0 0 0 0.05 0"/>
<feBlend mode="normal" in2="effect2_dropShadow_549_1087" result="effect3_dropShadow_549_1087"/>
<feColorMatrix in="SourceAlpha" type="matrix" values="0 0 0 0 0 0 0 0 0 0 0 0 0 0 0 0 0 0 127 0" result="hardAlpha"/>
<feOffset dy="40"/>
<feGaussianBlur stdDeviation="8"/>
<feColorMatrix type="matrix" values="0 0 0 0 0.45098 0 0 0 0 0.392157 0 0 0 0 0.686275 0 0 0 0.01 0"/>
<feBlend mode="normal" in2="effect3_dropShadow_549_1087" result="effect4_dropShadow_549_1087"/>
<feBlend mode="normal" in="SourceGraphic" in2="effect4_dropShadow_549_1087" result="shape"/>
</filter>
<filter id="filter1_dddd_549_1087" x="35.7268" y="59.1864" width="162.3" height="162.61" filterUnits="userSpaceOnUse" color-interpolation-filters="sRGB">
<feFlood flood-opacity="0" result="BackgroundImageFix"/>
<feColorMatrix in="SourceAlpha" type="matrix" values="0 0 0 0 0 0 0 0 0 0 0 0 0 0 0 0 0 0 127 0" result="hardAlpha"/>
<feOffset dy="3"/>
<feGaussianBlur stdDeviation="3.5"/>
<feColorMatrix type="matrix" values="0 0 0 0 0.45098 0 0 0 0 0.392157 0 0 0 0 0.686275 0 0 0 0.1 0"/>
<feBlend mode="normal" in2="BackgroundImageFix" result="effect1_dropShadow_549_1087"/>
<feColorMatrix in="SourceAlpha" type="matrix" values="0 0 0 0 0 0 0 0 0 0 0 0 0 0 0 0 0 0 127 0" result="hardAlpha"/>
<feOffset dy="13"/>
<feGaussianBlur stdDeviation="6.5"/>
<feColorMatrix type="matrix" values="0 0 0 0 0.45098 0 0 0 0 0.392157 0 0 0 0 0.686275 0 0 0 0.09 0"/>
<feBlend mode="normal" in2="effect1_dropShadow_549_1087" result="effect2_dropShadow_549_1087"/>
<feColorMatrix in="SourceAlpha" type="matrix" values="0 0 0 0 0 0 0 0 0 0 0 0 0 0 0 0 0 0 127 0" result="hardAlpha"/>
<feOffset dy="30"/>
<feGaussianBlur stdDeviation="9"/>
<feColorMatrix type="matrix" values="0 0 0 0 0.45098 0 0 0 0 0.392157 0 0 0 0 0.686275 0 0 0 0.05 0"/>
<feBlend mode="normal" in2="effect2_dropShadow_549_1087" result="effect3_dropShadow_549_1087"/>
<feColorMatrix in="SourceAlpha" type="matrix" values="0 0 0 0 0 0 0 0 0 0 0 0 0 0 0 0 0 0 127 0" result="hardAlpha"/>
<feOffset dy="52"/>
<feGaussianBlur stdDeviation="10.5"/>
<feColorMatrix type="matrix" values="0 0 0 0 0.45098 0 0 0 0 0.392157 0 0 0 0 0.686275 0 0 0 0.01 0"/>
<feBlend mode="normal" in2="effect3_dropShadow_549_1087" result="effect4_dropShadow_549_1087"/>
<feBlend mode="normal" in="SourceGraphic" in2="effect4_dropShadow_549_1087" result="shape"/>
</filter>
<filter id="filter2_d_549_1087" x="126.117" y="111.546" width="14.98" height="13.48" filterUnits="userSpaceOnUse" color-interpolation-filters="sRGB">
<feFlood flood-opacity="0" result="BackgroundImageFix"/>
<feColorMatrix in="SourceAlpha" type="matrix" values="0 0 0 0 0 0 0 0 0 0 0 0 0 0 0 0 0 0 127 0" result="hardAlpha"/>
<feOffset dy="1"/>
<feGaussianBlur stdDeviation="1"/>
<feColorMatrix type="matrix" values="0 0 0 0 0.388235 0 0 0 0 0.388235 0 0 0 0 0.388235 0 0 0 0.2 0"/>
<feBlend mode="normal" in2="BackgroundImageFix" result="effect1_dropShadow_549_1087"/>
<feBlend mode="normal" in="SourceGraphic" in2="effect1_dropShadow_549_1087" result="shape"/>
</filter>
<filter id="filter3_d_549_1087" x="126.117" y="99.5764" width="14.98" height="13.48" filterUnits="userSpaceOnUse" color-interpolation-filters="sRGB">
<feFlood flood-opacity="0" result="BackgroundImageFix"/>
<feColorMatrix in="SourceAlpha" type="matrix" values="0 0 0 0 0 0 0 0 0 0 0 0 0 0 0 0 0 0 127 0" result="hardAlpha"/>
<feOffset dy="1"/>
<feGaussianBlur stdDeviation="1"/>
<feColorMatrix type="matrix" values="0 0 0 0 0.388235 0 0 0 0 0.388235 0 0 0 0 0.388235 0 0 0 0.2 0"/>
<feBlend mode="normal" in2="BackgroundImageFix" result="effect1_dropShadow_549_1087"/>
<feBlend mode="normal" in="SourceGraphic" in2="effect1_dropShadow_549_1087" result="shape"/>
</filter>
<filter id="filter4_d_549_1087" x="126.117" y="87.6064" width="14.98" height="13.48" filterUnits="userSpaceOnUse" color-interpolation-filters="sRGB">
<feFlood flood-opacity="0" result="BackgroundImageFix"/>
<feColorMatrix in="SourceAlpha" type="matrix" values="0 0 0 0 0 0 0 0 0 0 0 0 0 0 0 0 0 0 127 0" result="hardAlpha"/>
<feOffset dy="1"/>
<feGaussianBlur stdDeviation="1"/>
<feColorMatrix type="matrix" values="0 0 0 0 0.388235 0 0 0 0 0.388235 0 0 0 0 0.388235 0 0 0 0.2 0"/>
<feBlend mode="normal" in2="BackgroundImageFix" result="effect1_dropShadow_549_1087"/>
<feBlend mode="normal" in="SourceGraphic" in2="effect1_dropShadow_549_1087" result="shape"/>
</filter>
<filter id="filter5_d_549_1087" x="126.117" y="75.6364" width="14.98" height="13.48" filterUnits="userSpaceOnUse" color-interpolation-filters="sRGB">
<feFlood flood-opacity="0" result="BackgroundImageFix"/>
<feColorMatrix in="SourceAlpha" type="matrix" values="0 0 0 0 0 0 0 0 0 0 0 0 0 0 0 0 0 0 127 0" result="hardAlpha"/>
<feOffset dy="1"/>
<feGaussianBlur stdDeviation="1"/>
<feColorMatrix type="matrix" values="0 0 0 0 0.388235 0 0 0 0 0.388235 0 0 0 0 0.388235 0 0 0 0.2 0"/>
<feBlend mode="normal" in2="BackgroundImageFix" result="effect1_dropShadow_549_1087"/>
<feBlend mode="normal" in="SourceGraphic" in2="effect1_dropShadow_549_1087" result="shape"/>
</filter>
<filter id="filter6_d_549_1087" x="140.677" y="111.546" width="14.98" height="13.48" filterUnits="userSpaceOnUse" color-interpolation-filters="sRGB">
<feFlood flood-opacity="0" result="BackgroundImageFix"/>
<feColorMatrix in="SourceAlpha" type="matrix" values="0 0 0 0 0 0 0 0 0 0 0 0 0 0 0 0 0 0 127 0" result="hardAlpha"/>
<feOffset dy="1"/>
<feGaussianBlur stdDeviation="1"/>
<feColorMatrix type="matrix" values="0 0 0 0 0.388235 0 0 0 0 0.388235 0 0 0 0 0.388235 0 0 0 0.2 0"/>
<feBlend mode="normal" in2="BackgroundImageFix" result="effect1_dropShadow_549_1087"/>
<feBlend mode="normal" in="SourceGraphic" in2="effect1_dropShadow_549_1087" result="shape"/>
</filter>
<filter id="filter7_d_549_1087" x="140.927" y="99.8264" width="14.48" height="12.98" filterUnits="userSpaceOnUse" color-interpolation-filters="sRGB">
<feFlood flood-opacity="0" result="BackgroundImageFix"/>
<feColorMatrix in="SourceAlpha" type="matrix" values="0 0 0 0 0 0 0 0 0 0 0 0 0 0 0 0 0 0 127 0" result="hardAlpha"/>
<feOffset dy="1"/>
<feGaussianBlur stdDeviation="1"/>
<feColorMatrix type="matrix" values="0 0 0 0 0.435294 0 0 0 0 0.290196 0 0 0 0 1 0 0 0 0.2 0"/>
<feBlend mode="normal" in2="BackgroundImageFix" result="effect1_dropShadow_549_1087"/>
<feBlend mode="normal" in="SourceGraphic" in2="effect1_dropShadow_549_1087" result="shape"/>
</filter>
<filter id="filter8_d_549_1087" x="140.677" y="87.6064" width="14.98" height="13.48" filterUnits="userSpaceOnUse" color-interpolation-filters="sRGB">
<feFlood flood-opacity="0" result="BackgroundImageFix"/>
<feColorMatrix in="SourceAlpha" type="matrix" values="0 0 0 0 0 0 0 0 0 0 0 0 0 0 0 0 0 0 127 0" result="hardAlpha"/>
<feOffset dy="1"/>
<feGaussianBlur stdDeviation="1"/>
<feColorMatrix type="matrix" values="0 0 0 0 0.388235 0 0 0 0 0.388235 0 0 0 0 0.388235 0 0 0 0.2 0"/>
<feBlend mode="normal" in2="BackgroundImageFix" result="effect1_dropShadow_549_1087"/>
<feBlend mode="normal" in="SourceGraphic" in2="effect1_dropShadow_549_1087" result="shape"/>
</filter>
<filter id="filter9_d_549_1087" x="140.677" y="75.6364" width="14.98" height="13.48" filterUnits="userSpaceOnUse" color-interpolation-filters="sRGB">
<feFlood flood-opacity="0" result="BackgroundImageFix"/>
<feColorMatrix in="SourceAlpha" type="matrix" values="0 0 0 0 0 0 0 0 0 0 0 0 0 0 0 0 0 0 127 0" result="hardAlpha"/>
<feOffset dy="1"/>
<feGaussianBlur stdDeviation="1"/>
<feColorMatrix type="matrix" values="0 0 0 0 0.388235 0 0 0 0 0.388235 0 0 0 0 0.388235 0 0 0 0.2 0"/>
<feBlend mode="normal" in2="BackgroundImageFix" result="effect1_dropShadow_549_1087"/>
<feBlend mode="normal" in="SourceGraphic" in2="effect1_dropShadow_549_1087" result="shape"/>
</filter>
<filter id="filter10_d_549_1087" x="155.237" y="111.536" width="14.98" height="13.48" filterUnits="userSpaceOnUse" color-interpolation-filters="sRGB">
<feFlood flood-opacity="0" result="BackgroundImageFix"/>
<feColorMatrix in="SourceAlpha" type="matrix" values="0 0 0 0 0 0 0 0 0 0 0 0 0 0 0 0 0 0 127 0" result="hardAlpha"/>
<feOffset dy="1"/>
<feGaussianBlur stdDeviation="1"/>
<feColorMatrix type="matrix" values="0 0 0 0 0.388235 0 0 0 0 0.388235 0 0 0 0 0.388235 0 0 0 0.2 0"/>
<feBlend mode="normal" in2="BackgroundImageFix" result="effect1_dropShadow_549_1087"/>
<feBlend mode="normal" in="SourceGraphic" in2="effect1_dropShadow_549_1087" result="shape"/>
</filter>
<filter id="filter11_d_549_1087" x="155.237" y="99.5664" width="14.98" height="13.48" filterUnits="userSpaceOnUse" color-interpolation-filters="sRGB">
<feFlood flood-opacity="0" result="BackgroundImageFix"/>
<feColorMatrix in="SourceAlpha" type="matrix" values="0 0 0 0 0 0 0 0 0 0 0 0 0 0 0 0 0 0 127 0" result="hardAlpha"/>
<feOffset dy="1"/>
<feGaussianBlur stdDeviation="1"/>
<feColorMatrix type="matrix" values="0 0 0 0 0.388235 0 0 0 0 0.388235 0 0 0 0 0.388235 0 0 0 0.2 0"/>
<feBlend mode="normal" in2="BackgroundImageFix" result="effect1_dropShadow_549_1087"/>
<feBlend mode="normal" in="SourceGraphic" in2="effect1_dropShadow_549_1087" result="shape"/>
</filter>
<filter id="filter12_d_549_1087" x="155.237" y="87.6064" width="14.98" height="13.48" filterUnits="userSpaceOnUse" color-interpolation-filters="sRGB">
<feFlood flood-opacity="0" result="BackgroundImageFix"/>
<feColorMatrix in="SourceAlpha" type="matrix" values="0 0 0 0 0 0 0 0 0 0 0 0 0 0 0 0 0 0 127 0" result="hardAlpha"/>
<feOffset dy="1"/>
<feGaussianBlur stdDeviation="1"/>
<feColorMatrix type="matrix" values="0 0 0 0 0.388235 0 0 0 0 0.388235 0 0 0 0 0.388235 0 0 0 0.2 0"/>
<feBlend mode="normal" in2="BackgroundImageFix" result="effect1_dropShadow_549_1087"/>
<feBlend mode="normal" in="SourceGraphic" in2="effect1_dropShadow_549_1087" result="shape"/>
</filter>
<filter id="filter13_d_549_1087" x="155.237" y="75.6364" width="14.98" height="13.48" filterUnits="userSpaceOnUse" color-interpolation-filters="sRGB">
<feFlood flood-opacity="0" result="BackgroundImageFix"/>
<feColorMatrix in="SourceAlpha" type="matrix" values="0 0 0 0 0 0 0 0 0 0 0 0 0 0 0 0 0 0 127 0" result="hardAlpha"/>
<feOffset dy="1"/>
<feGaussianBlur stdDeviation="1"/>
<feColorMatrix type="matrix" values="0 0 0 0 0.388235 0 0 0 0 0.388235 0 0 0 0 0.388235 0 0 0 0.2 0"/>
<feBlend mode="normal" in2="BackgroundImageFix" result="effect1_dropShadow_549_1087"/>
<feBlend mode="normal" in="SourceGraphic" in2="effect1_dropShadow_549_1087" result="shape"/>
</filter>
<filter id="filter14_d_549_1087" x="141.766" y="129.352" width="33.1978" height="33.2017" filterUnits="userSpaceOnUse" color-interpolation-filters="sRGB">
<feFlood flood-opacity="0" result="BackgroundImageFix"/>
<feColorMatrix in="SourceAlpha" type="matrix" values="0 0 0 0 0 0 0 0 0 0 0 0 0 0 0 0 0 0 127 0" result="hardAlpha"/>
<feOffset dy="1"/>
<feGaussianBlur stdDeviation="4"/>
<feColorMatrix type="matrix" values="0 0 0 0 0.388235 0 0 0 0 0.388235 0 0 0 0 0.388235 0 0 0 0.4 0"/>
<feBlend mode="normal" in2="BackgroundImageFix" result="effect1_dropShadow_549_1087"/>
<feBlend mode="normal" in="SourceGraphic" in2="effect1_dropShadow_549_1087" result="shape"/>
</filter>
<linearGradient id="paint0_linear_549_1087" x1="46.2668" y1="-27.0236" x2="83.6668" y2="69.8464" gradientUnits="userSpaceOnUse">
<stop stop-color="#F5F2FF"/>
<stop offset="0.57" stop-color="#A58FFF"/>
<stop offset="1" stop-color="#6E4AFF"/>
</linearGradient>
<linearGradient id="paint1_linear_549_1087" x1="19.7968" y1="-7.36358" x2="140.927" y2="130.956" gradientUnits="userSpaceOnUse">
<stop stop-color="#F5F2FF"/>
<stop offset="0.57" stop-color="#A58FFF"/>
<stop offset="1" stop-color="#6E4AFF"/>
</linearGradient>
<linearGradient id="paint2_linear_549_1087" x1="77.4568" y1="98.6764" x2="101.177" y2="149.006" gradientUnits="userSpaceOnUse">
<stop stop-color="#F5F2FF"/>
<stop offset="0.57" stop-color="#A58FFF"/>
<stop offset="1" stop-color="#6E4AFF"/>
</linearGradient>
<linearGradient id="paint3_linear_549_1087" x1="74.7968" y1="66.1664" x2="109.217" y2="110.997" gradientUnits="userSpaceOnUse">
<stop stop-color="#F5F2FF"/>
<stop offset="0.57" stop-color="#A58FFF"/>
<stop offset="1" stop-color="#6E4AFF"/>
</linearGradient>
<linearGradient id="paint4_linear_549_1087" x1="63.6968" y1="74.6864" x2="98.1168" y2="119.516" gradientUnits="userSpaceOnUse">
<stop stop-color="#F5F2FF"/>
<stop offset="0.57" stop-color="#A58FFF"/>
<stop offset="1" stop-color="#6E4AFF"/>
</linearGradient>
<linearGradient id="paint5_linear_549_1087" x1="140.137" y1="92.7563" x2="159.007" y2="122.256" gradientUnits="userSpaceOnUse">
<stop stop-color="#F5F2FF"/>
<stop offset="0.57" stop-color="#A58FFF"/>
<stop offset="1" stop-color="#6E4AFF"/>
</linearGradient>
<radialGradient id="paint6_radial_549_1087" cx="0" cy="0" r="1" gradientUnits="userSpaceOnUse" gradientTransform="translate(153 153) rotate(-130.815) scale(43.6033 43.6033)">
<stop stop-color="#F5F2FF"/>
<stop offset="0.57" stop-color="#A58FFF"/>
<stop offset="1" stop-color="#6E4AFF"/>
</radialGradient>
</defs>
</svg>
