<svg width="432" height="519" viewBox="0 0 432 519" fill="none" xmlns="http://www.w3.org/2000/svg">
<g filter="url(#filter0_d_75_548)">
<g clip-path="url(#clip0_75_548)">
<rect y="16" width="400" height="455" rx="8" fill="white"/>
<rect width="400" height="44" transform="translate(0 16)" fill="#6F4AFF"/>
<g clip-path="url(#clip1_75_548)">
<path d="M59.2303 37.7993V38.8339C59.2303 40.7502 58.6135 42.3044 57.3813 43.492C56.1476 44.6796 54.5469 45.2749 52.6005 45.2749C50.52 45.2749 48.7852 44.6038 47.416 43.2617C46.0483 41.9014 45.3721 40.2518 45.3721 38.3159C45.3721 36.3799 46.0468 34.7121 47.3962 33.3518C48.7654 31.99 50.4423 31.319 52.4466 31.319C54.9718 31.319 57.1681 32.546 58.3256 34.444L56.0517 35.7483C55.4166 34.6546 54.0276 33.8881 52.4284 33.8881C51.1368 33.8881 50.0768 34.3107 49.2482 35.1529C48.4197 35.977 48.0146 37.0313 48.0146 38.3159C48.0146 39.6004 48.438 40.635 49.268 41.4591C50.1148 42.2831 51.2343 42.6861 52.6218 42.6861C54.684 42.6861 56.0715 41.7272 56.5528 40.1367H52.468V37.7978H59.2303V37.7993Z" fill="#F5F2FF"/>
<path d="M68.9595 36.2087C69.6524 36.9177 69.9997 37.8765 69.9997 39.1217V45.0067H67.5141V39.4292C67.5141 38.1447 66.7617 37.4554 65.6057 37.4554C64.3142 37.4554 63.4856 38.2416 63.4856 39.8322V45.0083H61V31.5901H63.4856V36.4981C64.0842 35.5968 65.0467 35.1559 66.3581 35.1559C67.4166 35.1544 68.2847 35.4998 68.9595 36.2087Z" fill="#F5F2FF"/>
<path d="M76.704 45.2749C75.2785 45.2749 74.0631 44.7962 73.0792 43.8177C72.0968 42.8406 71.614 41.6318 71.614 40.2139C71.614 38.7961 72.0953 37.6069 73.0792 36.6284C74.0616 35.6513 75.2769 35.153 76.704 35.153C78.1311 35.153 79.3435 35.6513 80.3274 36.6284C81.3097 37.6054 81.8108 38.7946 81.8108 40.2139C81.8108 41.6333 81.3097 42.8391 80.3274 43.8177C79.345 44.7962 78.1311 45.2749 76.704 45.2749ZM76.704 42.8603C77.4564 42.8603 78.0717 42.6104 78.5728 42.112C79.0739 41.6136 79.3252 40.9804 79.3252 40.2139C79.3252 39.4474 79.0739 38.8142 78.5728 38.3159C78.0717 37.8175 77.4549 37.5676 76.704 37.5676C75.9532 37.5676 75.3348 37.8175 74.8337 38.3159C74.3525 38.8142 74.1012 39.4474 74.1012 40.2139C74.1012 40.9804 74.3525 41.6136 74.8337 42.112C75.3348 42.6119 75.9532 42.8603 76.704 42.8603Z" fill="#F5F2FF"/>
<path d="M87.3991 39.199C88.8064 39.4853 90.6371 40.1578 90.6173 42.2074C90.6173 43.1844 90.2502 43.9524 89.4994 44.4887C88.7668 45.0067 87.8423 45.2748 86.7442 45.2748C84.7597 45.2748 83.4087 44.5084 82.6959 42.9935L84.8541 41.7862C85.1435 42.6103 85.7603 43.0329 86.7442 43.0329C87.6306 43.0329 88.0738 42.7648 88.0738 42.2089C88.0738 41.6923 87.3031 41.4045 86.3193 41.1546C84.8937 40.7895 83.1011 40.1957 83.1011 38.2022C83.1011 37.263 83.4483 36.5147 84.1413 35.9785C84.8541 35.4225 85.7222 35.1544 86.7625 35.1544C88.3236 35.1544 89.673 35.883 90.4239 37.1873L88.3038 38.337C87.9961 37.6857 87.4752 37.36 86.7625 37.36C86.1258 37.36 85.6445 37.6675 85.6445 38.1462C85.6445 38.6627 86.4152 38.9505 87.3991 39.199Z" fill="#F5F2FF"/>
<path d="M97.439 37.7994H95.261V41.7863C95.261 42.821 96.0134 42.8407 97.439 42.7634V45.0068C94.0273 45.3901 92.7754 44.4115 92.7754 41.7863V37.7994H91.0985V35.4226H92.7754V33.4867L95.261 32.7384V35.4226H97.439V37.7994Z" fill="#F5F2FF"/>
<path d="M101.003 41.2304C101.33 42.4377 102.237 43.033 103.72 43.033C104.664 43.033 105.397 42.7073 105.878 42.0742L107.882 43.2239C106.938 44.5857 105.531 45.2749 103.68 45.2749C102.081 45.2749 100.809 44.7963 99.8453 43.8374C98.8812 42.8785 98.3984 41.6712 98.3984 40.214C98.3984 38.7567 98.8797 37.5676 99.8255 36.6087C100.77 35.6317 102.003 35.1515 103.487 35.1515C104.894 35.1515 106.069 35.6302 106.976 36.6087C107.901 37.5858 108.364 38.7749 108.364 40.214C108.364 40.5397 108.326 40.8653 108.266 41.2289H101.003V41.2304ZM105.878 39.3142C105.589 38.0114 104.625 37.3783 103.488 37.3783C102.159 37.3783 101.253 38.0872 100.963 39.3142H105.878Z" fill="#F5F2FF"/>
<path d="M117.324 31.5886H119.81V45.0068H117.324V43.8767C116.591 44.8159 115.551 45.2764 114.202 45.2764C112.852 45.2764 111.792 44.7977 110.868 43.8192C109.961 42.8421 109.5 41.6333 109.5 40.2154C109.5 38.7976 109.963 37.6085 110.868 36.6299C111.792 35.6529 112.912 35.1545 114.202 35.1545C115.492 35.1545 116.593 35.615 117.324 36.5542V31.5886ZM114.665 42.9179C115.435 42.9179 116.072 42.6679 116.573 42.1696C117.074 41.6515 117.325 41.0001 117.325 40.2139C117.325 39.4277 117.074 38.7749 116.573 38.2765C116.072 37.7599 115.435 37.51 114.665 37.51C113.894 37.51 113.257 37.7599 112.736 38.2765C112.235 38.7749 111.984 39.4277 111.984 40.2139C111.984 41.0001 112.235 41.6515 112.736 42.1696C113.257 42.6694 113.894 42.9179 114.665 42.9179Z" fill="#F5F2FF"/>
<path d="M37.6227 38.5234V38.0053C37.6121 37.8296 37.6014 37.6221 37.5923 37.5282C37.2998 34.3849 35.4113 31.4083 32.324 29.5921C29.6755 28.0364 26.9431 27.6107 24.0737 28.3575C21.2256 29.0937 19.0461 30.754 17.5124 33.3367C16.626 34.8409 16.1249 36.3769 16 37.9947H24.1041C24.0417 37.1434 24.2092 36.2724 24.6357 35.4226C24.7499 35.1939 24.8748 34.9863 25.021 34.7788C26.6903 32.549 30.0273 31.9461 31.9265 34.2698C32.4276 34.8818 32.688 35.5877 32.918 36.3133C33.0323 36.6768 33.1374 37.0495 33.2729 37.413C34.0969 39.7883 36.2459 39.4989 37.5801 38.5643C37.5872 38.5643 37.5943 38.5572 37.6014 38.5431C37.4552 39.2384 37.1948 39.9337 36.7774 40.6184C35.7661 42.3195 34.3893 43.3784 32.6363 43.8343C30.8741 44.2903 29.1424 44.0418 27.4213 43.036C26.1176 42.268 25.0637 41.0865 24.5215 39.7262H20.2661C20.9027 42.3816 22.6755 44.8401 25.3668 46.4065C28.0367 47.9622 30.801 48.3878 33.6796 47.641C36.5581 46.9048 38.7483 45.2446 40.282 42.6619C41.074 41.3243 41.5446 39.9443 41.7106 38.5234H37.6227Z" fill="#F5F2FF"/>
<path d="M27.0605 38.3856C27.4976 38.2492 27.7398 37.7857 27.6027 37.3509C27.4656 36.9162 26.9996 36.6753 26.5625 36.8117C26.1253 36.948 25.8832 37.4115 26.0203 37.8463C26.1573 38.281 26.6234 38.5219 27.0605 38.3856Z" fill="#F5F2FF"/>
<path d="M30.597 37.56C31.0341 37.4237 31.2763 36.9601 31.1392 36.5254C31.0021 36.0906 30.5361 35.8498 30.099 35.9861C29.6618 36.1224 29.4197 36.586 29.5568 37.0207C29.6938 37.4555 30.1599 37.6978 30.597 37.56Z" fill="#F5F2FF"/>
</g>
<mask id="mask0_75_548" style="mask-type:alpha" maskUnits="userSpaceOnUse" x="360" y="26" width="24" height="24">
<rect x="360" y="26" width="24" height="24" fill="#D9D9D9"/>
</mask>
<g mask="url(#mask0_75_548)">
<path d="M370.125 48C369.875 48 369.658 47.9167 369.475 47.75C369.292 47.5833 369.183 47.375 369.15 47.125L368.85 44.8C368.633 44.7167 368.429 44.6167 368.238 44.5C368.046 44.3833 367.858 44.2583 367.675 44.125L365.5 45.025C365.267 45.125 365.033 45.1375 364.8 45.0625C364.567 44.9875 364.383 44.8417 364.25 44.625L362.4 41.4C362.267 41.1833 362.225 40.95 362.275 40.7C362.325 40.45 362.45 40.25 362.65 40.1L364.525 38.675C364.508 38.5583 364.5 38.4458 364.5 38.3375V37.6625C364.5 37.5542 364.508 37.4417 364.525 37.325L362.65 35.9C362.45 35.75 362.325 35.55 362.275 35.3C362.225 35.05 362.267 34.8167 362.4 34.6L364.25 31.375C364.383 31.1583 364.567 31.0125 364.8 30.9375C365.033 30.8625 365.267 30.875 365.5 30.975L367.675 31.875C367.858 31.7417 368.05 31.6167 368.25 31.5C368.45 31.3833 368.65 31.2833 368.85 31.2L369.15 28.875C369.183 28.625 369.292 28.4167 369.475 28.25C369.658 28.0833 369.875 28 370.125 28H373.875C374.125 28 374.342 28.0833 374.525 28.25C374.708 28.4167 374.817 28.625 374.85 28.875L375.15 31.2C375.367 31.2833 375.571 31.3833 375.763 31.5C375.954 31.6167 376.142 31.7417 376.325 31.875L378.5 30.975C378.733 30.875 378.967 30.8625 379.2 30.9375C379.433 31.0125 379.617 31.1583 379.75 31.375L381.6 34.6C381.733 34.8167 381.775 35.05 381.725 35.3C381.675 35.55 381.55 35.75 381.35 35.9L379.475 37.325C379.492 37.4417 379.5 37.5542 379.5 37.6625V38.3375C379.5 38.4458 379.483 38.5583 379.45 38.675L381.325 40.1C381.525 40.25 381.65 40.45 381.7 40.7C381.75 40.95 381.708 41.1833 381.575 41.4L379.725 44.6C379.592 44.8167 379.404 44.9667 379.163 45.05C378.921 45.1333 378.683 45.125 378.45 45.025L376.325 44.125C376.142 44.2583 375.95 44.3833 375.75 44.5C375.55 44.6167 375.35 44.7167 375.15 44.8L374.85 47.125C374.817 47.375 374.708 47.5833 374.525 47.75C374.342 47.9167 374.125 48 373.875 48H370.125ZM372.05 41.5C373.017 41.5 373.842 41.1583 374.525 40.475C375.208 39.7917 375.55 38.9667 375.55 38C375.55 37.0333 375.208 36.2083 374.525 35.525C373.842 34.8417 373.017 34.5 372.05 34.5C371.067 34.5 370.238 34.8417 369.563 35.525C368.888 36.2083 368.55 37.0333 368.55 38C368.55 38.9667 368.888 39.7917 369.563 40.475C370.238 41.1583 371.067 41.5 372.05 41.5Z" fill="#F5F2FF"/>
</g>
<rect width="400" height="411" transform="translate(0 60)" fill="white"/>
<mask id="mask1_75_548" style="mask-type:alpha" maskUnits="userSpaceOnUse" x="40" y="76" width="24" height="24">
<rect x="40" y="76" width="24" height="24" fill="#D9D9D9"/>
</mask>
<g mask="url(#mask1_75_548)">
<path d="M43.5501 87.9999L50.9001 95.3499C51.1501 95.5999 51.2709 95.8915 51.2626 96.2249C51.2542 96.5582 51.1251 96.8499 50.8751 97.0999C50.6251 97.3499 50.3334 97.4749 50.0001 97.4749C49.6667 97.4749 49.3751 97.3499 49.1251 97.0999L41.4251 89.4249C41.2251 89.2249 41.0751 88.9999 40.9751 88.7499C40.8751 88.4999 40.8251 88.2499 40.8251 87.9999C40.8251 87.7499 40.8751 87.4999 40.9751 87.2499C41.0751 86.9999 41.2251 86.7749 41.4251 86.5749L49.1251 78.8749C49.3751 78.6249 49.6709 78.504 50.0126 78.5124C50.3542 78.5207 50.6501 78.6499 50.9001 78.8999C51.1501 79.1499 51.2751 79.4415 51.2751 79.7749C51.2751 80.1082 51.1501 80.3999 50.9001 80.6499L43.5501 87.9999Z" fill="#000050"/>
</g>
<rect x="139" y="80" width="16" height="16" rx="8" fill="#FF6E6E"/>
<rect x="135" y="76" width="24" height="24" rx="12" stroke="#FF6E6E" stroke-opacity="0.16" stroke-width="8"/>
<path d="M178.045 94H174.885L171.545 88.26H169.345V94H166.625L166.605 80H172.005C174.745 80 176.525 81.62 176.525 84.14C176.525 85.72 175.705 87.06 174.325 87.74L178.045 94ZM169.345 82.34V85.92H171.585C172.985 85.92 173.785 85.26 173.785 84.14C173.785 83.02 172.985 82.34 171.585 82.34H169.345ZM188.368 88.62C188.368 88.98 188.348 89.42 188.328 89.62H180.848C181.068 91.14 182.048 92.04 183.488 92.04C184.668 92.04 185.508 91.48 185.768 90.5L188.128 91.14C187.568 93.04 185.808 94.16 183.448 94.16C180.108 94.16 178.328 91.58 178.328 88.96C178.328 86.34 179.968 83.76 183.308 83.76C186.708 83.76 188.368 86.28 188.368 88.62ZM180.908 87.78H185.668C185.548 86.58 184.768 85.68 183.308 85.68C182.068 85.68 181.188 86.42 180.908 87.78ZM194.855 94.16C191.835 94.16 189.735 92.04 189.735 88.96C189.735 85.88 191.835 83.76 194.855 83.76C197.435 83.76 199.255 85.1 199.595 87.24L197.135 87.72C196.955 86.66 196.115 85.94 194.935 85.94C193.375 85.94 192.355 87.12 192.355 88.96C192.355 90.8 193.375 91.98 194.935 91.98C196.115 91.98 196.895 91.34 197.135 90.26L199.595 90.76C199.215 92.88 197.395 94.16 194.855 94.16ZM206.206 94.16C203.146 94.16 200.946 91.96 200.946 88.96C200.946 85.96 203.146 83.76 206.206 83.76C209.266 83.76 211.466 85.96 211.466 88.96C211.466 91.96 209.266 94.16 206.206 94.16ZM206.206 91.98C207.826 91.98 208.926 90.76 208.926 88.96C208.926 87.16 207.826 85.94 206.206 85.94C204.566 85.94 203.486 87.16 203.486 88.96C203.486 90.76 204.566 91.98 206.206 91.98ZM219.861 86.36C219.501 86.2 219.021 86.12 218.581 86.12C217.161 86.12 215.881 87.3 215.881 90.3V94H213.361V83.92H215.881V85.76C216.381 84.62 217.701 83.76 218.921 83.76C219.281 83.76 219.721 83.82 220.021 83.92L219.861 86.36ZM225.394 94.16C222.374 94.16 220.594 92.04 220.594 88.96C220.594 85.88 222.374 83.76 225.354 83.76C226.614 83.76 227.694 84.28 228.274 85.04V79.84H230.794V94H228.274V92.84C227.774 93.64 226.654 94.16 225.394 94.16ZM225.754 91.98C227.374 91.98 228.434 90.78 228.434 88.96C228.434 87.14 227.374 85.94 225.754 85.94C224.154 85.94 223.094 87.14 223.094 88.96C223.094 90.78 224.154 91.98 225.754 91.98ZM234.503 82.38C233.603 82.38 232.943 81.7 232.943 80.82C232.943 79.96 233.603 79.28 234.503 79.28C235.423 79.28 236.103 79.96 236.103 80.82C236.103 81.7 235.423 82.38 234.503 82.38ZM233.243 94V83.92H235.763V94H233.243ZM238.204 94V83.92H240.724V85.44C241.364 84.46 242.504 83.76 243.924 83.76C246.124 83.76 247.604 85.2 247.604 87.4V94H245.084V88C245.084 86.82 244.344 86 243.164 86C241.624 86 240.724 87.32 240.724 89.58V94H238.204ZM256.98 83.92H259.48V93.36C259.48 96.02 257.48 97.8 254.48 97.8C252.12 97.8 250.22 96.54 249.88 94.66L252.22 94.28C252.34 95.22 253.3 95.78 254.48 95.78C256 95.78 257 94.92 257 93.62V92.52C256.5 93.24 255.4 93.7 254.2 93.7C251.24 93.7 249.5 91.7 249.5 88.74C249.5 85.76 251.24 83.76 254.14 83.76C255.38 83.76 256.42 84.24 256.98 84.94V83.92ZM254.56 91.52C256.12 91.52 257.14 90.42 257.14 88.74C257.14 87.04 256.12 85.94 254.56 85.94C253.02 85.94 252 87.04 252 88.74C252 90.42 253.02 91.52 254.56 91.52Z" fill="#000050"/>
<mask id="mask2_75_548" style="mask-type:alpha" maskUnits="userSpaceOnUse" x="336" y="76" width="24" height="24">
<rect x="336" y="76" width="24" height="24" fill="#D9D9D9"/>
</mask>
<g mask="url(#mask2_75_548)">
<path d="M339.55 87.9999L346.9 95.3499C347.15 95.5999 347.271 95.8915 347.263 96.2249C347.254 96.5582 347.125 96.8499 346.875 97.0999C346.625 97.3499 346.333 97.4749 346 97.4749C345.667 97.4749 345.375 97.3499 345.125 97.0999L337.425 89.4249C337.225 89.2249 337.075 88.9999 336.975 88.7499C336.875 88.4999 336.825 88.2499 336.825 87.9999C336.825 87.7499 336.875 87.4999 336.975 87.2499C337.075 86.9999 337.225 86.7749 337.425 86.5749L345.125 78.8749C345.375 78.6249 345.671 78.504 346.013 78.5124C346.354 78.5207 346.65 78.6499 346.9 78.8999C347.15 79.1499 347.275 79.4415 347.275 79.7749C347.275 80.1082 347.15 80.3999 346.9 80.6499L339.55 87.9999Z" fill="white"/>
</g>
<path d="M49.06 152.16C47.2067 152.16 45.62 151.533 44.3 150.28C42.9933 149.027 42.34 147.267 42.34 145C42.34 142.733 43 140.973 44.32 139.72C45.64 138.467 47.2333 137.84 49.1 137.84C50.7 137.84 52.06 138.273 53.18 139.14C54.3133 139.993 54.96 141.087 55.12 142.42H53.32C53.16 141.527 52.68 140.8 51.88 140.24C51.0933 139.667 50.16 139.38 49.08 139.38C47.6 139.38 46.3933 139.873 45.46 140.86C44.54 141.847 44.08 143.227 44.08 145C44.08 146.773 44.54 148.16 45.46 149.16C46.3933 150.16 47.6 150.66 49.08 150.66C50.2667 150.66 51.2867 150.353 52.14 149.74C52.9933 149.127 53.42 148.327 53.42 147.34C53.42 147.02 53.32 146.767 53.12 146.58C52.92 146.38 52.6533 146.28 52.32 146.28H49.16V144.8H52.62C53.2067 144.8 53.7667 145.02 54.3 145.46C54.8333 145.887 55.1 146.467 55.1 147.2V152H53.52V149.56C53.1867 150.333 52.6133 150.96 51.8 151.44C51 151.92 50.0867 152.16 49.06 152.16ZM65.6708 150.7C64.7108 151.673 63.4841 152.16 61.9908 152.16C60.4974 152.16 59.2708 151.673 58.3108 150.7C57.3508 149.713 56.8708 148.467 56.8708 146.96C56.8708 145.44 57.3508 144.193 58.3108 143.22C59.2708 142.247 60.4974 141.76 61.9908 141.76C63.4974 141.76 64.7308 142.247 65.6908 143.22C66.6508 144.193 67.1308 145.44 67.1308 146.96C67.1308 148.467 66.6441 149.713 65.6708 150.7ZM61.9908 150.72C63.0308 150.72 63.8708 150.373 64.5108 149.68C65.1641 148.973 65.4908 148.067 65.4908 146.96C65.4908 145.853 65.1641 144.953 64.5108 144.26C63.8708 143.553 63.0308 143.2 61.9908 143.2C60.9641 143.2 60.1241 143.553 59.4708 144.26C58.8308 144.953 58.5108 145.853 58.5108 146.96C58.5108 148.067 58.8308 148.973 59.4708 149.68C60.1241 150.373 60.9641 150.72 61.9908 150.72ZM77.4286 150.7C76.4686 151.673 75.2419 152.16 73.7486 152.16C72.2553 152.16 71.0286 151.673 70.0686 150.7C69.1086 149.713 68.6286 148.467 68.6286 146.96C68.6286 145.44 69.1086 144.193 70.0686 143.22C71.0286 142.247 72.2553 141.76 73.7486 141.76C75.2553 141.76 76.4886 142.247 77.4486 143.22C78.4086 144.193 78.8886 145.44 78.8886 146.96C78.8886 148.467 78.4019 149.713 77.4286 150.7ZM73.7486 150.72C74.7886 150.72 75.6286 150.373 76.2686 149.68C76.9219 148.973 77.2486 148.067 77.2486 146.96C77.2486 145.853 76.9219 144.953 76.2686 144.26C75.6286 143.553 74.7886 143.2 73.7486 143.2C72.7219 143.2 71.8819 143.553 71.2286 144.26C70.5886 144.953 70.2686 145.853 70.2686 146.96C70.2686 148.067 70.5886 148.973 71.2286 149.68C71.8819 150.373 72.7219 150.72 73.7486 150.72ZM88.5864 141.92H90.1864V152.44C90.1864 153.507 89.8397 154.38 89.1464 155.06C88.4531 155.74 87.5597 156.08 86.4664 156.08H81.7064V154.7H86.3664C87.0197 154.7 87.5531 154.48 87.9664 154.04C88.3797 153.6 88.5864 153.047 88.5864 152.38V150.6C88.3464 151.067 87.9197 151.447 87.3064 151.74C86.6931 152.02 86.0064 152.16 85.2464 152.16C83.7264 152.16 82.5331 151.673 81.6664 150.7C80.8131 149.727 80.3864 148.48 80.3864 146.96C80.3864 145.44 80.8131 144.193 81.6664 143.22C82.5331 142.247 83.7264 141.76 85.2464 141.76C85.9264 141.76 86.5731 141.913 87.1864 142.22C87.8131 142.527 88.2797 142.92 88.5864 143.4V141.92ZM82.9464 149.7C83.5597 150.38 84.3731 150.72 85.3864 150.72C86.3997 150.72 87.2064 150.38 87.8064 149.7C88.4197 149.007 88.7264 148.093 88.7264 146.96C88.7264 145.827 88.4197 144.92 87.8064 144.24C87.2064 143.547 86.3997 143.2 85.3864 143.2C84.3731 143.2 83.5597 143.54 82.9464 144.22C82.3331 144.9 82.0264 145.813 82.0264 146.96C82.0264 148.107 82.3331 149.02 82.9464 149.7ZM92.1969 152V137.84H93.7969V152H92.1969ZM103.738 148.76H105.358C105.184 149.8 104.678 150.627 103.838 151.24C103.011 151.853 101.978 152.16 100.738 152.16C99.2708 152.16 98.0708 151.653 97.1375 150.64C96.2175 149.613 95.7575 148.367 95.7575 146.9C95.7575 145.393 96.1908 144.16 97.0575 143.2C97.9375 142.24 99.1042 141.76 100.558 141.76C101.998 141.76 103.138 142.207 103.978 143.1C104.831 143.98 105.258 145.107 105.258 146.48C105.258 146.76 105.244 146.993 105.217 147.18H97.3375C97.4042 148.22 97.7508 149.073 98.3775 149.74C99.0042 150.407 99.7908 150.74 100.738 150.74C102.404 150.74 103.404 150.08 103.738 148.76ZM100.558 143.12C99.7042 143.12 99.0042 143.36 98.4575 143.84C97.9108 144.32 97.5642 145.007 97.4175 145.9H103.618C103.551 145.047 103.244 144.373 102.698 143.88C102.164 143.373 101.451 143.12 100.558 143.12ZM112.628 152V138H117.888C119.262 138 120.348 138.38 121.148 139.14C121.948 139.9 122.348 140.9 122.348 142.14C122.348 143.38 121.948 144.38 121.148 145.14C120.348 145.9 119.262 146.28 117.888 146.28H114.328V152H112.628ZM114.328 144.76H117.888C118.822 144.76 119.508 144.513 119.948 144.02C120.388 143.527 120.608 142.9 120.608 142.14C120.608 141.38 120.388 140.753 119.948 140.26C119.508 139.767 118.822 139.52 117.888 139.52H114.328V144.76ZM129.672 143.34H128.112C127.166 143.34 126.519 143.687 126.172 144.38C125.826 145.06 125.652 146.067 125.652 147.4V152H124.052V141.92H125.652V144.02C125.879 143.273 126.186 142.713 126.572 142.34C126.972 141.953 127.526 141.76 128.232 141.76H129.672V143.34ZM139.108 150.7C138.148 151.673 136.922 152.16 135.428 152.16C133.935 152.16 132.708 151.673 131.748 150.7C130.788 149.713 130.308 148.467 130.308 146.96C130.308 145.44 130.788 144.193 131.748 143.22C132.708 142.247 133.935 141.76 135.428 141.76C136.935 141.76 138.168 142.247 139.128 143.22C140.088 144.193 140.568 145.44 140.568 146.96C140.568 148.467 140.082 149.713 139.108 150.7ZM135.428 150.72C136.468 150.72 137.308 150.373 137.948 149.68C138.602 148.973 138.928 148.067 138.928 146.96C138.928 145.853 138.602 144.953 137.948 144.26C137.308 143.553 136.468 143.2 135.428 143.2C134.402 143.2 133.562 143.553 132.908 144.26C132.268 144.953 131.948 145.853 131.948 146.96C131.948 148.067 132.268 148.973 132.908 149.68C133.562 150.373 134.402 150.72 135.428 150.72ZM146.926 152.16C145.406 152.16 144.213 151.673 143.346 150.7C142.493 149.727 142.066 148.48 142.066 146.96C142.066 145.44 142.493 144.193 143.346 143.22C144.213 142.247 145.406 141.76 146.926 141.76C147.593 141.76 148.233 141.913 148.846 142.22C149.473 142.527 149.946 142.92 150.266 143.4V137.84H151.866V152H150.266V150.5C150.026 150.98 149.593 151.38 148.966 151.7C148.353 152.007 147.673 152.16 146.926 152.16ZM144.626 149.7C145.239 150.38 146.053 150.72 147.066 150.72C148.079 150.72 148.886 150.38 149.486 149.7C150.099 149.007 150.406 148.093 150.406 146.96C150.406 145.827 150.099 144.92 149.486 144.24C148.886 143.547 148.079 143.2 147.066 143.2C146.053 143.2 145.239 143.547 144.626 144.24C144.013 144.92 143.706 145.827 143.706 146.96C143.706 148.093 144.013 149.007 144.626 149.7ZM162.632 141.92V152H161.032V150.06C160.779 150.74 160.359 151.26 159.772 151.62C159.186 151.98 158.499 152.16 157.712 152.16C156.579 152.16 155.666 151.787 154.972 151.04C154.292 150.293 153.952 149.307 153.952 148.08V141.92H155.552V147.82C155.552 148.687 155.779 149.387 156.232 149.92C156.699 150.44 157.312 150.7 158.072 150.7C158.939 150.7 159.646 150.387 160.192 149.76C160.752 149.133 161.032 148.333 161.032 147.36V141.92H162.632ZM169.603 152.16C168.083 152.16 166.883 151.653 166.003 150.64C165.136 149.613 164.703 148.387 164.703 146.96C164.703 145.533 165.136 144.313 166.003 143.3C166.883 142.273 168.083 141.76 169.603 141.76C170.776 141.76 171.796 142.08 172.663 142.72C173.529 143.36 174.036 144.227 174.183 145.32H172.603C172.496 144.707 172.163 144.2 171.603 143.8C171.043 143.4 170.383 143.2 169.623 143.2C168.569 143.2 167.763 143.553 167.203 144.26C166.643 144.967 166.363 145.867 166.363 146.96C166.363 148.053 166.643 148.953 167.203 149.66C167.776 150.367 168.583 150.72 169.623 150.72C170.383 150.72 171.023 150.547 171.543 150.2C172.063 149.84 172.416 149.353 172.603 148.74H174.163C173.989 149.78 173.503 150.613 172.703 151.24C171.903 151.853 170.869 152.16 169.603 152.16ZM177.397 138.7H178.997V141.92H182.097V143.34H178.997V148.76C178.997 149.32 179.137 149.76 179.417 150.08C179.71 150.387 180.11 150.54 180.617 150.54H182.097V152H180.557C179.597 152 178.83 151.72 178.257 151.16C177.683 150.587 177.397 149.813 177.397 148.84V143.34H175.297V141.92H177.397V138.7ZM189.64 152V138H191.7L196.48 149.5L201.24 138H203.3V152H201.64V141.24L197.2 152H195.74L191.3 141.24V152H189.64ZM209.411 141.76C210.651 141.76 211.677 142.1 212.491 142.78C213.317 143.447 213.731 144.313 213.731 145.38V152H212.171V150.26C211.904 150.833 211.457 151.293 210.831 151.64C210.204 151.987 209.497 152.16 208.711 152.16C207.697 152.16 206.864 151.88 206.211 151.32C205.557 150.747 205.231 150.02 205.231 149.14C205.231 148.1 205.564 147.3 206.231 146.74C206.911 146.18 207.917 145.9 209.251 145.9H211.591C211.977 145.9 212.171 145.727 212.171 145.38V145.36C212.171 144.68 211.911 144.14 211.391 143.74C210.871 143.327 210.217 143.12 209.431 143.12C208.697 143.12 208.077 143.32 207.571 143.72C207.064 144.12 206.784 144.6 206.731 145.16H205.231C205.324 144.187 205.764 143.38 206.551 142.74C207.351 142.087 208.304 141.76 209.411 141.76ZM208.951 150.8C209.964 150.8 210.751 150.507 211.311 149.92C211.884 149.32 212.171 148.5 212.171 147.46V147.1H209.351C207.697 147.1 206.871 147.773 206.871 149.12C206.871 149.613 207.064 150.02 207.451 150.34C207.851 150.647 208.351 150.8 208.951 150.8ZM215.752 152V141.92H217.352V143.86C217.605 143.18 218.025 142.66 218.612 142.3C219.198 141.94 219.885 141.76 220.672 141.76C221.805 141.76 222.712 142.133 223.392 142.88C224.085 143.627 224.432 144.613 224.432 145.84V152H222.832V146.1C222.832 145.233 222.598 144.54 222.132 144.02C221.678 143.487 221.072 143.22 220.312 143.22C219.445 143.22 218.732 143.533 218.172 144.16C217.625 144.787 217.352 145.587 217.352 146.56V152H215.752ZM230.524 141.76C231.764 141.76 232.791 142.1 233.604 142.78C234.431 143.447 234.844 144.313 234.844 145.38V152H233.284V150.26C233.017 150.833 232.571 151.293 231.944 151.64C231.317 151.987 230.611 152.16 229.824 152.16C228.811 152.16 227.977 151.88 227.324 151.32C226.671 150.747 226.344 150.02 226.344 149.14C226.344 148.1 226.677 147.3 227.344 146.74C228.024 146.18 229.031 145.9 230.364 145.9H232.704C233.091 145.9 233.284 145.727 233.284 145.38V145.36C233.284 144.68 233.024 144.14 232.504 143.74C231.984 143.327 231.331 143.12 230.544 143.12C229.811 143.12 229.191 143.32 228.684 143.72C228.177 144.12 227.897 144.6 227.844 145.16H226.344C226.437 144.187 226.877 143.38 227.664 142.74C228.464 142.087 229.417 141.76 230.524 141.76ZM230.064 150.8C231.077 150.8 231.864 150.507 232.424 149.92C232.997 149.32 233.284 148.5 233.284 147.46V147.1H230.464C228.811 147.1 227.984 147.773 227.984 149.12C227.984 149.613 228.177 150.02 228.564 150.34C228.964 150.647 229.464 150.8 230.064 150.8ZM244.895 141.92H246.495V152.44C246.495 153.507 246.148 154.38 245.455 155.06C244.762 155.74 243.868 156.08 242.775 156.08H238.015V154.7H242.675C243.328 154.7 243.862 154.48 244.275 154.04C244.688 153.6 244.895 153.047 244.895 152.38V150.6C244.655 151.067 244.228 151.447 243.615 151.74C243.002 152.02 242.315 152.16 241.555 152.16C240.035 152.16 238.842 151.673 237.975 150.7C237.122 149.727 236.695 148.48 236.695 146.96C236.695 145.44 237.122 144.193 237.975 143.22C238.842 142.247 240.035 141.76 241.555 141.76C242.235 141.76 242.882 141.913 243.495 142.22C244.122 142.527 244.588 142.92 244.895 143.4V141.92ZM239.255 149.7C239.868 150.38 240.682 150.72 241.695 150.72C242.708 150.72 243.515 150.38 244.115 149.7C244.728 149.007 245.035 148.093 245.035 146.96C245.035 145.827 244.728 144.92 244.115 144.24C243.515 143.547 242.708 143.2 241.695 143.2C240.682 143.2 239.868 143.54 239.255 144.22C238.642 144.9 238.335 145.813 238.335 146.96C238.335 148.107 238.642 149.02 239.255 149.7ZM256.218 148.76H257.838C257.665 149.8 257.158 150.627 256.318 151.24C255.491 151.853 254.458 152.16 253.218 152.16C251.751 152.16 250.551 151.653 249.618 150.64C248.698 149.613 248.238 148.367 248.238 146.9C248.238 145.393 248.671 144.16 249.538 143.2C250.418 142.24 251.585 141.76 253.038 141.76C254.478 141.76 255.618 142.207 256.458 143.1C257.311 143.98 257.738 145.107 257.738 146.48C257.738 146.76 257.725 146.993 257.698 147.18H249.818C249.885 148.22 250.231 149.073 250.858 149.74C251.485 150.407 252.271 150.74 253.218 150.74C254.885 150.74 255.885 150.08 256.218 148.76ZM253.038 143.12C252.185 143.12 251.485 143.36 250.938 143.84C250.391 144.32 250.045 145.007 249.898 145.9H256.098C256.031 145.047 255.725 144.373 255.178 143.88C254.645 143.373 253.931 143.12 253.038 143.12ZM265.493 143.34H263.933C262.986 143.34 262.339 143.687 261.993 144.38C261.646 145.06 261.473 146.067 261.473 147.4V152H259.873V141.92H261.473V144.02C261.699 143.273 262.006 142.713 262.393 142.34C262.793 141.953 263.346 141.76 264.053 141.76H265.493V143.34ZM266.402 153H267.102C267.675 153 267.962 152.567 267.962 151.7V149.96H269.562V151.78C269.562 152.62 269.349 153.267 268.922 153.72C268.509 154.173 267.935 154.4 267.202 154.4H266.402V153ZM277.921 152V138H279.621V152H277.921ZM281.865 152V141.92H283.465V143.86C283.718 143.18 284.138 142.66 284.725 142.3C285.312 141.94 285.998 141.76 286.785 141.76C287.918 141.76 288.825 142.133 289.505 142.88C290.198 143.627 290.545 144.613 290.545 145.84V152H288.945V146.1C288.945 145.233 288.712 144.54 288.245 144.02C287.792 143.487 287.185 143.22 286.425 143.22C285.558 143.22 284.845 143.533 284.285 144.16C283.738 144.787 283.465 145.587 283.465 146.56V152H281.865ZM293.881 138.7H295.481V141.92H298.581V143.34H295.481V148.76C295.481 149.32 295.621 149.76 295.901 150.08C296.194 150.387 296.594 150.54 297.101 150.54H298.581V152H297.041C296.081 152 295.314 151.72 294.741 151.16C294.168 150.587 293.881 149.813 293.881 148.84V143.34H291.781V141.92H293.881V138.7ZM308.054 148.76H309.674C309.501 149.8 308.994 150.627 308.154 151.24C307.327 151.853 306.294 152.16 305.054 152.16C303.587 152.16 302.387 151.653 301.454 150.64C300.534 149.613 300.074 148.367 300.074 146.9C300.074 145.393 300.507 144.16 301.374 143.2C302.254 142.24 303.421 141.76 304.874 141.76C306.314 141.76 307.454 142.207 308.294 143.1C309.147 143.98 309.574 145.107 309.574 146.48C309.574 146.76 309.561 146.993 309.534 147.18H301.654C301.721 148.22 302.067 149.073 302.694 149.74C303.321 150.407 304.107 150.74 305.054 150.74C306.721 150.74 307.721 150.08 308.054 148.76ZM304.874 143.12C304.021 143.12 303.321 143.36 302.774 143.84C302.227 144.32 301.881 145.007 301.734 145.9H307.934C307.867 145.047 307.561 144.373 307.014 143.88C306.481 143.373 305.767 143.12 304.874 143.12ZM317.329 143.34H315.769C314.822 143.34 314.175 143.687 313.829 144.38C313.482 145.06 313.309 146.067 313.309 147.4V152H311.709V141.92H313.309V144.02C313.535 143.273 313.842 142.713 314.229 142.34C314.629 141.953 315.182 141.76 315.889 141.76H317.329V143.34ZM321.905 152L318.205 141.92H319.865L322.725 149.92L325.585 141.92H327.265L323.565 152H321.905ZM328.583 137.76H330.443V140.12H328.583V137.76ZM328.723 152V141.92H330.323V152H328.723ZM340.339 148.76H341.959C341.786 149.8 341.279 150.627 340.439 151.24C339.612 151.853 338.579 152.16 337.339 152.16C335.872 152.16 334.672 151.653 333.739 150.64C332.819 149.613 332.359 148.367 332.359 146.9C332.359 145.393 332.792 144.16 333.659 143.2C334.539 142.24 335.706 141.76 337.159 141.76C338.599 141.76 339.739 142.207 340.579 143.1C341.432 143.98 341.859 145.107 341.859 146.48C341.859 146.76 341.846 146.993 341.819 147.18H333.939C334.006 148.22 334.352 149.073 334.979 149.74C335.606 150.407 336.392 150.74 337.339 150.74C339.006 150.74 340.006 150.08 340.339 148.76ZM337.159 143.12C336.306 143.12 335.606 143.36 335.059 143.84C334.512 144.32 334.166 145.007 334.019 145.9H340.219C340.152 145.047 339.846 144.373 339.299 143.88C338.766 143.373 338.052 143.12 337.159 143.12ZM346.473 152L343.173 141.92H344.833L347.253 149.76L349.473 141.92H351.013L353.213 149.76L355.653 141.92H357.313L354.013 152H352.433L350.233 144.2L348.033 152H346.473Z" fill="#000050"/>
<g filter="url(#filter1_dddd_75_548)">
<rect x="40" y="188" width="320" height="159" rx="16" fill="white"/>
<rect x="40.5" y="188.5" width="319" height="158" rx="15.5" stroke="#D7D7D7"/>
<mask id="mask3_75_548" style="mask-type:alpha" maskUnits="userSpaceOnUse" x="56" y="212" width="32" height="32">
<rect x="56" y="212" width="32" height="32" fill="#D9D9D9"/>
</mask>
<g mask="url(#mask3_75_548)">
<path d="M77.3333 237.333C76.6 237.333 75.9722 237.072 75.45 236.55C74.9278 236.028 74.6667 235.4 74.6667 234.667V221.333C74.6667 220.6 74.9278 219.972 75.45 219.45C75.9722 218.928 76.6 218.667 77.3333 218.667C78.0667 218.667 78.6944 218.928 79.2167 219.45C79.7389 219.972 80 220.6 80 221.333V234.667C80 235.4 79.7389 236.028 79.2167 236.55C78.6944 237.072 78.0667 237.333 77.3333 237.333ZM66.6667 237.333C65.9333 237.333 65.3056 237.072 64.7833 236.55C64.2611 236.028 64 235.4 64 234.667V221.333C64 220.6 64.2611 219.972 64.7833 219.45C65.3056 218.928 65.9333 218.667 66.6667 218.667C67.4 218.667 68.0278 218.928 68.55 219.45C69.0722 219.972 69.3333 220.6 69.3333 221.333V234.667C69.3333 235.4 69.0722 236.028 68.55 236.55C68.0278 237.072 67.4 237.333 66.6667 237.333Z" fill="#000050"/>
</g>
<mask id="mask4_75_548" style="mask-type:alpha" maskUnits="userSpaceOnUse" x="100" y="212" width="32" height="32">
<rect x="100" y="212" width="32" height="32" fill="#D9D9D9"/>
</mask>
<g mask="url(#mask4_75_548)">
<path d="M108 233.333V222.667C108 221.933 108.261 221.306 108.783 220.783C109.306 220.261 109.933 220 110.667 220H121.333C122.067 220 122.694 220.261 123.217 220.783C123.739 221.306 124 221.933 124 222.667V233.333C124 234.067 123.739 234.694 123.217 235.217C122.694 235.739 122.067 236 121.333 236H110.667C109.933 236 109.306 235.739 108.783 235.217C108.261 234.694 108 234.067 108 233.333Z" fill="#000050"/>
</g>
<path d="M185.522 235.692C182.114 235.692 179.666 233.748 179.354 230.772L181.946 230.364C182.186 232.092 183.602 233.22 185.522 233.22C187.562 233.22 188.93 231.996 188.93 230.124C188.93 228.204 187.658 227.076 185.618 227.076C185.018 227.076 184.274 227.244 183.746 227.604L182.594 225.78L187.49 221.148H179.834V218.7H190.802V221.028L186.29 225.204C189.53 225.012 191.786 226.98 191.786 230.196C191.786 233.484 189.29 235.692 185.522 235.692ZM195.939 226.572C194.955 226.572 194.235 225.852 194.235 224.892C194.235 223.932 194.955 223.212 195.939 223.212C196.923 223.212 197.643 223.932 197.643 224.892C197.643 225.852 196.923 226.572 195.939 226.572ZM195.939 235.692C194.955 235.692 194.235 234.972 194.235 234.012C194.235 233.052 194.955 232.332 195.939 232.332C196.923 232.332 197.643 233.052 197.643 234.012C197.643 234.972 196.923 235.692 195.939 235.692ZM203.07 235.5V221.94C201.942 222.924 200.694 223.452 199.182 223.764V221.244C200.79 220.884 202.326 219.996 203.526 218.7H205.71V235.5H203.07ZM214.332 235.692C210.804 235.692 208.212 233.724 208.212 230.604C208.212 228.684 209.412 227.052 211.284 226.452C209.844 225.804 208.908 224.436 208.908 222.972C208.908 220.404 211.068 218.508 214.332 218.508C217.524 218.508 219.66 220.404 219.66 222.972C219.66 224.46 218.724 225.828 217.284 226.452C219.156 227.052 220.38 228.684 220.38 230.604C220.38 233.724 217.788 235.692 214.332 235.692ZM214.332 225.42C215.94 225.42 217.02 224.484 217.044 223.068C217.044 221.652 215.964 220.74 214.332 220.74C212.628 220.74 211.524 221.652 211.548 223.068C211.548 224.484 212.652 225.42 214.332 225.42ZM214.308 233.34C216.3 233.34 217.596 232.26 217.596 230.58C217.596 228.9 216.3 227.796 214.308 227.796C212.292 227.796 210.972 228.9 210.972 230.58C210.972 232.26 212.292 233.34 214.308 233.34Z" fill="#000050"/>
<mask id="mask5_75_548" style="mask-type:alpha" maskUnits="userSpaceOnUse" x="312" y="212" width="32" height="32">
<rect x="312" y="212" width="32" height="32" fill="#D9D9D9"/>
</mask>
<g mask="url(#mask5_75_548)">
<path d="M328 232.767C327.822 232.767 327.656 232.739 327.5 232.683C327.344 232.628 327.2 232.533 327.067 232.4L322.267 227.6C322 227.333 321.872 227.022 321.883 226.667C321.894 226.311 322.022 226 322.267 225.733C322.533 225.467 322.85 225.328 323.217 225.317C323.583 225.306 323.9 225.433 324.167 225.7L326.667 228.2V218.667C326.667 218.289 326.794 217.972 327.05 217.717C327.306 217.461 327.622 217.333 328 217.333C328.378 217.333 328.694 217.461 328.95 217.717C329.206 217.972 329.333 218.289 329.333 218.667V228.2L331.833 225.7C332.1 225.433 332.417 225.306 332.783 225.317C333.15 225.328 333.467 225.467 333.733 225.733C333.978 226 334.106 226.311 334.117 226.667C334.128 227.022 334 227.333 333.733 227.6L328.933 232.4C328.8 232.533 328.656 232.628 328.5 232.683C328.344 232.739 328.178 232.767 328 232.767ZM320 238.667C319.267 238.667 318.639 238.406 318.117 237.883C317.594 237.361 317.333 236.733 317.333 236V233.333C317.333 232.956 317.461 232.639 317.717 232.383C317.972 232.128 318.289 232 318.667 232C319.044 232 319.361 232.128 319.617 232.383C319.872 232.639 320 232.956 320 233.333V236H336V233.333C336 232.956 336.128 232.639 336.383 232.383C336.639 232.128 336.956 232 337.333 232C337.711 232 338.028 232.128 338.283 232.383C338.539 232.639 338.667 232.956 338.667 233.333V236C338.667 236.733 338.406 237.361 337.883 237.883C337.361 238.406 336.733 238.667 336 238.667H320Z" fill="#787878"/>
</g>
<path d="M57.104 274V262.8H59.264L62.832 271.312L66.4 262.8H68.56V274H66.768V266.304L63.568 274H62.112L58.896 266.304V274H57.104ZM71.5443 264.592C70.9043 264.592 70.4243 264.096 70.4243 263.472C70.4243 262.832 70.9043 262.336 71.5443 262.336C72.2003 262.336 72.6963 262.832 72.6963 263.472C72.6963 264.096 72.2003 264.592 71.5443 264.592ZM70.6803 274V265.936H72.4243V274H70.6803ZM78.1088 274.128C75.6928 274.128 74.0608 272.448 74.0608 269.968C74.0608 267.488 75.6928 265.808 78.1088 265.808C80.0928 265.808 81.5168 266.864 81.7888 268.528L80.0928 268.864C79.9328 267.952 79.1808 267.328 78.1568 267.328C76.7648 267.328 75.8688 268.368 75.8688 269.968C75.8688 271.568 76.7808 272.608 78.1568 272.608C79.1808 272.608 79.9008 272.048 80.0928 271.104L81.8048 271.44C81.4688 273.12 80.0768 274.128 78.1088 274.128ZM88.3914 267.632C88.1034 267.504 87.7194 267.44 87.3514 267.44C86.1674 267.44 85.1274 268.496 85.1274 270.992V274H83.3834V265.936H85.1274V267.472C85.5594 266.512 86.6154 265.808 87.5914 265.808C87.8954 265.808 88.2474 265.856 88.4874 265.952L88.3914 267.632ZM93.1426 274.128C90.7106 274.128 88.9826 272.384 88.9826 269.968C88.9826 267.552 90.7106 265.808 93.1426 265.808C95.5586 265.808 97.3026 267.552 97.3026 269.968C97.3026 272.384 95.5586 274.128 93.1426 274.128ZM93.1426 272.608C94.5666 272.608 95.5426 271.52 95.5426 269.968C95.5426 268.416 94.5666 267.328 93.1426 267.328C91.7026 267.328 90.7426 268.416 90.7426 269.968C90.7426 271.52 91.7026 272.608 93.1426 272.608ZM98.9146 276.912V265.936H100.659V266.96C101.107 266.304 102.051 265.808 103.171 265.808C105.555 265.808 106.963 267.536 106.963 269.968C106.963 272.4 105.491 274.128 103.075 274.128C102.099 274.128 101.155 273.712 100.659 273.072V276.912H98.9146ZM102.883 272.608C104.291 272.608 105.219 271.552 105.219 269.968C105.219 268.368 104.291 267.328 102.883 267.328C101.475 267.328 100.547 268.368 100.547 269.968C100.547 271.552 101.475 272.608 102.883 272.608ZM108.571 274V262.672H110.315V267.328C110.875 266.32 111.819 265.808 112.955 265.808C114.779 265.808 115.979 266.944 115.979 268.704V274H114.235V269.104C114.235 268.032 113.563 267.376 112.475 267.376C111.131 267.376 110.315 268.544 110.315 270.512V274H108.571ZM121.752 274.128C119.32 274.128 117.592 272.384 117.592 269.968C117.592 267.552 119.32 265.808 121.752 265.808C124.168 265.808 125.912 267.552 125.912 269.968C125.912 272.384 124.168 274.128 121.752 274.128ZM121.752 272.608C123.176 272.608 124.152 271.52 124.152 269.968C124.152 268.416 123.176 267.328 121.752 267.328C120.312 267.328 119.352 268.416 119.352 269.968C119.352 271.52 120.312 272.608 121.752 272.608ZM127.524 274V265.936H129.268V267.28C129.812 266.416 130.74 265.808 131.924 265.808C133.636 265.808 134.836 266.944 134.836 268.688V274H133.092V269.088C133.092 268.08 132.468 267.376 131.444 267.376C130.084 267.376 129.268 268.528 129.268 270.464V274H127.524ZM144.355 269.664C144.355 269.904 144.339 270.24 144.323 270.384H138.163C138.323 271.776 139.219 272.64 140.499 272.64C141.555 272.64 142.307 272.144 142.515 271.264L144.163 271.68C143.731 273.232 142.355 274.128 140.467 274.128C137.907 274.128 136.451 272.144 136.451 269.968C136.451 267.792 137.827 265.808 140.387 265.808C142.979 265.808 144.355 267.696 144.355 269.664ZM138.243 269.056H142.499C142.387 267.968 141.667 267.184 140.387 267.184C139.283 267.184 138.499 267.856 138.243 269.056ZM147.113 268.048C146.457 268.048 145.977 267.568 145.977 266.928C145.977 266.288 146.457 265.808 147.113 265.808C147.769 265.808 148.249 266.288 148.249 266.928C148.249 267.568 147.769 268.048 147.113 268.048ZM147.113 274.128C146.457 274.128 145.977 273.648 145.977 273.008C145.977 272.368 146.457 271.888 147.113 271.888C147.769 271.888 148.249 272.368 148.249 273.008C148.249 273.648 147.769 274.128 147.113 274.128Z" fill="#2C2C2C"/>
<g filter="url(#filter2_d_75_548)">
<g clip-path="url(#clip2_75_548)">
<rect x="56" y="287" width="288" height="44" rx="8" fill="white"/>
<g clip-path="url(#clip3_75_548)">
<path d="M396 311.435V331H56V323.734L72.2573 315.019C83.2698 309.115 96.8576 306.162 110.449 306.162C124.041 306.162 137.629 309.115 148.641 315.019C153.147 317.433 158.706 318.639 164.265 318.639C169.825 318.639 175.388 317.433 179.894 315.019C188.905 310.189 202.131 310.189 211.142 315.019L211.63 315.282C220.645 320.111 233.871 320.111 242.886 315.282L259.58 306.331C267.455 302.109 277.174 300 286.889 300C296.604 300 306.331 302.109 314.206 306.333C318.594 308.686 325.034 308.686 329.426 306.333L335.126 303.278C339.514 300.926 345.954 300.926 350.342 303.278L355.465 306.023C357.659 307.199 360.368 307.787 363.076 307.787C365.785 307.787 368.49 307.199 370.684 306.023C375.076 303.67 381.516 303.67 385.907 306.023L396 311.435Z" fill="#E2DBFF"/>
</g>
<mask id="mask6_75_548" style="mask-type:alpha" maskUnits="userSpaceOnUse" x="72" y="297" width="24" height="24">
<rect x="72" y="297" width="24" height="24" fill="#D9D9D9"/>
</mask>
<g mask="url(#mask6_75_548)">
<path d="M84 311C83.1667 311 82.4583 310.708 81.875 310.125C81.2917 309.542 81 308.833 81 308V302C81 301.167 81.2917 300.458 81.875 299.875C82.4583 299.292 83.1667 299 84 299C84.8333 299 85.5417 299.292 86.125 299.875C86.7083 300.458 87 301.167 87 302V308C87 308.833 86.7083 309.542 86.125 310.125C85.5417 310.708 84.8333 311 84 311ZM83 318V314.925C81.2667 314.692 79.8333 313.917 78.7 312.6C77.5667 311.283 77 309.75 77 308H79C79 309.383 79.4875 310.562 80.4625 311.538C81.4375 312.513 82.6167 313 84 313C85.3833 313 86.5625 312.513 87.5375 311.538C88.5125 310.562 89 309.383 89 308H91C91 309.75 90.4333 311.283 89.3 312.6C88.1667 313.917 86.7333 314.692 85 314.925V318H83Z" fill="#000050"/>
</g>
<path d="M107.184 315.5V304.3H110.48C112.101 304.3 113.435 304.801 114.48 305.804C115.536 306.796 116.064 308.161 116.064 309.9C116.064 311.639 115.536 313.009 114.48 314.012C113.435 315.004 112.101 315.5 110.48 315.5H107.184ZM108.544 314.268H110.448C111.643 314.268 112.64 313.905 113.44 313.18C114.24 312.444 114.64 311.351 114.64 309.9C114.64 308.449 114.24 307.361 113.44 306.636C112.64 305.9 111.643 305.532 110.448 305.532H108.544V314.268ZM117.37 304.108H118.858V305.996H117.37V304.108ZM117.482 315.5V307.436H118.762V315.5H117.482ZM126.95 307.436H128.23V315.852C128.23 316.705 127.953 317.404 127.398 317.948C126.844 318.492 126.129 318.764 125.254 318.764H121.446V317.66H125.174C125.697 317.66 126.124 317.484 126.454 317.132C126.785 316.78 126.95 316.337 126.95 315.804V314.38C126.758 314.753 126.417 315.057 125.926 315.292C125.436 315.516 124.886 315.628 124.278 315.628C123.062 315.628 122.108 315.239 121.414 314.46C120.732 313.681 120.39 312.684 120.39 311.468C120.39 310.252 120.732 309.255 121.414 308.476C122.108 307.697 123.062 307.308 124.278 307.308C124.822 307.308 125.34 307.431 125.83 307.676C126.332 307.921 126.705 308.236 126.95 308.62V307.436ZM122.438 313.66C122.929 314.204 123.58 314.476 124.39 314.476C125.201 314.476 125.846 314.204 126.326 313.66C126.817 313.105 127.062 312.375 127.062 311.468C127.062 310.561 126.817 309.836 126.326 309.292C125.846 308.737 125.201 308.46 124.39 308.46C123.58 308.46 122.929 308.732 122.438 309.276C121.948 309.82 121.702 310.551 121.702 311.468C121.702 312.385 121.948 313.116 122.438 313.66ZM129.792 304.108H131.28V305.996H129.792V304.108ZM129.904 315.5V307.436H131.184V315.5H129.904ZM134.108 304.86H135.388V307.436H137.868V308.572H135.388V312.908C135.388 313.356 135.5 313.708 135.724 313.964C135.959 314.209 136.279 314.332 136.684 314.332H137.868V315.5H136.636C135.868 315.5 135.255 315.276 134.796 314.828C134.337 314.369 134.108 313.751 134.108 312.972V308.572H132.428V307.436H134.108V304.86ZM142.61 307.308C143.602 307.308 144.423 307.58 145.074 308.124C145.735 308.657 146.066 309.351 146.066 310.204V315.5H144.818V314.108C144.604 314.567 144.247 314.935 143.746 315.212C143.244 315.489 142.679 315.628 142.05 315.628C141.239 315.628 140.572 315.404 140.05 314.956C139.527 314.497 139.266 313.916 139.266 313.212C139.266 312.38 139.532 311.74 140.066 311.292C140.61 310.844 141.415 310.62 142.482 310.62H144.354C144.663 310.62 144.818 310.481 144.818 310.204V310.188C144.818 309.644 144.61 309.212 144.194 308.892C143.778 308.561 143.255 308.396 142.626 308.396C142.039 308.396 141.543 308.556 141.138 308.876C140.732 309.196 140.508 309.58 140.466 310.028H139.266C139.34 309.249 139.692 308.604 140.322 308.092C140.962 307.569 141.724 307.308 142.61 307.308ZM142.242 314.54C143.052 314.54 143.682 314.305 144.13 313.836C144.588 313.356 144.818 312.7 144.818 311.868V311.58H142.562C141.239 311.58 140.578 312.119 140.578 313.196C140.578 313.591 140.732 313.916 141.042 314.172C141.362 314.417 141.762 314.54 142.242 314.54ZM147.729 315.5V304.172H149.009V315.5H147.729ZM158.157 307.308C159.149 307.308 159.97 307.58 160.621 308.124C161.282 308.657 161.613 309.351 161.613 310.204V315.5H160.365V314.108C160.151 314.567 159.794 314.935 159.293 315.212C158.791 315.489 158.226 315.628 157.597 315.628C156.786 315.628 156.119 315.404 155.597 314.956C155.074 314.497 154.813 313.916 154.813 313.212C154.813 312.38 155.079 311.74 155.613 311.292C156.157 310.844 156.962 310.62 158.029 310.62H159.901C160.21 310.62 160.365 310.481 160.365 310.204V310.188C160.365 309.644 160.157 309.212 159.741 308.892C159.325 308.561 158.802 308.396 158.173 308.396C157.586 308.396 157.09 308.556 156.685 308.876C156.279 309.196 156.055 309.58 156.013 310.028H154.813C154.887 309.249 155.239 308.604 155.869 308.092C156.509 307.569 157.271 307.308 158.157 307.308ZM157.789 314.54C158.599 314.54 159.229 314.305 159.677 313.836C160.135 313.356 160.365 312.7 160.365 311.868V311.58H158.109C156.786 311.58 156.125 312.119 156.125 313.196C156.125 313.591 156.279 313.916 156.589 314.172C156.909 314.417 157.309 314.54 157.789 314.54ZM170.375 307.436V315.5H169.095V313.948C168.892 314.492 168.556 314.908 168.087 315.196C167.617 315.484 167.068 315.628 166.439 315.628C165.532 315.628 164.801 315.329 164.247 314.732C163.703 314.135 163.431 313.345 163.431 312.364V307.436H164.711V312.156C164.711 312.849 164.892 313.409 165.255 313.836C165.628 314.252 166.119 314.46 166.727 314.46C167.42 314.46 167.985 314.209 168.423 313.708C168.871 313.207 169.095 312.567 169.095 311.788V307.436H170.375ZM175.919 315.628C174.703 315.628 173.748 315.239 173.055 314.46C172.372 313.681 172.031 312.684 172.031 311.468C172.031 310.252 172.372 309.255 173.055 308.476C173.748 307.697 174.703 307.308 175.919 307.308C176.452 307.308 176.964 307.431 177.455 307.676C177.956 307.921 178.335 308.236 178.591 308.62V304.172H179.871V315.5H178.591V314.3C178.399 314.684 178.052 315.004 177.551 315.26C177.06 315.505 176.516 315.628 175.919 315.628ZM174.079 313.66C174.57 314.204 175.22 314.476 176.031 314.476C176.842 314.476 177.487 314.204 177.967 313.66C178.458 313.105 178.703 312.375 178.703 311.468C178.703 310.561 178.458 309.836 177.967 309.292C177.487 308.737 176.842 308.46 176.031 308.46C175.22 308.46 174.57 308.737 174.079 309.292C173.588 309.836 173.343 310.561 173.343 311.468C173.343 312.375 173.588 313.105 174.079 313.66ZM181.432 304.108H182.92V305.996H181.432V304.108ZM181.544 315.5V307.436H182.824V315.5H181.544ZM191.446 314.46C190.678 315.239 189.697 315.628 188.502 315.628C187.307 315.628 186.326 315.239 185.558 314.46C184.79 313.671 184.406 312.673 184.406 311.468C184.406 310.252 184.79 309.255 185.558 308.476C186.326 307.697 187.307 307.308 188.502 307.308C189.707 307.308 190.694 307.697 191.462 308.476C192.23 309.255 192.614 310.252 192.614 311.468C192.614 312.673 192.225 313.671 191.446 314.46ZM188.502 314.476C189.334 314.476 190.006 314.199 190.518 313.644C191.041 313.079 191.302 312.353 191.302 311.468C191.302 310.583 191.041 309.863 190.518 309.308C190.006 308.743 189.334 308.46 188.502 308.46C187.681 308.46 187.009 308.743 186.486 309.308C185.974 309.863 185.718 310.583 185.718 311.468C185.718 312.353 185.974 313.079 186.486 313.644C187.009 314.199 187.681 314.476 188.502 314.476ZM200.449 317.004C199.681 316.055 199.089 314.983 198.673 313.788C198.257 312.593 198.049 311.377 198.049 310.14C198.049 308.903 198.257 307.687 198.673 306.492C199.089 305.297 199.681 304.225 200.449 303.276L201.313 303.948C199.959 305.911 199.281 307.975 199.281 310.14C199.281 312.305 199.959 314.369 201.313 316.332L200.449 317.004ZM210.152 304.3H211.496V315.5H210.152V310.332H204.216V315.5H202.856V304.3H204.216V309.1H210.152V304.3ZM213.213 304.108H214.701V305.996H213.213V304.108ZM213.325 315.5V307.436H214.605V315.5H213.325ZM222.794 307.436H224.074V315.852C224.074 316.705 223.797 317.404 223.242 317.948C222.687 318.492 221.973 318.764 221.098 318.764H217.29V317.66H221.018C221.541 317.66 221.967 317.484 222.298 317.132C222.629 316.78 222.794 316.337 222.794 315.804V314.38C222.602 314.753 222.261 315.057 221.77 315.292C221.279 315.516 220.73 315.628 220.122 315.628C218.906 315.628 217.951 315.239 217.258 314.46C216.575 313.681 216.234 312.684 216.234 311.468C216.234 310.252 216.575 309.255 217.258 308.476C217.951 307.697 218.906 307.308 220.122 307.308C220.666 307.308 221.183 307.431 221.674 307.676C222.175 307.921 222.549 308.236 222.794 308.62V307.436ZM218.282 313.66C218.773 314.204 219.423 314.476 220.234 314.476C221.045 314.476 221.69 314.204 222.17 313.66C222.661 313.105 222.906 312.375 222.906 311.468C222.906 310.561 222.661 309.836 222.17 309.292C221.69 308.737 221.045 308.46 220.234 308.46C219.423 308.46 218.773 308.732 218.282 309.276C217.791 309.82 217.546 310.551 217.546 311.468C217.546 312.385 217.791 313.116 218.282 313.66ZM226.229 315.5V304.172H227.509V308.988C227.712 308.444 228.048 308.028 228.517 307.74C228.987 307.452 229.536 307.308 230.165 307.308C231.072 307.308 231.797 307.607 232.341 308.204C232.896 308.801 233.173 309.591 233.173 310.572V315.5H231.893V310.78C231.893 310.087 231.707 309.532 231.333 309.116C230.971 308.689 230.485 308.476 229.877 308.476C229.184 308.476 228.613 308.727 228.165 309.228C227.728 309.729 227.509 310.369 227.509 311.148V315.5H226.229ZM242.903 315.628C241.687 315.628 240.733 315.239 240.039 314.46C239.357 313.681 239.015 312.684 239.015 311.468C239.015 310.252 239.357 309.255 240.039 308.476C240.733 307.697 241.687 307.308 242.903 307.308C243.437 307.308 243.949 307.431 244.439 307.676C244.941 307.921 245.319 308.236 245.575 308.62V304.172H246.855V315.5H245.575V314.3C245.383 314.684 245.037 315.004 244.535 315.26C244.045 315.505 243.501 315.628 242.903 315.628ZM241.063 313.66C241.554 314.204 242.205 314.476 243.015 314.476C243.826 314.476 244.471 314.204 244.951 313.66C245.442 313.105 245.687 312.375 245.687 311.468C245.687 310.561 245.442 309.836 244.951 309.292C244.471 308.737 243.826 308.46 243.015 308.46C242.205 308.46 241.554 308.737 241.063 309.292C240.573 309.836 240.327 310.561 240.327 311.468C240.327 312.375 240.573 313.105 241.063 313.66ZM254.634 312.908H255.93C255.791 313.74 255.386 314.401 254.714 314.892C254.052 315.383 253.226 315.628 252.234 315.628C251.06 315.628 250.1 315.223 249.354 314.412C248.618 313.591 248.25 312.593 248.25 311.42C248.25 310.215 248.596 309.228 249.29 308.46C249.994 307.692 250.927 307.308 252.09 307.308C253.242 307.308 254.154 307.665 254.826 308.38C255.508 309.084 255.85 309.985 255.85 311.084C255.85 311.308 255.839 311.495 255.818 311.644H249.514C249.567 312.476 249.844 313.159 250.346 313.692C250.847 314.225 251.476 314.492 252.234 314.492C253.567 314.492 254.367 313.964 254.634 312.908ZM252.09 308.396C251.407 308.396 250.847 308.588 250.41 308.972C249.972 309.356 249.695 309.905 249.578 310.62H254.538C254.484 309.937 254.239 309.399 253.802 309.004C253.375 308.599 252.804 308.396 252.09 308.396ZM258.436 315.5V308.572H256.756V307.436H258.436V306.668C258.436 305.9 258.66 305.292 259.108 304.844C259.567 304.396 260.18 304.172 260.948 304.172H262.228V305.308H260.996C260.612 305.308 260.303 305.436 260.068 305.692C259.833 305.937 259.716 306.273 259.716 306.7V307.436H262.228V308.572H259.716V315.5H258.436ZM263.573 304.108H265.061V305.996H263.573V304.108ZM263.685 315.5V307.436H264.965V315.5H263.685ZM266.761 315.5V307.436H268.041V308.988C268.243 308.444 268.579 308.028 269.049 307.74C269.518 307.452 270.067 307.308 270.697 307.308C271.603 307.308 272.329 307.607 272.873 308.204C273.427 308.801 273.705 309.591 273.705 310.572V315.5H272.425V310.78C272.425 310.087 272.238 309.532 271.865 309.116C271.502 308.689 271.017 308.476 270.409 308.476C269.715 308.476 269.145 308.727 268.697 309.228C268.259 309.729 268.041 310.369 268.041 311.148V315.5H266.761ZM275.198 304.108H276.686V305.996H275.198V304.108ZM275.31 315.5V307.436H276.59V315.5H275.31ZM280.298 315.292C280.117 315.463 279.887 315.548 279.61 315.548C279.333 315.548 279.103 315.463 278.922 315.292C278.741 315.111 278.65 314.887 278.65 314.62C278.65 314.353 278.741 314.135 278.922 313.964C279.103 313.783 279.333 313.692 279.61 313.692C279.887 313.692 280.117 313.783 280.298 313.964C280.479 314.135 280.57 314.353 280.57 314.62C280.57 314.887 280.479 315.111 280.298 315.292ZM284.73 315.292C284.549 315.463 284.319 315.548 284.042 315.548C283.765 315.548 283.535 315.463 283.354 315.292C283.173 315.111 283.082 314.887 283.082 314.62C283.082 314.353 283.173 314.135 283.354 313.964C283.535 313.783 283.765 313.692 284.042 313.692C284.319 313.692 284.549 313.783 284.73 313.964C284.911 314.135 285.002 314.353 285.002 314.62C285.002 314.887 284.911 315.111 284.73 315.292ZM289.146 315.292C288.965 315.463 288.735 315.548 288.458 315.548C288.181 315.548 287.951 315.463 287.77 315.292C287.599 315.111 287.514 314.887 287.514 314.62C287.514 314.353 287.605 314.135 287.786 313.964C287.967 313.783 288.191 313.692 288.458 313.692C288.735 313.692 288.965 313.783 289.146 313.964C289.338 314.135 289.434 314.353 289.434 314.62C289.434 314.887 289.338 315.111 289.146 315.292Z" fill="#000050"/>
<mask id="mask7_75_548" style="mask-type:alpha" maskUnits="userSpaceOnUse" x="304" y="297" width="24" height="24">
<rect x="304" y="297" width="24" height="24" fill="#D9D9D9"/>
</mask>
<g mask="url(#mask7_75_548)">
<path d="M316 312.375L310 306.375L311.4 304.975L316 309.575L320.6 304.975L322 306.375L316 312.375Z" fill="#000050"/>
</g>
</g>
<rect x="56.5" y="287.5" width="287" height="43" rx="7.5" stroke="#6F4AFF"/>
</g>
</g>
<rect x="40" y="363" width="320" height="44" rx="8" fill="#6F4AFF"/>
<path d="M149.65 389.628C147.474 389.628 145.682 388.188 145.362 386.14L147.074 385.612C147.266 387.052 148.37 387.996 149.714 387.996C151.042 387.996 151.906 387.372 151.906 386.412C151.906 383.756 145.778 385.212 145.778 381.18C145.778 379.404 147.426 378.172 149.618 378.172C151.714 378.172 153.362 379.292 153.682 380.972L152.002 381.66C151.778 380.524 150.898 379.804 149.618 379.804C148.402 379.804 147.666 380.316 147.666 381.18C147.666 383.436 153.81 381.868 153.81 386.38C153.81 388.332 152.162 389.628 149.65 389.628ZM159.92 389.436C159.536 389.564 159.088 389.628 158.64 389.628C157.12 389.628 155.984 388.796 155.984 386.956V382.924H154.576V381.436H155.984V379.036H157.728V381.436H159.808V382.924H157.728V386.86C157.728 387.66 158.176 388.076 158.832 388.076C159.136 388.076 159.504 388.028 159.808 387.884L159.92 389.436ZM164.947 389.628C162.515 389.628 160.787 387.884 160.787 385.468C160.787 383.052 162.515 381.308 164.947 381.308C167.363 381.308 169.107 383.052 169.107 385.468C169.107 387.884 167.363 389.628 164.947 389.628ZM164.947 388.108C166.371 388.108 167.347 387.02 167.347 385.468C167.347 383.916 166.371 382.828 164.947 382.828C163.507 382.828 162.547 383.916 162.547 385.468C162.547 387.02 163.507 388.108 164.947 388.108ZM170.719 392.412V381.436H172.463V382.46C172.911 381.804 173.855 381.308 174.975 381.308C177.359 381.308 178.767 383.036 178.767 385.468C178.767 387.9 177.295 389.628 174.879 389.628C173.903 389.628 172.959 389.212 172.463 388.572V392.412H170.719ZM174.687 388.108C176.095 388.108 177.023 387.052 177.023 385.468C177.023 383.868 176.095 382.828 174.687 382.828C173.279 382.828 172.351 383.868 172.351 385.468C172.351 387.052 173.279 388.108 174.687 388.108ZM189.227 383.132C188.939 383.004 188.555 382.94 188.187 382.94C187.003 382.94 185.963 383.996 185.963 386.492V389.5H184.219V381.436H185.963V382.972C186.395 382.012 187.451 381.308 188.427 381.308C188.731 381.308 189.083 381.356 189.323 381.452L189.227 383.132ZM197.723 385.164C197.723 385.404 197.707 385.74 197.691 385.884H191.531C191.691 387.276 192.587 388.14 193.867 388.14C194.923 388.14 195.675 387.644 195.883 386.764L197.531 387.18C197.099 388.732 195.723 389.628 193.835 389.628C191.275 389.628 189.819 387.644 189.819 385.468C189.819 383.292 191.195 381.308 193.755 381.308C196.347 381.308 197.723 383.196 197.723 385.164ZM191.611 384.556H195.867C195.755 383.468 195.035 382.684 193.755 382.684C192.651 382.684 191.867 383.356 191.611 384.556ZM202.96 389.628C200.544 389.628 198.912 387.948 198.912 385.468C198.912 382.988 200.544 381.308 202.96 381.308C204.944 381.308 206.368 382.364 206.64 384.028L204.944 384.364C204.784 383.452 204.032 382.828 203.008 382.828C201.616 382.828 200.72 383.868 200.72 385.468C200.72 387.068 201.632 388.108 203.008 388.108C204.032 388.108 204.752 387.548 204.944 386.604L206.656 386.94C206.32 388.62 204.928 389.628 202.96 389.628ZM211.963 389.628C209.531 389.628 207.803 387.884 207.803 385.468C207.803 383.052 209.531 381.308 211.963 381.308C214.379 381.308 216.123 383.052 216.123 385.468C216.123 387.884 214.379 389.628 211.963 389.628ZM211.963 388.108C213.387 388.108 214.363 387.02 214.363 385.468C214.363 383.916 213.387 382.828 211.963 382.828C210.523 382.828 209.563 383.916 209.563 385.468C209.563 387.02 210.523 388.108 211.963 388.108ZM222.743 383.132C222.455 383.004 222.071 382.94 221.703 382.94C220.519 382.94 219.479 383.996 219.479 386.492V389.5H217.735V381.436H219.479V382.972C219.911 382.012 220.967 381.308 221.943 381.308C222.247 381.308 222.599 381.356 222.839 381.452L222.743 383.132ZM227.19 389.628C224.726 389.628 223.334 387.9 223.334 385.468C223.334 383.036 224.726 381.308 227.158 381.308C228.198 381.308 229.142 381.772 229.622 382.444V378.172H231.366V389.5H229.622V388.476C229.238 389.148 228.262 389.628 227.19 389.628ZM227.414 388.108C228.822 388.108 229.75 387.052 229.75 385.468C229.75 383.868 228.822 382.828 227.414 382.828C226.006 382.828 225.078 383.868 225.078 385.468C225.078 387.052 226.006 388.108 227.414 388.108ZM234.286 380.092C233.646 380.092 233.166 379.596 233.166 378.972C233.166 378.332 233.646 377.836 234.286 377.836C234.942 377.836 235.438 378.332 235.438 378.972C235.438 379.596 234.942 380.092 234.286 380.092ZM233.422 389.5V381.436H235.166V389.5H233.422ZM237.235 389.5V381.436H238.979V382.78C239.523 381.916 240.451 381.308 241.635 381.308C243.347 381.308 244.547 382.444 244.547 384.188V389.5H242.803V384.588C242.803 383.58 242.179 382.876 241.155 382.876C239.795 382.876 238.979 384.028 238.979 385.964V389.5H237.235ZM252.322 381.436H254.05V389.052C254.05 391.132 252.466 392.54 250.146 392.54C248.258 392.54 246.77 391.532 246.514 390.06L248.146 389.788C248.242 390.588 249.09 391.116 250.146 391.116C251.442 391.116 252.338 390.348 252.338 389.228V388.252C251.938 388.86 250.994 389.276 249.938 389.276C247.538 389.276 246.162 387.628 246.162 385.292C246.162 382.956 247.538 381.308 249.906 381.308C250.93 381.308 251.858 381.74 252.322 382.364V381.436ZM250.178 387.756C251.538 387.756 252.434 386.78 252.434 385.292C252.434 383.804 251.538 382.828 250.178 382.828C248.802 382.828 247.906 383.804 247.906 385.292C247.906 386.78 248.802 387.756 250.178 387.756Z" fill="white"/>
<path d="M40.962 436V426.9H44.381C45.2737 426.9 45.98 427.147 46.5 427.641C47.02 428.135 47.28 428.785 47.28 429.591C47.28 430.397 47.02 431.047 46.5 431.541C45.98 432.035 45.2737 432.282 44.381 432.282H42.067V436H40.962ZM42.067 431.294H44.381C44.9877 431.294 45.434 431.134 45.72 430.813C46.006 430.492 46.149 430.085 46.149 429.591C46.149 429.097 46.006 428.69 45.72 428.369C45.434 428.048 44.9877 427.888 44.381 427.888H42.067V431.294ZM52.0405 430.371H51.0265C50.4112 430.371 49.9909 430.596 49.7655 431.047C49.5402 431.489 49.4275 432.143 49.4275 433.01V436H48.3875V429.448H49.4275V430.813C49.5749 430.328 49.7742 429.964 50.0255 429.721C50.2855 429.47 50.6452 429.344 51.1045 429.344H52.0405V430.371ZM58.1739 435.155C57.5499 435.788 56.7526 436.104 55.7819 436.104C54.8112 436.104 54.0139 435.788 53.3899 435.155C52.7659 434.514 52.4539 433.703 52.4539 432.724C52.4539 431.736 52.7659 430.926 53.3899 430.293C54.0139 429.66 54.8112 429.344 55.7819 429.344C56.7612 429.344 57.5629 429.66 58.1869 430.293C58.8109 430.926 59.1229 431.736 59.1229 432.724C59.1229 433.703 58.8066 434.514 58.1739 435.155ZM55.7819 435.168C56.4579 435.168 57.0039 434.943 57.4199 434.492C57.8446 434.033 58.0569 433.443 58.0569 432.724C58.0569 432.005 57.8446 431.42 57.4199 430.969C57.0039 430.51 56.4579 430.28 55.7819 430.28C55.1146 430.28 54.5686 430.51 54.1439 430.969C53.7279 431.42 53.5199 432.005 53.5199 432.724C53.5199 433.443 53.7279 434.033 54.1439 434.492C54.5686 434.943 55.1146 435.168 55.7819 435.168ZM62.074 436L59.669 429.448H60.748L62.607 434.648L64.466 429.448H65.558L63.153 436H62.074ZM66.4146 426.744H67.6236V428.278H66.4146V426.744ZM66.5056 436V429.448H67.5456V436H66.5056ZM72.0152 436.104C71.0272 436.104 70.2516 435.788 69.6882 435.155C69.1336 434.522 68.8562 433.712 68.8562 432.724C68.8562 431.736 69.1336 430.926 69.6882 430.293C70.2516 429.66 71.0272 429.344 72.0152 429.344C72.4486 429.344 72.8646 429.444 73.2632 429.643C73.6706 429.842 73.9782 430.098 74.1862 430.41V426.796H75.2262V436H74.1862V435.025C74.0302 435.337 73.7486 435.597 73.3412 435.805C72.9426 436.004 72.5006 436.104 72.0152 436.104ZM70.5202 434.505C70.9189 434.947 71.4476 435.168 72.1062 435.168C72.7649 435.168 73.2892 434.947 73.6792 434.505C74.0779 434.054 74.2772 433.461 74.2772 432.724C74.2772 431.987 74.0779 431.398 73.6792 430.956C73.2892 430.505 72.7649 430.28 72.1062 430.28C71.4476 430.28 70.9189 430.505 70.5202 430.956C70.1216 431.398 69.9222 431.987 69.9222 432.724C69.9222 433.461 70.1216 434.054 70.5202 434.505ZM81.5462 433.894H82.5992C82.4865 434.57 82.1572 435.107 81.6112 435.506C81.0738 435.905 80.4022 436.104 79.5962 436.104C78.6428 436.104 77.8628 435.775 77.2562 435.116C76.6582 434.449 76.3592 433.638 76.3592 432.685C76.3592 431.706 76.6408 430.904 77.2042 430.28C77.7762 429.656 78.5345 429.344 79.4792 429.344C80.4152 429.344 81.1562 429.634 81.7022 430.215C82.2568 430.787 82.5342 431.519 82.5342 432.412C82.5342 432.594 82.5255 432.746 82.5082 432.867H77.3862C77.4295 433.543 77.6548 434.098 78.0622 434.531C78.4695 434.964 78.9808 435.181 79.5962 435.181C80.6795 435.181 81.3295 434.752 81.5462 433.894ZM79.4792 430.228C78.9245 430.228 78.4695 430.384 78.1142 430.696C77.7588 431.008 77.5335 431.454 77.4382 432.035H81.4682C81.4248 431.48 81.2255 431.043 80.8702 430.722C80.5235 430.393 80.0598 430.228 79.4792 430.228ZM87.9363 436V430.371H86.5713V429.448H87.9363V428.824C87.9363 428.2 88.1183 427.706 88.4823 427.342C88.8549 426.978 89.3533 426.796 89.9773 426.796H91.0173V427.719H90.0163C89.7043 427.719 89.4529 427.823 89.2623 428.031C89.0716 428.23 88.9763 428.503 88.9763 428.85V429.448H91.0173V430.371H88.9763V436H87.9363ZM96.7425 433.894H97.7955C97.6828 434.57 97.3535 435.107 96.8075 435.506C96.2701 435.905 95.5985 436.104 94.7925 436.104C93.8391 436.104 93.0591 435.775 92.4525 435.116C91.8545 434.449 91.5555 433.638 91.5555 432.685C91.5555 431.706 91.8371 430.904 92.4005 430.28C92.9725 429.656 93.7308 429.344 94.6755 429.344C95.6115 429.344 96.3525 429.634 96.8985 430.215C97.4531 430.787 97.7305 431.519 97.7305 432.412C97.7305 432.594 97.7218 432.746 97.7045 432.867H92.5825C92.6258 433.543 92.8511 434.098 93.2585 434.531C93.6658 434.964 94.1771 435.181 94.7925 435.181C95.8758 435.181 96.5258 434.752 96.7425 433.894ZM94.6755 430.228C94.1208 430.228 93.6658 430.384 93.3105 430.696C92.9551 431.008 92.7298 431.454 92.6345 432.035H96.6645C96.6211 431.48 96.4218 431.043 96.0665 430.722C95.7198 430.393 95.2561 430.228 94.6755 430.228ZM104.08 433.894H105.133C105.021 434.57 104.691 435.107 104.145 435.506C103.608 435.905 102.936 436.104 102.13 436.104C101.177 436.104 100.397 435.775 99.7904 435.116C99.1924 434.449 98.8934 433.638 98.8934 432.685C98.8934 431.706 99.175 430.904 99.7384 430.28C100.31 429.656 101.069 429.344 102.013 429.344C102.949 429.344 103.69 429.634 104.236 430.215C104.791 430.787 105.068 431.519 105.068 432.412C105.068 432.594 105.06 432.746 105.042 432.867H99.9204C99.9637 433.543 100.189 434.098 100.596 434.531C101.004 434.964 101.515 435.181 102.13 435.181C103.214 435.181 103.864 434.752 104.08 433.894ZM102.013 430.228C101.459 430.228 101.004 430.384 100.648 430.696C100.293 431.008 100.068 431.454 99.9724 432.035H104.002C103.959 431.48 103.76 431.043 103.404 430.722C103.058 430.393 102.594 430.228 102.013 430.228ZM109.39 436.104C108.402 436.104 107.627 435.788 107.063 435.155C106.509 434.522 106.231 433.712 106.231 432.724C106.231 431.736 106.509 430.926 107.063 430.293C107.627 429.66 108.402 429.344 109.39 429.344C109.824 429.344 110.24 429.444 110.638 429.643C111.046 429.842 111.353 430.098 111.561 430.41V426.796H112.601V436H111.561V435.025C111.405 435.337 111.124 435.597 110.716 435.805C110.318 436.004 109.876 436.104 109.39 436.104ZM107.895 434.505C108.294 434.947 108.823 435.168 109.481 435.168C110.14 435.168 110.664 434.947 111.054 434.505C111.453 434.054 111.652 433.461 111.652 432.724C111.652 431.987 111.453 431.398 111.054 430.956C110.664 430.505 110.14 430.28 109.481 430.28C108.823 430.28 108.294 430.505 107.895 430.956C107.497 431.398 107.297 431.987 107.297 432.724C107.297 433.461 107.497 434.054 107.895 434.505ZM117.398 436.104C116.913 436.104 116.467 436.004 116.059 435.805C115.661 435.597 115.383 435.337 115.227 435.025V436H114.187V426.796H115.227V430.41C115.435 430.098 115.739 429.842 116.137 429.643C116.545 429.444 116.965 429.344 117.398 429.344C118.386 429.344 119.158 429.66 119.712 430.293C120.276 430.926 120.557 431.736 120.557 432.724C120.557 433.712 120.276 434.522 119.712 435.155C119.158 435.788 118.386 436.104 117.398 436.104ZM115.721 434.505C116.12 434.947 116.649 435.168 117.307 435.168C117.966 435.168 118.495 434.947 118.893 434.505C119.292 434.054 119.491 433.461 119.491 432.724C119.491 431.987 119.292 431.398 118.893 430.956C118.495 430.505 117.966 430.28 117.307 430.28C116.649 430.28 116.12 430.505 115.721 430.956C115.331 431.398 115.136 431.987 115.136 432.724C115.136 433.461 115.331 434.054 115.721 434.505ZM124.17 429.344C124.976 429.344 125.644 429.565 126.172 430.007C126.71 430.44 126.978 431.004 126.978 431.697V436H125.964V434.869C125.791 435.242 125.501 435.541 125.093 435.766C124.686 435.991 124.227 436.104 123.715 436.104C123.057 436.104 122.515 435.922 122.09 435.558C121.666 435.185 121.453 434.713 121.453 434.141C121.453 433.465 121.67 432.945 122.103 432.581C122.545 432.217 123.2 432.035 124.066 432.035H125.587C125.839 432.035 125.964 431.922 125.964 431.697V431.684C125.964 431.242 125.795 430.891 125.457 430.631C125.119 430.362 124.695 430.228 124.183 430.228C123.707 430.228 123.304 430.358 122.974 430.618C122.645 430.878 122.463 431.19 122.428 431.554H121.453C121.514 430.921 121.8 430.397 122.311 429.981C122.831 429.556 123.451 429.344 124.17 429.344ZM123.871 435.22C124.53 435.22 125.041 435.029 125.405 434.648C125.778 434.258 125.964 433.725 125.964 433.049V432.815H124.131C123.057 432.815 122.519 433.253 122.519 434.128C122.519 434.449 122.645 434.713 122.896 434.921C123.156 435.12 123.481 435.22 123.871 435.22ZM131.366 436.104C130.378 436.104 129.598 435.775 129.026 435.116C128.463 434.449 128.181 433.651 128.181 432.724C128.181 431.797 128.463 431.004 129.026 430.345C129.598 429.678 130.378 429.344 131.366 429.344C132.129 429.344 132.792 429.552 133.355 429.968C133.919 430.384 134.248 430.947 134.343 431.658H133.316C133.247 431.259 133.03 430.93 132.666 430.67C132.302 430.41 131.873 430.28 131.379 430.28C130.695 430.28 130.17 430.51 129.806 430.969C129.442 431.428 129.26 432.013 129.26 432.724C129.26 433.435 129.442 434.02 129.806 434.479C130.179 434.938 130.703 435.168 131.379 435.168C131.873 435.168 132.289 435.055 132.627 434.83C132.965 434.596 133.195 434.28 133.316 433.881H134.33C134.218 434.557 133.901 435.099 133.381 435.506C132.861 435.905 132.19 436.104 131.366 436.104ZM139.974 436L137.426 432.724L136.568 433.504V436H135.515V426.796H136.568V432.191L139.701 429.448H141.027L138.219 432.009L141.287 436H139.974Z" fill="#787878"/>
<path d="M40 437.95H141.43V438.6H40V437.95Z" fill="#787878"/>
<path d="M309.068 436V427.901H306.156V426.9H313.085V427.901H310.186V436H309.068ZM314.747 429.344C315.553 429.344 316.221 429.565 316.749 430.007C317.287 430.44 317.555 431.004 317.555 431.697V436H316.541V434.869C316.368 435.242 316.078 435.541 315.67 435.766C315.263 435.991 314.804 436.104 314.292 436.104C313.634 436.104 313.092 435.922 312.667 435.558C312.243 435.185 312.03 434.713 312.03 434.141C312.03 433.465 312.247 432.945 312.68 432.581C313.122 432.217 313.777 432.035 314.643 432.035H316.164C316.416 432.035 316.541 431.922 316.541 431.697V431.684C316.541 431.242 316.372 430.891 316.034 430.631C315.696 430.362 315.272 430.228 314.76 430.228C314.284 430.228 313.881 430.358 313.551 430.618C313.222 430.878 313.04 431.19 313.005 431.554H312.03C312.091 430.921 312.377 430.397 312.888 429.981C313.408 429.556 314.028 429.344 314.747 429.344ZM314.448 435.22C315.107 435.22 315.618 435.029 315.982 434.648C316.355 434.258 316.541 433.725 316.541 433.049V432.815H314.708C313.634 432.815 313.096 433.253 313.096 434.128C313.096 434.449 313.222 434.713 313.473 434.921C313.733 435.12 314.058 435.22 314.448 435.22ZM318.907 436V426.796H319.947V436H318.907ZM325.918 436L323.37 432.724L322.512 433.504V436H321.459V426.796H322.512V432.191L325.645 429.448H326.971L324.163 432.009L327.231 436H325.918ZM332.215 427.355H333.255V429.448H335.27V430.371H333.255V433.894C333.255 434.258 333.346 434.544 333.528 434.752C333.718 434.951 333.978 435.051 334.308 435.051H335.27V436H334.269C333.645 436 333.146 435.818 332.774 435.454C332.401 435.081 332.215 434.579 332.215 433.946V430.371H330.85V429.448H332.215V427.355ZM341.96 435.155C341.336 435.788 340.539 436.104 339.568 436.104C338.597 436.104 337.8 435.788 337.176 435.155C336.552 434.514 336.24 433.703 336.24 432.724C336.24 431.736 336.552 430.926 337.176 430.293C337.8 429.66 338.597 429.344 339.568 429.344C340.547 429.344 341.349 429.66 341.973 430.293C342.597 430.926 342.909 431.736 342.909 432.724C342.909 433.703 342.593 434.514 341.96 435.155ZM339.568 435.168C340.244 435.168 340.79 434.943 341.206 434.492C341.631 434.033 341.843 433.443 341.843 432.724C341.843 432.005 341.631 431.42 341.206 430.969C340.79 430.51 340.244 430.28 339.568 430.28C338.901 430.28 338.355 430.51 337.93 430.969C337.514 431.42 337.306 432.005 337.306 432.724C337.306 433.443 337.514 434.033 337.93 434.492C338.355 434.943 338.901 435.168 339.568 435.168ZM353.188 429.448V436H352.148V434.739C351.984 435.181 351.711 435.519 351.329 435.753C350.948 435.987 350.502 436.104 349.99 436.104C349.254 436.104 348.66 435.861 348.209 435.376C347.767 434.891 347.546 434.249 347.546 433.452V429.448H348.586V433.283C348.586 433.846 348.734 434.301 349.028 434.648C349.332 434.986 349.73 435.155 350.224 435.155C350.788 435.155 351.247 434.951 351.602 434.544C351.966 434.137 352.148 433.617 352.148 432.984V429.448H353.188ZM356.893 436.104C356.139 436.104 355.528 435.909 355.06 435.519C354.601 435.129 354.345 434.592 354.293 433.907H355.281C355.377 434.774 355.914 435.207 356.893 435.207C357.309 435.207 357.643 435.112 357.894 434.921C358.154 434.722 358.284 434.483 358.284 434.206C358.284 433.903 358.189 433.669 357.998 433.504C357.808 433.331 357.569 433.227 357.283 433.192C357.006 433.149 356.703 433.092 356.373 433.023C356.044 432.954 355.736 432.876 355.45 432.789C355.173 432.702 354.939 432.52 354.748 432.243C354.558 431.966 354.462 431.602 354.462 431.151C354.462 430.614 354.675 430.18 355.099 429.851C355.524 429.513 356.083 429.344 356.776 429.344C357.487 429.344 358.068 429.526 358.518 429.89C358.969 430.254 359.216 430.739 359.259 431.346H358.271C358.228 430.965 358.05 430.683 357.738 430.501C357.435 430.31 357.106 430.215 356.75 430.215C356.369 430.215 356.057 430.302 355.814 430.475C355.58 430.648 355.463 430.874 355.463 431.151C355.463 431.428 355.559 431.645 355.749 431.801C355.94 431.948 356.178 432.039 356.464 432.074C356.75 432.1 357.058 432.148 357.387 432.217C357.717 432.286 358.024 432.369 358.31 432.464C358.596 432.559 358.835 432.754 359.025 433.049C359.216 433.335 359.311 433.712 359.311 434.18C359.311 434.761 359.09 435.229 358.648 435.584C358.206 435.931 357.621 436.104 356.893 436.104Z" fill="#787878"/>
<path d="M306 437.95H359.896V438.6H306V437.95Z" fill="#787878"/>
</g>
<rect x="0.5" y="16.5" width="399" height="454" rx="7.5" stroke="#D7D7D7"/>
</g>
<defs>
<filter id="filter0_d_75_548" x="-32" y="0" width="464" height="519" filterUnits="userSpaceOnUse" color-interpolation-filters="sRGB">
<feFlood flood-opacity="0" result="BackgroundImageFix"/>
<feColorMatrix in="SourceAlpha" type="matrix" values="0 0 0 0 0 0 0 0 0 0 0 0 0 0 0 0 0 0 127 0" result="hardAlpha"/>
<feOffset dy="16"/>
<feGaussianBlur stdDeviation="16"/>
<feComposite in2="hardAlpha" operator="out"/>
<feColorMatrix type="matrix" values="0 0 0 0 0 0 0 0 0 0 0 0 0 0 0 0 0 0 0.08 0"/>
<feBlend mode="normal" in2="BackgroundImageFix" result="effect1_dropShadow_75_548"/>
<feBlend mode="normal" in="SourceGraphic" in2="effect1_dropShadow_75_548" result="shape"/>
</filter>
<filter id="filter1_dddd_75_548" x="13" y="183" width="374" height="259" filterUnits="userSpaceOnUse" color-interpolation-filters="sRGB">
<feFlood flood-opacity="0" result="BackgroundImageFix"/>
<feColorMatrix in="SourceAlpha" type="matrix" values="0 0 0 0 0 0 0 0 0 0 0 0 0 0 0 0 0 0 127 0" result="hardAlpha"/>
<feOffset dy="4"/>
<feGaussianBlur stdDeviation="4.5"/>
<feColorMatrix type="matrix" values="0 0 0 0 0.6 0 0 0 0 0.6 0 0 0 0 0.6 0 0 0 0.08 0"/>
<feBlend mode="normal" in2="BackgroundImageFix" result="effect1_dropShadow_75_548"/>
<feColorMatrix in="SourceAlpha" type="matrix" values="0 0 0 0 0 0 0 0 0 0 0 0 0 0 0 0 0 0 127 0" result="hardAlpha"/>
<feOffset dy="17"/>
<feGaussianBlur stdDeviation="8.5"/>
<feColorMatrix type="matrix" values="0 0 0 0 0.6 0 0 0 0 0.6 0 0 0 0 0.6 0 0 0 0.07 0"/>
<feBlend mode="normal" in2="effect1_dropShadow_75_548" result="effect2_dropShadow_75_548"/>
<feColorMatrix in="SourceAlpha" type="matrix" values="0 0 0 0 0 0 0 0 0 0 0 0 0 0 0 0 0 0 127 0" result="hardAlpha"/>
<feOffset dy="38"/>
<feGaussianBlur stdDeviation="11.5"/>
<feColorMatrix type="matrix" values="0 0 0 0 0.6 0 0 0 0 0.6 0 0 0 0 0.6 0 0 0 0.04 0"/>
<feBlend mode="normal" in2="effect2_dropShadow_75_548" result="effect3_dropShadow_75_548"/>
<feColorMatrix in="SourceAlpha" type="matrix" values="0 0 0 0 0 0 0 0 0 0 0 0 0 0 0 0 0 0 127 0" result="hardAlpha"/>
<feOffset dy="68"/>
<feGaussianBlur stdDeviation="13.5"/>
<feColorMatrix type="matrix" values="0 0 0 0 0.6 0 0 0 0 0.6 0 0 0 0 0.6 0 0 0 0.01 0"/>
<feBlend mode="normal" in2="effect3_dropShadow_75_548" result="effect4_dropShadow_75_548"/>
<feBlend mode="normal" in="SourceGraphic" in2="effect4_dropShadow_75_548" result="shape"/>
</filter>
<filter id="filter2_d_75_548" x="53" y="285" width="294" height="50" filterUnits="userSpaceOnUse" color-interpolation-filters="sRGB">
<feFlood flood-opacity="0" result="BackgroundImageFix"/>
<feColorMatrix in="SourceAlpha" type="matrix" values="0 0 0 0 0 0 0 0 0 0 0 0 0 0 0 0 0 0 127 0" result="hardAlpha"/>
<feOffset dy="1"/>
<feGaussianBlur stdDeviation="1.5"/>
<feComposite in2="hardAlpha" operator="out"/>
<feColorMatrix type="matrix" values="0 0 0 0 0 0 0 0 0 0 0 0 0 0 0 0 0 0 0.1 0"/>
<feBlend mode="normal" in2="BackgroundImageFix" result="effect1_dropShadow_75_548"/>
<feBlend mode="normal" in="SourceGraphic" in2="effect1_dropShadow_75_548" result="shape"/>
</filter>
<clipPath id="clip0_75_548">
<rect y="16" width="400" height="455" rx="8" fill="white"/>
</clipPath>
<clipPath id="clip1_75_548">
<rect width="103.81" height="20" fill="white" transform="translate(16 28)"/>
</clipPath>
<clipPath id="clip2_75_548">
<rect x="56" y="287" width="288" height="44" rx="8" fill="white"/>
</clipPath>
<clipPath id="clip3_75_548">
<rect width="340" height="31" fill="white" transform="translate(56 300)"/>
</clipPath>
</defs>
</svg>
