<svg width="1367" height="783" viewBox="0 0 1367 783" fill="none" xmlns="http://www.w3.org/2000/svg">
<g clip-path="url(#clip0_75_615)">
<path d="M1304.9 0H0V783H1367V0H1304.9ZM1242.79 0.689868H1304.2V86.9233H1242.79V0.689868ZM1304.2 173.847H1242.79V87.6132H1304.2V173.847ZM1304.2 260.77H1242.79V174.537H1304.2V260.77ZM1304.2 347.693H1242.79V261.46H1304.2V347.693ZM1304.2 434.617H1242.79V348.383H1304.2V434.617ZM1304.2 521.54H1242.79V435.307H1304.2V521.54ZM1304.2 608.463H1242.79V522.23H1304.2V608.463ZM1304.2 695.387H1242.79V609.153H1304.2V695.387ZM62.7951 609.153H124.21V695.387H62.7951V609.153ZM62.7951 522.23H124.21V608.463H62.7951V522.23ZM62.7951 435.307H124.21V521.54H62.7951V435.307ZM62.7951 348.383H124.21V434.617H62.7951V348.383ZM62.7951 261.46H124.21V347.693H62.7951V261.46ZM62.7951 174.537H124.21V260.77H62.7951V174.537ZM62.7951 87.6132H124.21V173.847H62.7951V87.6132ZM1242.1 173.847H1180.69V87.6132H1242.1V173.847ZM1242.1 260.77H1180.69V174.537H1242.1V260.77ZM1242.1 347.693H1180.69V261.46H1242.1V347.693ZM1242.1 434.617H1180.69V348.383H1242.1V434.617ZM1242.1 521.54H1180.69V435.307H1242.1V521.54ZM1242.1 608.463H1180.69V522.23H1242.1V608.463ZM124.9 522.23H186.315V608.463H124.9V522.23ZM124.9 435.307H186.315V521.54H124.9V435.307ZM124.9 348.383H186.315V434.617H124.9V348.383ZM124.9 261.46H186.315V347.693H124.9V261.46ZM124.9 174.537H186.315V260.77H124.9V174.537ZM1179.99 260.77H1118.58V174.537H1179.99V260.77ZM1179.99 347.693H1118.58V261.46H1179.99V347.693ZM1179.99 434.617H1118.58V348.383H1179.99V434.617ZM1179.99 521.54H1118.58V435.307H1179.99V521.54ZM187.005 435.307H248.42V521.54H187.005V435.307ZM187.005 348.383H248.42V434.617H187.005V348.383ZM187.005 261.46H248.42V347.693H187.005V261.46ZM1117.89 347.693H1056.48V261.46H1117.89V347.693ZM1117.89 434.617H1056.48V348.383H1117.89V434.617ZM249.11 348.383H310.525V434.617H249.11V348.383ZM311.215 348.383H372.63V434.617H311.215V348.383ZM373.32 348.383H434.735V434.617H373.32V348.383ZM435.425 348.383H496.84V434.617H435.425V348.383ZM497.53 348.383H558.945V434.617H497.53V348.383ZM559.635 348.383H621.05V434.617H559.635V348.383ZM621.74 348.383H683.155V434.617H621.74V348.383ZM683.845 348.383H745.26V434.617H683.845V348.383ZM745.95 348.383H807.365V434.617H745.95V348.383ZM808.055 348.383H869.47V434.617H808.055V348.383ZM870.16 348.383H931.575V434.617H870.16V348.383ZM932.265 348.383H993.68V434.617H932.265V348.383ZM994.37 348.383H1055.79V434.617H994.37V348.383ZM1055.79 347.693H994.37V261.46H1055.79V347.693ZM993.68 347.693H932.265V261.46H993.68V347.693ZM931.575 347.693H870.16V261.46H931.575V347.693ZM869.47 347.693H808.055V261.46H869.47V347.693ZM807.365 347.693H745.95V261.46H807.365V347.693ZM745.26 347.693H683.845V261.46H745.26V347.693ZM683.155 347.693H621.74V261.46H683.155V347.693ZM621.05 347.693H559.635V261.46H621.05V347.693ZM558.945 347.693H497.53V261.46H558.945V347.693ZM496.84 347.693H435.425V261.46H496.84V347.693ZM434.735 347.693H373.32V261.46H434.735V347.693ZM372.63 347.693H311.215V261.46H372.63V347.693ZM310.525 347.693H249.11V261.46H310.525V347.693ZM249.11 435.307H310.525V521.54H249.11V435.307ZM311.215 435.307H372.63V521.54H311.215V435.307ZM373.32 435.307H434.735V521.54H373.32V435.307ZM435.425 435.307H496.84V521.54H435.425V435.307ZM497.53 435.307H558.945V521.54H497.53V435.307ZM559.635 435.307H621.05V521.54H559.635V435.307ZM621.74 435.307H683.155V521.54H621.74V435.307ZM683.845 435.307H745.26V521.54H683.845V435.307ZM745.95 435.307H807.365V521.54H745.95V435.307ZM808.055 435.307H869.47V521.54H808.055V435.307ZM870.16 435.307H931.575V521.54H870.16V435.307ZM932.265 435.307H993.68V521.54H932.265V435.307ZM994.37 435.307H1055.79V521.54H994.37V435.307ZM1056.48 435.307H1117.89V521.54H1056.48V435.307ZM1117.89 260.77H1056.48V174.537H1117.89V260.77ZM1055.79 260.77H994.37V174.537H1055.79V260.77ZM993.68 260.77H932.265V174.537H993.68V260.77ZM931.575 260.77H870.16V174.537H931.575V260.77ZM869.47 260.77H808.055V174.537H869.47V260.77ZM807.365 260.77H745.95V174.537H807.365V260.77ZM745.26 260.77H683.845V174.537H745.26V260.77ZM683.155 260.77H621.74V174.537H683.155V260.77ZM621.05 260.77H559.635V174.537H621.05V260.77ZM558.945 260.77H497.53V174.537H558.945V260.77ZM496.84 260.77H435.425V174.537H496.84V260.77ZM434.735 260.77H373.32V174.537H434.735V260.77ZM372.63 260.77H311.215V174.537H372.63V260.77ZM310.525 260.77H249.11V174.537H310.525V260.77ZM248.42 260.77H187.005V174.537H248.42V260.77ZM187.005 522.23H248.42V608.463H187.005V522.23ZM249.11 522.23H310.525V608.463H249.11V522.23ZM311.215 522.23H372.63V608.463H311.215V522.23ZM373.32 522.23H434.735V608.463H373.32V522.23ZM435.425 522.23H496.84V608.463H435.425V522.23ZM497.53 522.23H558.945V608.463H497.53V522.23ZM559.635 522.23H621.05V608.463H559.635V522.23ZM621.74 522.23H683.155V608.463H621.74V522.23ZM683.845 522.23H745.26V608.463H683.845V522.23ZM745.95 522.23H807.365V608.463H745.95V522.23ZM808.055 522.23H869.47V608.463H808.055V522.23ZM870.16 522.23H931.575V608.463H870.16V522.23ZM932.265 522.23H993.68V608.463H932.265V522.23ZM994.37 522.23H1055.79V608.463H994.37V522.23ZM1056.48 522.23H1117.89V608.463H1056.48V522.23ZM1118.58 522.23H1179.99V608.463H1118.58V522.23ZM1179.99 173.847H1118.58V87.6132H1179.99V173.847ZM1117.89 173.847H1056.48V87.6132H1117.89V173.847ZM1055.79 173.847H994.37V87.6132H1055.79V173.847ZM993.68 173.847H932.265V87.6132H993.68V173.847ZM931.575 173.847H870.16V87.6132H931.575V173.847ZM869.47 173.847H808.055V87.6132H869.47V173.847ZM807.365 173.847H745.95V87.6132H807.365V173.847ZM745.26 173.847H683.845V87.6132H745.26V173.847ZM683.155 173.847H621.74V87.6132H683.155V173.847ZM621.05 173.847H559.635V87.6132H621.05V173.847ZM558.945 173.847H497.53V87.6132H558.945V173.847ZM496.84 173.847H435.425V87.6132H496.84V173.847ZM434.735 173.847H373.32V87.6132H434.735V173.847ZM372.63 173.847H311.215V87.6132H372.63V173.847ZM310.525 173.847H249.11V87.6132H310.525V173.847ZM248.42 173.847H187.005V87.6132H248.42V173.847ZM186.315 173.847H124.9V87.6132H186.315V173.847ZM124.9 609.153H186.315V695.387H124.9V609.153ZM187.005 609.153H248.42V695.387H187.005V609.153ZM249.11 609.153H310.525V695.387H249.11V609.153ZM311.215 609.153H372.63V695.387H311.215V609.153ZM373.32 609.153H434.735V695.387H373.32V609.153ZM435.425 609.153H496.84V695.387H435.425V609.153ZM497.53 609.153H558.945V695.387H497.53V609.153ZM559.635 609.153H621.05V695.387H559.635V609.153ZM621.74 609.153H683.155V695.387H621.74V609.153ZM683.845 609.153H745.26V695.387H683.845V609.153ZM745.95 609.153H807.365V695.387H745.95V609.153ZM808.055 609.153H869.47V695.387H808.055V609.153ZM870.16 609.153H931.575V695.387H870.16V609.153ZM932.265 609.153H993.68V695.387H932.265V609.153ZM994.37 609.153H1055.79V695.387H994.37V609.153ZM1056.48 609.153H1117.89V695.387H1056.48V609.153ZM1118.58 609.153H1179.99V695.387H1118.58V609.153ZM1180.69 609.153H1242.1V695.387H1180.69V609.153ZM1180.69 0.689868H1242.1V86.9233H1180.69V0.689868ZM1118.58 0.689868H1179.99V86.9233H1118.58V0.689868ZM1056.48 0.689868H1117.89V86.9233H1056.48V0.689868ZM994.37 0.689868H1055.79V86.9233H994.37V0.689868ZM932.265 0.689868H993.68V86.9233H932.265V0.689868ZM870.16 0.689868H931.575V86.9233H870.16V0.689868ZM808.055 0.689868H869.47V86.9233H808.055V0.689868ZM745.95 0.689868H807.365V86.9233H745.95V0.689868ZM683.845 0.689868H745.26V86.9233H683.845V0.689868ZM621.74 0.689868H683.155V86.9233H621.74V0.689868ZM559.635 0.689868H621.05V86.9233H559.635V0.689868ZM497.53 0.689868H558.945V86.9233H497.53V0.689868ZM435.425 0.689868H496.84V86.9233H435.425V0.689868ZM373.32 0.689868H434.735V86.9233H373.32V0.689868ZM311.215 0.689868H372.63V86.9233H311.215V0.689868ZM249.11 0.689868H310.525V86.9233H249.11V0.689868ZM187.005 0.689868H248.42V86.9233H187.005V0.689868ZM124.9 0.689868H186.315V86.9233H124.9V0.689868ZM62.7951 0.689868H124.21V86.9233H62.7951V0.689868ZM0.690056 0.689868H62.105V86.9233H0.690056V0.689868ZM0.690056 87.6132H62.105V173.847H0.690056V87.6132ZM0.690056 174.537H62.105V260.77H0.690056V174.537ZM0.690056 261.46H62.105V347.693H0.690056V261.46ZM0.690056 348.383H62.105V434.617H0.690056V348.383ZM0.690056 435.307H62.105V521.54H0.690056V435.307ZM0.690056 522.23H62.105V608.463H0.690056V522.23ZM0.690056 609.153H62.105V695.387H0.690056V609.153ZM62.105 782.31H0.690056V696.077H62.105V782.31ZM124.21 782.31H62.7951V696.077H124.21V782.31ZM186.315 782.31H124.9V696.077H186.315V782.31ZM248.42 782.31H187.005V696.077H248.42V782.31ZM310.525 782.31H249.11V696.077H310.525V782.31ZM372.63 782.31H311.215V696.077H372.63V782.31ZM434.735 782.31H373.32V696.077H434.735V782.31ZM496.84 782.31H435.425V696.077H496.84V782.31ZM558.945 782.31H497.53V696.077H558.945V782.31ZM621.05 782.31H559.635V696.077H621.05V782.31ZM683.155 782.31H621.74V696.077H683.155V782.31ZM745.26 782.31H683.845V696.077H745.26V782.31ZM807.365 782.31H745.95V696.077H807.365V782.31ZM869.47 782.31H808.055V696.077H869.47V782.31ZM931.575 782.31H870.16V696.077H931.575V782.31ZM993.68 782.31H932.265V696.077H993.68V782.31ZM1055.79 782.31H994.37V696.077H1055.79V782.31ZM1117.89 782.31H1056.48V696.077H1117.89V782.31ZM1179.99 782.31H1118.58V696.077H1179.99V782.31ZM1242.1 782.31H1180.69V696.077H1242.1V782.31ZM1304.2 782.31H1242.79V696.077H1304.2V782.31ZM1366.31 782.31H1304.9V696.077H1366.31V782.31ZM1366.31 695.387H1304.9V609.153H1366.31V695.387ZM1366.31 608.463H1304.9V522.23H1366.31V608.463ZM1366.31 521.54H1304.9V435.307H1366.31V521.54ZM1366.31 434.617H1304.9V348.383H1366.31V434.617ZM1366.31 347.693H1304.9V261.46H1366.31V347.693ZM1366.31 260.77H1304.9V174.537H1366.31V260.77ZM1366.31 173.847H1304.9V87.6132H1366.31V173.847ZM1304.9 86.9233V0.689868H1366.31V86.9233H1304.9Z" fill="url(#paint0_radial_75_615)" fill-opacity="0.32"/>
</g>
<defs>
<radialGradient id="paint0_radial_75_615" cx="0" cy="0" r="1" gradientUnits="userSpaceOnUse" gradientTransform="translate(683.5 391.5) scale(557.013 556.861)">
<stop stop-color="#133949"/>
<stop offset="0.08" stop-color="#133949" stop-opacity="0.89"/>
<stop offset="0.47" stop-color="#133949" stop-opacity="0.41"/>
<stop offset="0.79" stop-color="#133949" stop-opacity="0.11"/>
<stop offset="1" stop-color="#133949" stop-opacity="0"/>
</radialGradient>
<clipPath id="clip0_75_615">
<rect width="1367" height="783" fill="white"/>
</clipPath>
</defs>
</svg>
