<svg width="69" height="21" viewBox="0 0 69 21" fill="none" xmlns="http://www.w3.org/2000/svg">
<g id="Amazon_logo 1" clip-path="url(#clip0_75_2984)">
<path id="path8" d="M42.6765 16.1246C38.7297 18.9595 33.0089 20.472 28.0834 20.472C21.1772 20.472 14.9597 17.9828 10.256 13.8429C9.88643 13.5173 10.2176 13.0737 10.661 13.3272C15.7373 16.2053 22.0138 17.9367 28.4974 17.9367C32.87 17.9367 37.6801 17.0552 42.103 15.2257C42.7711 14.9492 43.3299 15.6521 42.6765 16.1246Z" fill="#FF9900"/>
<path id="path10" d="M44.3173 14.2952C43.8147 13.6671 40.9824 13.9985 39.7111 14.1454C39.3238 14.1915 39.2647 13.863 39.6136 13.6268C41.8693 12.0797 45.5708 12.5263 46.0025 13.0448C46.4341 13.5663 45.8901 17.1819 43.7704 18.9076C43.4451 19.1727 43.1347 19.0315 43.2796 18.68C43.7556 17.5219 44.8229 14.9261 44.3173 14.2952Z" fill="#FF9900"/>
<path id="path12" d="M39.7999 2.70502V1.20115C39.7999 0.973553 39.9773 0.820862 40.1902 0.820862H47.0994C47.3212 0.820862 47.4986 0.976434 47.4986 1.20115V2.48894C47.4956 2.70502 47.3094 2.98735 46.9782 3.4339L43.398 8.4151C44.7284 8.38341 46.1327 8.57644 47.3389 9.23906C47.6109 9.38887 47.6848 9.60783 47.7055 9.8239V11.4286C47.7055 11.6476 47.4572 11.904 47.197 11.7714C45.0713 10.6853 42.2479 10.5672 39.8975 11.783C39.658 11.9097 39.4067 11.6562 39.4067 11.4372V9.91321C39.4067 9.66833 39.4097 9.25058 39.661 8.87894L43.8089 3.08242H40.1991C39.9773 3.08242 39.7999 2.92973 39.7999 2.70502Z" fill="#221F1F"/>
<path id="path14" d="M14.596 12.0884H12.494C12.293 12.074 12.1333 11.927 12.1185 11.7398V1.22711C12.1185 1.0168 12.2989 0.849704 12.5236 0.849704H14.4837C14.6877 0.858341 14.8503 1.01104 14.8651 1.20118V2.57541H14.9035C15.415 1.24728 16.3758 0.627869 17.6708 0.627869C18.9864 0.627869 19.8083 1.24728 20.3996 2.57541C20.9081 1.24728 22.0641 0.627869 23.3028 0.627869C24.1838 0.627869 25.1476 0.982228 25.736 1.77738C26.4012 2.66183 26.2652 3.94675 26.2652 5.07321L26.2622 11.7081C26.2622 11.9184 26.0819 12.0884 25.8572 12.0884H23.7581C23.5482 12.074 23.3797 11.9098 23.3797 11.7081V6.13629C23.3797 5.69262 23.4211 4.58632 23.3206 4.1657C23.1639 3.45987 22.6938 3.26108 22.0848 3.26108C21.5762 3.26108 21.0441 3.59239 20.8283 4.12249C20.6124 4.65259 20.6331 5.53992 20.6331 6.13629V11.7081C20.6331 11.9184 20.4528 12.0884 20.2281 12.0884H18.129C17.9161 12.074 17.7506 11.9098 17.7506 11.7081L17.7476 6.13629C17.7476 4.96373 17.9457 3.23803 16.4527 3.23803C14.9419 3.23803 15.0011 4.92052 15.0011 6.13629V11.7081C15.0011 11.9184 14.8207 12.0884 14.596 12.0884Z" fill="#221F1F"/>
<path id="path16" d="M53.4469 0.627869C56.566 0.627869 58.2541 3.23803 58.2541 6.55691C58.2541 9.76343 56.3886 12.3073 53.4469 12.3073C50.384 12.3073 48.7166 9.69717 48.7166 6.44455C48.7166 3.17177 50.4047 0.627869 53.4469 0.627869ZM53.4646 2.77419C51.9154 2.77419 51.8179 4.83121 51.8179 6.11324C51.8179 7.39815 51.7972 10.1408 53.4469 10.1408C55.0759 10.1408 55.1528 7.92825 55.1528 6.57996C55.1528 5.69262 55.1143 4.63242 54.8394 3.79118C54.6029 3.05941 54.1328 2.77419 53.4646 2.77419Z" fill="#221F1F"/>
<path id="path18" d="M62.2985 12.0884H60.2054C59.9954 12.074 59.8269 11.9098 59.8269 11.7081L59.824 1.19254C59.8417 0.999514 60.0161 0.849704 60.229 0.849704H62.1773C62.3606 0.858341 62.5114 0.979348 62.5528 1.14356V2.75114H62.5912C63.1796 1.31354 64.0044 0.627869 65.456 0.627869C66.3991 0.627869 67.3186 0.959181 67.9099 1.86669C68.4598 2.70793 68.4598 4.12249 68.4598 5.13947V11.7571C68.4361 11.9414 68.2617 12.0884 68.0548 12.0884H65.9468C65.7546 12.074 65.595 11.9357 65.5743 11.7571V6.04698C65.5743 4.89747 65.7103 3.21498 64.2587 3.21498C63.7472 3.21498 63.2771 3.54918 63.0436 4.05622C62.7479 4.69868 62.7095 5.33826 62.7095 6.04698V11.7081C62.7065 11.9184 62.5232 12.0884 62.2985 12.0884Z" fill="#221F1F"/>
<path id="use28" d="M34.2919 7.06685V6.62318C32.7723 6.62318 31.1669 6.94008 31.1669 8.68595C31.1669 9.57041 31.637 10.1697 32.4441 10.1697C33.0354 10.1697 33.5646 9.81529 33.8987 9.2391C34.3126 8.53038 34.2919 7.86487 34.2919 7.06685ZM36.4117 12.0596C36.2728 12.1806 36.0717 12.1892 35.915 12.1085C35.2173 11.5439 35.0931 11.2817 34.7088 10.743C33.5558 11.8896 32.7398 12.2324 31.2438 12.2324C29.4759 12.2324 28.0981 11.1693 28.0981 9.04031C28.0981 7.37799 29.0235 6.24577 30.3391 5.69262C31.4803 5.20286 33.0739 5.11643 34.2919 4.98102V4.71597C34.2919 4.22909 34.3304 3.65289 34.0377 3.23227C33.7805 2.85486 33.2897 2.69929 32.858 2.69929C32.0568 2.69929 31.3414 3.09975 31.1669 3.92947C31.1315 4.11385 30.9925 4.29535 30.8033 4.30399L28.7633 4.0908C28.5919 4.05335 28.4027 3.91794 28.45 3.66154C28.92 1.25305 31.1522 0.527039 33.1507 0.527039C34.1737 0.527039 35.51 0.792088 36.3171 1.5469C37.34 2.47746 37.2425 3.71916 37.2425 5.07033V8.26245C37.2425 9.22181 37.6505 9.64243 38.0348 10.161C38.1708 10.3454 38.2004 10.5672 38.0289 10.7055C37.6002 11.0541 36.8374 11.7023 36.4176 12.0653L36.4117 12.0596Z" fill="#221F1F"/>
<path id="path30" d="M6.7348 7.06685V6.62318C5.21518 6.62318 3.60982 6.94008 3.60982 8.68595C3.60982 9.57041 4.0799 10.1697 4.88701 10.1697C5.4783 10.1697 6.00751 9.81529 6.34159 9.2391C6.75549 8.53038 6.7348 7.86487 6.7348 7.06685ZM8.85458 12.0596C8.71563 12.1806 8.51459 12.1892 8.35789 12.1085C7.66017 11.5439 7.536 11.2817 7.15166 10.743C5.99864 11.8896 5.18266 12.2324 3.68669 12.2324C1.91872 12.2324 0.541016 11.1693 0.541016 9.04031C0.541016 7.37799 1.46639 6.24577 2.78201 5.69262C3.9232 5.20286 5.51674 5.11643 6.7348 4.98102V4.71597C6.7348 4.22909 6.77323 3.65289 6.48054 3.23227C6.22333 2.85486 5.73256 2.69929 5.30091 2.69929C4.49972 2.69929 3.78425 3.09975 3.60982 3.92947C3.57434 4.11385 3.43539 4.29535 3.24618 4.30399L1.20622 4.0908C1.03474 4.05335 0.84553 3.91794 0.892834 3.66154C1.36291 1.25305 3.59504 0.527039 5.59361 0.527039C6.61654 0.527039 7.95286 0.792088 8.75997 1.5469C9.78291 2.47746 9.68534 3.71916 9.68534 5.07033V8.26245C9.68534 9.22181 10.0933 9.64243 10.4777 10.161C10.6137 10.3454 10.6432 10.5672 10.4718 10.7055C10.0431 11.0541 9.28031 11.7023 8.86049 12.0653L8.85458 12.0596Z" fill="#221F1F"/>
</g>
<defs>
<clipPath id="clip0_75_2984">
<rect width="68" height="20" fill="white" transform="translate(0.5 0.5)"/>
</clipPath>
</defs>
</svg>
