<svg width="65" height="18" viewBox="0 0 65 18" fill="none" xmlns="http://www.w3.org/2000/svg">
<g id="Cision_Ltd_logo 1" clip-path="url(#clip0_695_23)">
<g id="g10">
<g id="g12">
<path id="path14" d="M12.5518 0.20334V7.36646L15.072 7.0775V0.20334H12.5518Z" fill="#1399A4"/>
<path id="path16" d="M12.5518 17.7986H15.072V10.9209L12.5518 10.6325V17.7986Z" fill="#1399A4"/>
<path id="path18" d="M22.1764 5.72625C22.1492 5.4344 22.1369 5.14199 22.1393 4.84892C22.1385 4.56252 22.1632 4.27834 22.2134 3.99633C22.2562 3.74157 22.3429 3.50265 22.4732 3.27957C22.6029 3.06641 22.7758 2.89743 22.9919 2.77277C23.2145 2.64102 23.499 2.57517 23.8449 2.57517C24.4871 2.57517 24.9443 2.78529 25.2164 3.20547C25.4883 3.62573 25.6244 4.12417 25.6244 4.70074V5.26884H28.1436V4.03388C28.143 3.53177 28.0443 3.04982 27.8471 2.58802C27.6444 2.10933 27.3601 1.68511 26.9947 1.31557C26.6088 0.924891 26.1642 0.620098 25.6609 0.401197C25.1132 0.163105 24.5407 0.0478854 23.9433 0.0554705C23.2188 0.0554705 22.5846 0.183032 22.0406 0.438248C21.5142 0.678662 21.0654 1.02067 20.694 1.46426C20.3234 1.92079 20.0557 2.43118 19.8907 2.9956C19.7062 3.60769 19.6157 4.23339 19.6191 4.87267C19.6141 5.43355 19.6718 5.98795 19.792 6.53589L22.3147 6.24691C22.2395 6.08073 22.1935 5.90688 22.1769 5.72526" fill="#1399A4"/>
<path id="path20" d="M25.6238 12.8063C25.6238 13.2015 25.6073 13.5638 25.5744 13.8931C25.553 14.1852 25.4744 14.4612 25.3393 14.7211C25.2115 14.95 25.0304 15.123 24.7959 15.2401C24.5565 15.3641 24.2227 15.4257 23.795 15.4254C23.1529 15.4254 22.6958 15.2401 22.4238 14.8697C22.2895 14.6895 22.1874 14.4926 22.1175 14.2789C22.0477 14.0653 22.0138 13.8461 22.0158 13.6214V12.8311H19.4965V13.7695C19.4942 13.9758 19.5073 14.1811 19.536 14.3853C19.5647 14.5895 19.6085 14.7904 19.6677 14.988C19.7268 15.1856 19.8004 15.3776 19.8885 15.5642C19.9767 15.7506 20.0784 15.9292 20.1936 16.1005C20.3088 16.2714 20.4362 16.4328 20.5758 16.5846C20.7155 16.7365 20.8657 16.8768 21.0266 17.006C21.1875 17.1349 21.3572 17.2512 21.5356 17.3545C21.7142 17.4579 21.8994 17.5473 22.0913 17.6226C22.6387 17.8419 23.207 17.9491 23.7966 17.9442C24.6033 17.9442 25.2871 17.8125 25.8475 17.549C26.3874 17.3048 26.8362 16.9465 27.1941 16.4742C27.5311 16.0236 27.7738 15.4806 27.9222 14.845C28.0756 14.1657 28.1498 13.4776 28.1445 12.7811C28.1445 12.6561 28.1445 12.5342 28.1397 12.4171L25.6084 12.1271C25.6183 12.3296 25.6238 12.5545 25.6238 12.8059" fill="#1399A4"/>
<path id="path22" d="M32.5675 17.7986H35.0882V13.2131L32.5675 12.9246V17.7986Z" fill="#1399A4"/>
<path id="path24" d="M32.5675 0.203386V5.07397L35.0882 4.78591V0.203386H32.5675Z" fill="#1399A4"/>
<g id="g26">
<path id="path28" d="M42.8844 3.00809C42.9681 2.93873 43.0568 2.87714 43.1513 2.8232C43.2456 2.76928 43.344 2.72391 43.4459 2.687C43.5481 2.65017 43.6526 2.62239 43.7598 2.60369C43.8667 2.58495 43.9745 2.57561 44.0831 2.57561C44.1918 2.57561 44.2996 2.58495 44.4064 2.60369C44.5133 2.62239 44.6182 2.65017 44.7201 2.687C44.8226 2.72391 44.9206 2.76928 45.0149 2.8232C45.1092 2.87714 45.1982 2.93873 45.2816 3.00809C45.4595 3.16291 45.5876 3.35155 45.6654 3.57421L48.2 3.28422C48.1127 2.86854 47.963 2.47653 47.7515 2.10807C47.5401 1.73962 47.277 1.41283 46.9622 1.12754C46.5602 0.773532 46.1067 0.505801 45.6028 0.324377C45.3597 0.234458 45.1104 0.166681 44.8552 0.121017C44.5997 0.0753226 44.3424 0.0525351 44.0831 0.0525351C43.8238 0.0525351 43.5663 0.0753226 43.3114 0.121017C43.0559 0.166681 42.8066 0.234458 42.5634 0.324377C42.0592 0.505683 41.6061 0.773473 41.2038 1.12754C40.7809 1.50586 40.4555 1.95484 40.2276 2.47462C39.9942 2.98783 39.8726 3.57621 39.86 4.23706L42.4072 3.94519C42.4686 3.53882 42.6274 3.22593 42.8844 3.00662" fill="#1399A4"/>
</g>
<g id="g30">
<path id="path32" d="M45.2814 14.9934C45.1977 15.0628 45.1088 15.1244 45.0148 15.1784C44.9205 15.2323 44.8221 15.2776 44.7199 15.3145C44.618 15.3515 44.5134 15.3793 44.4062 15.3979C44.2993 15.4167 44.1916 15.4259 44.0829 15.4259C43.9742 15.4259 43.8664 15.4167 43.7595 15.3979C43.6523 15.3793 43.5478 15.3515 43.4459 15.3145C43.3434 15.2776 43.2453 15.2323 43.151 15.1784C43.0567 15.1244 42.9678 15.0628 42.8843 14.9934C42.6265 14.7734 42.4673 14.4593 42.4068 14.051L39.8596 13.7595C39.8717 14.4368 39.9944 15.0296 40.2276 15.5378C40.4579 16.0519 40.7833 16.4966 41.2035 16.8715C41.6056 17.2264 42.0588 17.4944 42.5636 17.6757C42.8068 17.7655 43.0562 17.8334 43.3117 17.8791C43.5666 17.9247 43.8242 17.9475 44.0832 17.9475C44.3425 17.9475 44.6001 17.9247 44.8553 17.8791C45.1105 17.8334 45.3599 17.7655 45.603 17.6757C46.1073 17.4945 46.5605 17.2267 46.9625 16.8725C47.3828 16.4976 47.7082 16.053 47.9385 15.5388C48.0586 15.2747 48.1473 15.0007 48.2049 14.7163L45.6668 14.4254C45.5889 14.6492 45.4609 14.8389 45.282 14.9944" fill="#1399A4"/>
</g>
<g id="g34">
<path id="path36" d="M59.3306 17.7986H61.7033V16.2608L58.6423 15.9101L59.3306 17.7986Z" fill="#1399A4"/>
</g>
<g id="g38">
<path id="path40" d="M52.9054 17.7986H55.4261V15.5422L52.9054 15.2531V17.7986Z" fill="#1399A4"/>
</g>
<g id="g42">
<path id="path44" d="M59.1818 0.203396V2.02661L61.7032 1.73817V0.203396H59.1818Z" fill="#1399A4"/>
</g>
<g id="g46">
<path id="path48" d="M52.9052 0.20338V2.74585L56.1079 2.3788L55.3271 0.20338H52.9052Z" fill="#1399A4"/>
</g>
<path id="path50" d="M12.5513 7.36652V10.6326L15.072 10.9216V7.07756L12.5513 7.36652Z" fill="#E76A37"/>
<path id="path52" d="M27.6623 9.73002C27.4676 9.33446 27.1998 8.99685 26.8592 8.7169C26.514 8.42873 26.0617 8.17747 25.5018 7.96307L23.5752 7.19644C23.301 7.09374 23.0415 6.96204 22.7967 6.80127C22.6177 6.68164 22.4735 6.52918 22.364 6.34384C22.3467 6.3132 22.3319 6.28063 22.3146 6.24804L19.7919 6.53697C19.875 6.91656 20.0027 7.28067 20.1747 7.62911C20.5455 8.36253 21.2744 8.95157 22.3615 9.39611L24.1655 10.1371C24.4254 10.2429 24.6766 10.3665 24.9194 10.5075C25.1048 10.6184 25.2531 10.7665 25.3639 10.9521C25.4705 11.1336 25.5406 11.3725 25.5739 11.6689C25.5886 11.8038 25.5994 11.9578 25.608 12.1268L28.1385 12.4167C28.1316 11.964 28.1004 11.513 28.0447 11.0637C27.9896 10.5984 27.862 10.1538 27.6618 9.73002" fill="#E76A37"/>
<path id="path54" d="M32.5675 5.07437V12.9246L35.0882 13.2131V4.78539L32.5675 5.07437Z" fill="#E76A37"/>
<g id="g56">
<path id="path58" d="M48.3092 4.35516C48.311 3.99436 48.2748 3.63738 48.2003 3.28423L45.666 3.57471C45.7528 3.82758 45.7938 4.08778 45.7885 4.35516V13.6469C45.7935 13.9132 45.7531 14.1723 45.6669 14.4245L48.205 14.7153C48.2762 14.3629 48.311 14.0068 48.3092 13.6474V4.35516Z" fill="#E76A37"/>
</g>
<g id="g60">
<path id="path62" d="M42.378 13.647V4.35475C42.3775 4.21815 42.3875 4.08227 42.4077 3.94717L39.8602 4.23963V13.7596L42.4077 14.051C42.3878 13.917 42.3782 13.7823 42.3785 13.647" fill="#E76A37"/>
</g>
<g id="g64">
<path id="path66" d="M59.1822 2.02715V10.805H59.1325L56.1081 2.37884L52.9055 2.74541V15.2533L55.4262 15.5423V7.22176H55.4755L58.6423 15.9107L61.7033 16.261V1.73819L59.1822 2.02715Z" fill="#E76A37"/>
</g>
<path id="path68" d="M7.32348 1.27577C6.95463 0.900028 6.53032 0.603624 6.05053 0.386654C5.55205 0.160192 5.02911 0.0490875 4.48163 0.0531788C3.98715 0.0552235 3.5012 0.121096 3.02393 0.250772C2.53124 0.381506 2.08731 0.607876 1.69216 0.930044C1.29705 1.25141 0.971636 1.67574 0.716117 2.20295C0.460545 2.73021 0.332974 3.39737 0.333252 4.20455V13.795C0.333252 14.6026 0.460886 15.2697 0.716117 15.7966C0.971358 16.3235 1.29669 16.7477 1.69216 17.069C2.08764 17.3921 2.53223 17.6186 3.02591 17.7488C3.5032 17.8785 3.98906 17.9443 4.48363 17.9464C5.03114 17.9505 5.5541 17.8392 6.05251 17.6126C6.53237 17.3955 6.95675 17.0992 7.32546 16.7234C7.69323 16.3459 7.9774 15.9134 8.17808 15.4262C8.38583 14.9278 8.48873 14.4086 8.4868 13.8686V12.2806L5.94034 11.8469V12.6174C5.94034 13.1346 5.9483 14.3133 5.65336 14.7781C5.58264 14.8912 5.49815 14.9929 5.39994 15.0833C5.25549 15.1996 5.09462 15.2851 4.91734 15.3398C4.78744 15.3804 4.6547 15.4073 4.51919 15.4202C4.48163 15.4202 4.44362 15.4251 4.4031 15.4251H4.38581C3.80886 15.4251 3.40942 15.2522 3.18749 14.9061C2.96549 14.5599 2.8542 14.1318 2.85355 13.6217V4.37644C2.85355 3.86565 2.96484 3.43757 3.18749 3.09209C3.41007 2.74666 3.80953 2.57362 4.38581 2.57293H4.4031C4.44316 2.57293 4.48117 2.57591 4.51919 2.5784C4.65383 2.5917 4.78574 2.61855 4.91491 2.65889C5.092 2.7138 5.25268 2.79939 5.39702 2.91576C5.49512 3.00602 5.57954 3.10763 5.65042 3.22055C5.94678 3.68586 5.93742 4.86447 5.93742 5.38168V6.15328L8.48533 5.7186V4.12946C8.48721 3.58972 8.38431 3.07067 8.17656 2.57249C7.97582 2.0852 7.69146 1.65303 7.32348 1.27577Z" fill="#1399A4"/>
<g id="g70">
<path id="path72" d="M62.9632 1.08498C62.962 0.964807 62.9853 0.849534 63.0331 0.739198C63.0773 0.633602 63.1406 0.540333 63.2215 0.459191C63.3029 0.378088 63.3961 0.315157 63.5016 0.270438C63.6114 0.22406 63.726 0.200871 63.8449 0.200871C63.9638 0.200871 64.0784 0.22406 64.1882 0.270438C64.2937 0.315117 64.3873 0.378008 64.4687 0.459071C64.5497 0.540174 64.6125 0.633563 64.6575 0.739198C64.7033 0.84902 64.7263 0.963464 64.7263 1.08249C64.7263 1.20152 64.7033 1.31596 64.6575 1.42578C64.6125 1.53142 64.5497 1.62485 64.4687 1.70587C64.3873 1.78701 64.2937 1.8499 64.1882 1.89458C64.0784 1.94092 63.9638 1.96411 63.8449 1.96411C63.726 1.96411 63.6114 1.94092 63.5016 1.89458C63.3961 1.84994 63.3029 1.78705 63.2219 1.70587C63.1406 1.62473 63.0777 1.53138 63.0331 1.42578C62.9853 1.31545 62.962 1.20017 62.9632 1.08M64.5513 1.08C64.5517 0.98298 64.5327 0.889749 64.4948 0.80043C64.4592 0.714507 64.409 0.638107 64.3443 0.571265C64.2799 0.505214 64.2052 0.4537 64.1207 0.416645C64.0326 0.378404 63.9409 0.359284 63.8453 0.359284C63.7497 0.359284 63.6577 0.378404 63.5704 0.416645C63.4854 0.4537 63.4112 0.505214 63.3464 0.571265C63.2816 0.638067 63.2314 0.714507 63.1951 0.80043C63.1579 0.889947 63.139 0.983256 63.139 1.08032C63.139 1.1773 63.1579 1.27057 63.1951 1.36013C63.2314 1.44601 63.2816 1.52245 63.3464 1.58933C63.4112 1.65535 63.4854 1.7069 63.5704 1.74391C63.6577 1.78215 63.7497 1.80127 63.8453 1.80127C63.9409 1.80127 64.0326 1.78215 64.1207 1.74391C64.2052 1.7069 64.2799 1.65535 64.3443 1.58933C64.409 1.52237 64.4592 1.44593 64.4948 1.36013C64.5327 1.27057 64.5517 1.17722 64.5513 1.08ZM63.5115 0.56684H63.9014C64.1365 0.56684 64.2542 0.66331 64.2538 0.856289C64.2554 0.898875 64.2483 0.940235 64.2336 0.980213C64.221 1.01292 64.202 1.04137 64.1768 1.0657C64.1519 1.08865 64.1238 1.10612 64.0926 1.11809C64.0606 1.13053 64.0278 1.13906 63.9938 1.1438L64.2897 1.59427H64.0954L63.7991 1.14965H63.675V1.59427H63.5143L63.5115 0.56684ZM63.6719 1.00246H63.8548C63.9176 1.00625 63.9773 0.994397 64.0341 0.966902C64.0784 0.939802 64.0981 0.900454 64.0938 0.848861C64.097 0.803905 64.0792 0.769497 64.0409 0.745636C63.999 0.72146 63.9539 0.710399 63.9058 0.712532H63.6719V1.00246Z" fill="#1399A4"/>
</g>
</g>
</g>
</g>
<defs>
<clipPath id="clip0_695_23">
<rect width="64.3934" height="17.895" fill="white" transform="translate(0.333252 0.0524902)"/>
</clipPath>
</defs>
</svg>
