<svg xmlns="http://www.w3.org/2000/svg" width="100" height="22" fill="none" viewBox="0 0 100 22">
  <g clip-path="url(#a)">
    <path fill="#0061FF" d="M12.135 4.548 6.413 8.2l5.722 3.653-5.722 3.652L.69 11.822 6.413 8.17.69 4.548 6.413.895l5.722 3.653ZM6.382 16.662l5.723-3.653 5.722 3.653-5.722 3.652-5.723-3.652Zm5.753-4.84 5.722-3.652-5.722-3.622L17.827.895l5.722 3.653L17.827 8.2l5.722 3.653-5.722 3.652-5.692-3.683Z"/>
    <path fill="#000" d="M28.024 4.548h4.626c2.953 0 5.388 1.704 5.388 5.6v.822c0 3.927-2.283 5.692-5.296 5.692h-4.718V4.548Zm2.587 2.191v7.701h1.978c1.675 0 2.8-1.096 2.8-3.53v-.64c0-2.435-1.186-3.53-2.89-3.53H30.61Zm8.796.122h2.07l.335 2.283c.396-1.552 1.4-2.374 3.227-2.374h.639v2.617h-1.066c-2.1 0-2.617.73-2.617 2.8v4.505h-2.557V6.861h-.03Zm6.788 5.114V11.7c0-3.288 2.1-5.083 4.962-5.083 2.922 0 4.961 1.795 4.961 5.083v.274c0 3.226-1.979 4.961-4.961 4.961-3.166-.03-4.962-1.735-4.962-4.961Zm7.305-.03V11.7c0-1.827-.913-2.922-2.374-2.922-1.43 0-2.374 1.004-2.374 2.922v.243c0 1.766.913 2.77 2.374 2.77 1.461-.03 2.374-1.004 2.374-2.77Zm3.957-5.084h2.131l.243 1.857c.518-1.248 1.614-2.1 3.227-2.1 2.496 0 4.14 1.795 4.14 5.113v.274c0 3.226-1.827 4.931-4.14 4.931-1.552 0-2.618-.7-3.135-1.826v4.961h-2.496l.03-13.21Zm7.153 5.083v-.213c0-1.948-1.004-2.922-2.343-2.922-1.431 0-2.375 1.096-2.375 2.922v.183c0 1.735.913 2.83 2.344 2.83 1.461-.03 2.374-.973 2.374-2.8Zm6.362 2.922-.213 1.796h-2.192V3.574h2.496v5.022c.548-1.278 1.644-1.978 3.196-1.978 2.344.03 4.079 1.643 4.079 4.9v.304c0 3.257-1.644 5.114-4.14 5.114-1.643-.03-2.709-.791-3.226-2.07Zm4.748-3.044v-.243c0-1.796-.974-2.8-2.344-2.8-1.4 0-2.374 1.126-2.374 2.83v.213c0 1.827.944 2.892 2.344 2.892 1.491 0 2.374-.944 2.374-2.892Zm3.714.153V11.7c0-3.288 2.1-5.083 4.961-5.083 2.922 0 4.961 1.795 4.961 5.083v.274c0 3.226-2.008 4.961-4.961 4.961-3.166-.03-4.961-1.735-4.961-4.961Zm7.335-.03V11.7c0-1.827-.913-2.922-2.374-2.922-1.43 0-2.374 1.004-2.374 2.922v.243c0 1.766.913 2.77 2.374 2.77 1.461-.03 2.374-1.004 2.374-2.77Zm5.936-.366-3.44-4.718h2.953l1.978 2.953 2.009-2.953h2.922l-3.5 4.688 3.683 5.113h-2.892l-2.252-3.257-2.192 3.257h-3.013l3.744-5.083Z"/>
  </g>
  <defs>
    <clipPath id="a">
      <path fill="#fff" d="M0 .744h100v20.513H0z"/>
    </clipPath>
  </defs>
</svg>
