<svg width="146" height="29" viewBox="0 0 146 29" fill="none" xmlns="http://www.w3.org/2000/svg">
<g id="Layer_1" clip-path="url(#clip0_267_1318)">
<g id="Group">
<path id="Vector" d="M60.5224 14.219V15.6675C60.5224 18.3502 59.6588 20.5261 57.9338 22.1887C56.2067 23.8514 53.9656 24.6848 51.2406 24.6848C48.3279 24.6848 45.8993 23.7453 43.9824 21.8664C42.0676 19.9619 41.1208 17.6525 41.1208 14.9422C41.1208 12.2319 42.0654 9.89696 43.9546 7.99254C45.8715 6.086 48.2192 5.14652 51.0252 5.14652C54.5605 5.14652 57.6353 6.86431 59.2558 9.52159L56.0723 11.3475C55.1832 9.81637 53.2385 8.74328 50.9996 8.74328C49.1915 8.74328 47.7074 9.33496 46.5475 10.5141C45.3875 11.6678 44.8203 13.1438 44.8203 14.9422C44.8203 16.7406 45.4131 18.189 46.5752 19.3427C47.7607 20.4964 49.328 21.0605 51.2704 21.0605C54.1575 21.0605 56.1 19.7181 56.7738 17.4913H51.0551V14.2169H60.5224V14.219Z" fill="#000050"/>
<path id="Vector_2" d="M74.1432 11.9922C75.1134 12.9847 75.5996 14.3272 75.5996 16.0704V24.3094H72.1197V16.5009C72.1197 14.7025 71.0664 13.7376 69.448 13.7376C67.6398 13.7376 66.4799 14.8383 66.4799 17.065V24.3116H63V5.52613H66.4799V12.3973C67.3178 11.1355 68.6654 10.5183 70.5013 10.5183C71.9833 10.5162 73.1986 10.9997 74.1432 11.9922Z" fill="#000050"/>
<path id="Vector_3" d="M84.9859 24.6848C82.9901 24.6848 81.2886 24.0147 79.9111 22.6447C78.5358 21.2768 77.8599 19.5844 77.8599 17.5994C77.8599 15.6144 78.5337 13.9497 79.9111 12.5797C81.2864 11.2118 82.988 10.5141 84.9859 10.5141C86.9838 10.5141 88.6811 11.2118 90.0586 12.5797C91.4339 13.9475 92.1354 15.6123 92.1354 17.5994C92.1354 19.5866 91.4339 21.2747 90.0586 22.6447C88.6833 24.0147 86.9838 24.6848 84.9859 24.6848ZM84.9859 21.3044C86.0393 21.3044 86.9007 20.9544 87.6022 20.2567C88.3037 19.559 88.6555 18.6725 88.6555 17.5994C88.6555 16.5264 88.3037 15.6399 87.6022 14.9422C86.9007 14.2445 86.0371 13.8945 84.9859 13.8945C83.9347 13.8945 83.069 14.2445 82.3675 14.9422C81.6937 15.6399 81.3419 16.5264 81.3419 17.5994C81.3419 18.6725 81.6937 19.559 82.3675 20.2567C83.069 20.9566 83.9347 21.3044 84.9859 21.3044Z" fill="#000050"/>
<path id="Vector_4" d="M99.9587 16.1786C101.929 16.5794 104.492 17.521 104.464 20.3903C104.464 21.7582 103.95 22.8334 102.899 23.5841C101.873 24.3094 100.579 24.6848 99.0418 24.6848C96.2635 24.6848 94.3722 23.6117 93.3743 21.491L96.3957 19.8008C96.8008 20.9544 97.6644 21.5461 99.0418 21.5461C100.283 21.5461 100.903 21.1708 100.903 20.3925C100.903 19.6693 99.8244 19.2663 98.4469 18.9164C96.4511 18.4053 93.9415 17.574 93.9415 14.7831C93.9415 13.4683 94.4276 12.4206 95.3978 11.6699C96.3957 10.8916 97.6111 10.5162 99.0674 10.5162C101.253 10.5162 103.142 11.5363 104.193 13.3622L101.225 14.9719C100.795 14.0599 100.065 13.604 99.0674 13.604C98.1761 13.604 97.5023 14.0345 97.5023 14.7047C97.5023 15.4278 98.5813 15.8308 99.9587 16.1786Z" fill="#000050"/>
<path id="Vector_5" d="M114.015 14.219H110.965V19.8008C110.965 21.2492 112.019 21.2768 114.015 21.1686V24.3094C109.238 24.846 107.486 23.476 107.486 19.8008V14.219H105.138V10.8916H107.486V8.18129L110.965 7.13364V10.8916H114.015V14.219Z" fill="#000050"/>
<path id="Vector_6" d="M119.004 19.0225C119.463 20.7127 120.731 21.5461 122.808 21.5461C124.13 21.5461 125.156 21.0902 125.829 20.2037L128.636 21.8133C127.314 23.7199 125.343 24.6848 122.753 24.6848C120.514 24.6848 118.733 24.0147 117.384 22.6722C116.034 21.3298 115.358 19.6396 115.358 17.5994C115.358 15.5593 116.032 13.8945 117.356 12.5521C118.678 11.1842 120.405 10.512 122.482 10.512C124.452 10.512 126.096 11.1821 127.367 12.5521C128.661 13.92 129.309 15.5848 129.309 17.5994C129.309 18.0554 129.256 18.5114 129.173 19.0203H119.004V19.0225ZM125.829 16.3397C125.424 14.5159 124.075 13.6294 122.484 13.6294C120.622 13.6294 119.354 14.6219 118.949 16.3397H125.829Z" fill="#000050"/>
<path id="Vector_7" d="M141.853 5.52401H145.333V24.3094H141.853V22.7274C140.828 24.0422 139.372 24.6869 137.482 24.6869C135.593 24.6869 134.109 24.0168 132.815 22.6468C131.546 21.2789 130.9 19.5866 130.9 17.6016C130.9 15.6166 131.548 13.9518 132.815 12.5818C134.109 11.2139 135.676 10.5162 137.482 10.5162C139.288 10.5162 140.83 11.1609 141.853 12.4758V5.52401ZM138.131 21.3849C139.209 21.3849 140.101 21.035 140.802 20.3373C141.504 19.612 141.856 18.7001 141.856 17.5994C141.856 16.4988 141.504 15.5848 140.802 14.887C140.101 14.1639 139.209 13.8139 138.131 13.8139C137.052 13.8139 136.16 14.1639 135.431 14.887C134.73 15.5848 134.378 16.4988 134.378 17.5994C134.378 18.7001 134.73 19.612 135.431 20.3373C136.16 21.0371 137.052 21.3849 138.131 21.3849Z" fill="#000050"/>
</g>
<g id="Group_2">
<path id="Vector_8" d="M30.2718 15.2326V14.5073C30.2569 14.2613 30.242 13.9708 30.2292 13.8393C29.8198 9.43879 27.1758 5.27156 22.8537 2.7288C19.1456 0.550811 15.3204 -0.0451144 11.3032 1.00041C7.31581 2.03108 4.26454 4.3554 2.11734 7.97124C0.876363 10.0771 0.174846 12.2276 0 14.4925H11.3458C11.2584 13.3006 11.4929 12.0812 12.09 10.8915C12.2499 10.5713 12.4247 10.2807 12.6294 9.99018C14.9664 6.86847 19.6382 6.02441 22.2971 9.27761C22.9987 10.1344 23.3633 11.1227 23.6852 12.1385C23.8452 12.6475 23.9923 13.1692 24.1821 13.6781C25.3356 17.0034 28.3442 16.5984 30.2121 15.2899C30.2221 15.2899 30.232 15.28 30.242 15.2602C30.0373 16.2336 29.6727 17.207 29.0884 18.1656C27.6726 20.5472 25.745 22.0296 23.2908 22.6679C20.8237 23.3062 18.3993 22.9584 15.9899 21.5503C14.1647 20.4751 12.6891 18.8209 11.93 16.9165H5.97249C6.86377 20.6341 9.34573 24.0761 13.1135 26.2689C16.8513 28.4469 20.7214 29.0428 24.7514 27.9973C28.7814 26.9666 31.8476 24.6423 33.9948 21.0265C35.1035 19.1539 35.7624 17.2219 35.9948 15.2326H30.2718Z" fill="url(#paint0_linear_267_1318)"/>
<path id="Vector_9" d="M15.4845 15.0397C16.0964 14.8489 16.4355 14.1999 16.2436 13.5913C16.0517 12.9826 15.3992 12.6454 14.7872 12.8363C14.1753 13.0272 13.8362 13.6761 14.0281 14.2847C14.22 14.8934 14.8725 15.2306 15.4845 15.0397Z" fill="url(#paint1_linear_267_1318)"/>
<path id="Vector_10" d="M20.4357 13.8839C21.0476 13.6931 21.3866 13.0441 21.1947 12.4355C21.0028 11.8268 20.3504 11.4896 19.7384 11.6805C19.1264 11.8714 18.7874 12.5203 18.9793 13.1289C19.1712 13.7376 19.8237 14.0769 20.4357 13.8839Z" fill="url(#paint2_linear_267_1318)"/>
</g>
</g>
<defs>
<linearGradient id="paint0_linear_267_1318" x1="-0.80813" y1="3.82734" x2="26.7543" y2="19.6517" gradientUnits="userSpaceOnUse">
<stop stop-color="#EA04FF"/>
<stop offset="1" stop-color="#4F27FF"/>
</linearGradient>
<linearGradient id="paint1_linear_267_1318" x1="-1.26662" y1="4.62482" x2="26.2979" y2="20.447" gradientUnits="userSpaceOnUse">
<stop stop-color="#EA04FF"/>
<stop offset="1" stop-color="#4F27FF"/>
</linearGradient>
<linearGradient id="paint2_linear_267_1318" x1="0.452031" y1="1.63247" x2="28.0144" y2="17.4568" gradientUnits="userSpaceOnUse">
<stop stop-color="#EA04FF"/>
<stop offset="1" stop-color="#4F27FF"/>
</linearGradient>
<clipPath id="clip0_267_1318">
<rect width="145.333" height="28" fill="white" transform="translate(0 0.5)"/>
</clipPath>
</defs>
</svg>
