<svg width="69" height="25" viewBox="0 0 69 25" fill="none" xmlns="http://www.w3.org/2000/svg">
<g id="Google-Logo.wine 1" clip-path="url(#clip0_75_3014)">
<path id="Vector" d="M29.79 12.4742C29.79 15.6218 27.3276 17.9412 24.3058 17.9412C21.2839 17.9412 18.8215 15.6218 18.8215 12.4742C18.8215 9.30448 21.2839 7.00726 24.3058 7.00726C27.3276 7.00726 29.79 9.30448 29.79 12.4742ZM27.3893 12.4742C27.3893 10.5073 25.9621 9.16152 24.3058 9.16152C22.6494 9.16152 21.2223 10.5073 21.2223 12.4742C21.2223 14.4215 22.6494 15.787 24.3058 15.787C25.9621 15.787 27.3893 14.419 27.3893 12.4742Z" fill="#EA4335"/>
<path id="Vector_2" d="M41.6213 12.4742C41.6213 15.6218 39.1589 17.9412 36.1371 17.9412C33.1152 17.9412 30.6528 15.6218 30.6528 12.4742C30.6528 9.30694 33.1152 7.00726 36.1371 7.00726C39.1589 7.00726 41.6213 9.30448 41.6213 12.4742ZM39.2206 12.4742C39.2206 10.5073 37.7934 9.16152 36.1371 9.16152C34.4807 9.16152 33.0536 10.5073 33.0536 12.4742C33.0536 14.4215 34.4807 15.787 36.1371 15.787C37.7934 15.787 39.2206 14.419 39.2206 12.4742Z" fill="#FBBC05"/>
<path id="Vector_3" d="M52.9592 7.33755V17.1525C52.9592 21.1899 50.5782 22.8388 47.7633 22.8388C45.1137 22.8388 43.5189 21.0666 42.9175 19.6173L45.0077 18.7472C45.3799 19.637 46.2918 20.687 47.7609 20.687C49.5627 20.687 50.6792 19.5754 50.6792 17.4828V16.6965H50.5954C50.0581 17.3595 49.0229 17.9388 47.7165 17.9388C44.983 17.9388 42.4788 15.5577 42.4788 12.494C42.4788 9.408 44.983 7.00726 47.7165 7.00726C49.0204 7.00726 50.0556 7.5865 50.5954 8.22982H50.6792V7.34001H52.9592V7.33755ZM50.8493 12.494C50.8493 10.5689 49.5651 9.16152 47.931 9.16152C46.2746 9.16152 44.8869 10.5689 44.8869 12.494C44.8869 14.3993 46.2746 15.787 47.931 15.787C49.5651 15.787 50.8493 14.3993 50.8493 12.494Z" fill="#4285F4"/>
<path id="Vector_4" d="M56.7182 1.58472V17.6061H54.3766V1.58472H56.7182Z" fill="#34A853"/>
<path id="Vector_5" d="M65.843 14.2735L67.7064 15.5158C67.105 16.4056 65.6557 17.9387 63.1514 17.9387C60.0457 17.9387 57.7263 15.538 57.7263 12.4717C57.7263 9.22064 60.0654 7.00476 62.8827 7.00476C65.7197 7.00476 67.1074 9.26254 67.561 10.4826L67.8099 11.1038L60.5017 14.1306C61.0612 15.2274 61.9313 15.7869 63.1514 15.7869C64.374 15.7869 65.2219 15.1855 65.843 14.2735ZM60.1073 12.3066L64.9926 10.278C64.724 9.59529 63.9155 9.11958 62.9641 9.11958C61.744 9.11958 60.0457 10.1967 60.1073 12.3066Z" fill="#EA4335"/>
<path id="Vector_6" d="M9.9579 11.0521V8.73271H17.7739C17.8503 9.13694 17.8897 9.61512 17.8897 10.1327C17.8897 11.8729 17.414 14.0247 15.8809 15.5578C14.3897 17.1107 12.4843 17.9388 9.96037 17.9388C5.28213 17.9388 1.34827 14.1282 1.34827 9.44998C1.34827 4.77174 5.28213 0.961121 9.96037 0.961121C12.5484 0.961121 14.3921 1.97663 15.7774 3.30024L14.1407 4.93688C13.1474 4.00518 11.8016 3.28052 9.9579 3.28052C6.54165 3.28052 3.86978 6.03373 3.86978 9.44998C3.86978 12.8662 6.54165 15.6194 9.9579 15.6194C12.1738 15.6194 13.4358 14.7296 14.2442 13.9212C14.8999 13.2655 15.3312 12.3289 15.5013 11.0496L9.9579 11.0521Z" fill="#4285F4"/>
</g>
<defs>
<clipPath id="clip0_75_3014">
<rect width="67.2" height="24" fill="white" transform="translate(0.900024 0.5)"/>
</clipPath>
</defs>
</svg>
