<svg width="101" height="16" viewBox="0 0 101 16" fill="none" xmlns="http://www.w3.org/2000/svg">
<g id="Instacart_logo_and_wordmark 1" clip-path="url(#clip0_695_1082)">
<path id="Vector" d="M39.2399 8.58L37.9119 8.458C37.0412 8.382 36.6906 8.07667 36.6906 7.542C36.6906 6.916 37.2246 6.504 38.2626 6.504C39.2399 6.504 39.7286 6.93067 39.8046 7.618H42.9192C42.7206 5.588 41.2859 4.15267 38.3546 4.15267C35.3012 4.15267 33.6212 5.71 33.6212 7.77067C33.6212 9.69467 34.6746 10.748 37.2859 10.962L38.5992 11.0687C39.6212 11.1453 39.9879 11.496 39.9879 12.1067C39.9879 12.748 39.4539 13.2213 38.3546 13.2213C37.3312 13.2213 36.7212 12.7633 36.6146 11.9547H33.3312C33.6212 14.168 35.1786 15.6333 38.3392 15.6333C41.4079 15.6333 43.1026 14.0613 43.1026 11.9387C43.1026 9.878 41.9726 8.82467 39.2399 8.58ZM28.4919 4.15267C26.5379 4.15267 25.3772 5.17533 24.8279 7.26733H24.6292V4.336H21.5452V15.4507H24.8279V8.97733C24.8279 7.496 25.5912 6.68733 26.9652 6.68733C28.3239 6.68733 28.9959 7.52733 28.9959 8.962V15.4507H32.2779V8.382C32.2779 5.69467 30.8739 4.15267 28.4919 4.15267ZM18.3546 0C17.2399 0 16.3999 0.733333 16.3999 1.84733C16.3999 2.962 17.2246 3.69467 18.3392 3.69467C19.4539 3.69467 20.2779 2.96133 20.2779 1.84733C20.2779 0.748 19.4539 0 18.3546 0ZM19.9879 4.336H16.7052V15.4507H19.9879V4.336ZM48.2626 1.98467H46.1712C46.1099 3.77133 45.3466 4.54933 43.6366 4.68667V6.94667H44.9806V11.832C44.9806 14.29 46.3846 15.6333 49.1786 15.6333C49.7039 15.6333 50.2272 15.5667 50.7359 15.4353V12.7933C50.4738 12.8368 50.2083 12.8571 49.9426 12.854C48.7666 12.854 48.2626 12.4113 48.2626 11.1747V6.94667H51.1486V4.336H48.2626V1.98467ZM100.324 6.94667V4.336H97.4386V1.98467H95.3772C95.3312 3.22133 94.9652 3.93867 94.1559 4.336V11.832C94.1559 14.29 95.5606 15.6333 98.3546 15.6333C98.8799 15.6333 99.4032 15.5667 99.9119 15.4353V12.7933C99.6495 12.8369 99.3838 12.8572 99.1179 12.854C97.9419 12.854 97.4386 12.4113 97.4386 11.1747V6.94667H100.324ZM89.5759 7.43533H89.3772V4.33533H86.3392V15.4507H89.6219V9.43533C89.6219 7.77067 90.3699 7.06867 92.0799 7.06867C92.3699 7.06867 92.6906 7.09933 93.1332 7.17533V4.30533C92.8341 4.20035 92.5189 4.14868 92.2019 4.15267C90.8732 4.15267 89.9572 4.916 89.5759 7.43533ZM68.6139 12.8247C67.0719 12.8247 65.9572 11.8013 65.9572 9.81667C65.9572 8.046 66.9952 6.94667 68.5832 6.94667C69.9419 6.94667 70.7206 7.71 70.9499 8.93133H74.2779C73.9572 6.076 71.9119 4.15267 68.6292 4.15267C65.0259 4.15267 62.6599 6.59533 62.6599 9.93933C62.6599 13.4047 64.9346 15.6333 68.5832 15.6333C71.8966 15.6333 74.0492 13.7867 74.3546 10.7933H71.0259C70.8432 12.0153 70.0032 12.8247 68.6139 12.8247ZM56.8432 4.15267C53.9879 4.15267 52.2632 5.55733 51.9572 8.076H55.1026C55.2092 7.206 55.7746 6.748 56.7666 6.748C57.7739 6.748 58.2319 7.206 58.2319 7.86267C58.2319 8.412 57.8812 8.70267 56.9806 8.87L55.4839 9.14533C52.8432 9.63333 51.8352 10.7173 51.8352 12.4427C51.8352 14.412 53.2246 15.6493 55.1486 15.6493C56.7206 15.6493 57.7439 14.916 58.2172 13.084H58.4152V15.4507H61.5152V8.19867C61.5152 5.67933 60.0032 4.15267 56.8432 4.15267ZM56.4766 13.4047C55.5912 13.4047 55.0872 12.9313 55.0872 12.2287C55.0872 11.6487 55.4386 11.252 56.3086 11.0533L56.9192 10.916C57.4459 10.794 57.8546 10.6313 58.2326 10.3047V11.4807C58.2326 12.8393 57.5146 13.4047 56.4766 13.4047ZM80.1712 4.15267C77.3159 4.15267 75.5912 5.55733 75.2859 8.076H78.4306C78.5379 7.206 79.1026 6.748 80.0946 6.748C81.1026 6.748 81.5606 7.206 81.5606 7.86267C81.5606 8.412 81.2092 8.70267 80.3086 8.87L78.8126 9.14533C76.1712 9.63333 75.1632 10.7173 75.1632 12.4427C75.1632 14.412 76.5526 15.6493 78.4766 15.6493C80.0492 15.6493 81.0719 14.916 81.5452 13.084H81.7439V15.4507H84.8432V8.19867C84.8432 5.67933 83.3312 4.15267 80.1712 4.15267ZM79.8046 13.4047C78.9192 13.4047 78.4152 12.9313 78.4152 12.2287C78.4152 11.6487 78.7666 11.252 79.6366 11.0533L80.2472 10.916C80.7739 10.794 81.1832 10.6313 81.5606 10.3047V11.4807C81.5606 12.8393 80.8432 13.4047 79.8046 13.4047Z" fill="#003D29"/>
<path id="Vector_2" d="M11.18 2.65935C10.5053 2.65935 10.024 2.95335 9.57997 3.59202L8.29997 5.43002V0.18335H5.24664V5.43002L3.96664 3.59202C3.52331 2.95335 3.04197 2.65935 2.36664 2.65935C1.34797 2.65935 0.669973 3.41135 0.66664 4.33802C0.663973 5.13135 1.03797 5.64868 1.82664 6.15668L6.77331 9.34335L11.72 6.15668C12.5086 5.64868 12.8826 5.13135 12.88 4.33802C12.8773 3.41135 12.1986 2.65935 11.18 2.65935Z" fill="#0AAD0A"/>
<path id="Vector_3" d="M6.77328 10.1067C9.71328 10.1067 12.1233 12.3014 12.1166 15.4507H1.42994C1.42394 12.3027 3.83328 10.1067 6.77328 10.1067Z" fill="#FF7009"/>
</g>
<defs>
<clipPath id="clip0_695_1082">
<rect width="100" height="16" fill="white" transform="translate(0.666626)"/>
</clipPath>
</defs>
</svg>
