<svg width="86" height="18" viewBox="0 0 86 18" fill="none" xmlns="http://www.w3.org/2000/svg">
<g id="Meta_Platforms-Logo.wine 1" clip-path="url(#clip0_75_2970)">
<path id="Vector" d="M3.37253 11.6276C3.37253 12.61 3.58814 13.3641 3.86995 13.8204C4.23944 14.418 4.79054 14.6712 5.35238 14.6712C6.07705 14.6712 6.73998 14.4914 8.01754 12.7245C9.04102 11.3082 10.247 9.32033 11.0584 8.07409L12.4326 5.96272C13.3872 4.49639 14.4921 2.86634 15.7589 1.76145C16.7931 0.859645 17.9088 0.358643 19.0315 0.358643C20.9166 0.358643 22.7121 1.45101 24.0863 3.49975C25.5902 5.74353 26.3202 8.56972 26.3202 11.4863C26.3202 13.2201 25.9785 14.4941 25.397 15.5006C24.8351 16.4739 23.7401 17.4464 21.898 17.4464V14.6712C23.4753 14.6712 23.8689 13.2219 23.8689 11.5632C23.8689 9.19955 23.3178 6.57645 22.1038 4.70216C21.2422 3.37271 20.1257 2.56037 18.8974 2.56037C17.5688 2.56037 16.4997 3.56238 15.2982 5.34899C14.6594 6.29821 14.0036 7.45499 13.2673 8.76028L12.4568 10.1962C10.8285 13.0832 10.4161 13.7408 9.60196 14.826C8.175 16.7262 6.95649 17.4464 5.35238 17.4464C3.44947 17.4464 2.24616 16.6224 1.50092 15.3807C0.892562 14.3688 0.59375 13.0412 0.59375 11.5283L3.37253 11.6276Z" fill="#0081FB"/>
<path id="Vector_2" d="M2.78467 3.69568C4.05865 1.73193 5.89715 0.358643 8.00583 0.358643C9.22703 0.358643 10.4411 0.72008 11.7088 1.75519C13.0955 2.88692 14.5734 4.75047 16.4173 7.82179L17.0785 8.924C18.6745 11.5829 19.5826 12.9508 20.114 13.5959C20.7975 14.4243 21.2761 14.6712 21.8979 14.6712C23.4752 14.6712 23.8688 13.2219 23.8688 11.5632L26.3202 11.4863C26.3202 13.2201 25.9784 14.4941 25.3969 15.5006C24.8351 16.4739 23.74 17.4464 21.8979 17.4464C20.7528 17.4464 19.7382 17.1977 18.6164 16.1393C17.7539 15.327 16.7456 13.8839 15.97 12.5867L13.6627 8.73255C12.505 6.79832 11.4431 5.35615 10.8284 4.70305C10.1673 4.00075 9.31739 3.15263 7.9611 3.15263C6.86337 3.15263 5.93114 3.92292 5.15101 5.10117L2.78467 3.69568Z" fill="url(#paint0_linear_75_2970)"/>
<path id="Vector_3" d="M7.96118 3.15263C6.86344 3.15263 5.93122 3.92292 5.15109 5.10117C4.04799 6.76611 3.37253 9.24607 3.37253 11.6276C3.37253 12.61 3.58814 13.3641 3.86995 13.8204L1.50092 15.3807C0.892562 14.3688 0.59375 13.0412 0.59375 11.5283C0.59375 8.77728 1.34883 5.90993 2.78474 3.69568C4.05872 1.73193 5.89722 0.358643 8.00591 0.358643L7.96118 3.15263Z" fill="url(#paint1_linear_75_2970)"/>
<path id="Vector_4" d="M31.7222 0.899414H34.9366L40.402 10.7871L45.8683 0.899414H49.013V17.1462H46.3908V4.69451L41.5973 13.3171H39.137L34.3444 4.69451V17.1462H31.7222V0.899414ZM57.2295 6.95708C55.3489 6.95708 54.2163 8.37241 53.9452 10.125H60.3276C60.1961 8.31962 59.1548 6.95708 57.2295 6.95708ZM51.3454 11.1235C51.3454 7.43571 53.7287 4.75177 57.2751 4.75177C60.7633 4.75177 62.8461 7.40171 62.8461 11.3203V12.0405H53.9452C54.261 13.947 55.5261 15.2317 57.5659 15.2317C59.1932 15.2317 60.2104 14.7351 61.1749 13.8271L62.5678 15.5332C61.2554 16.7401 59.586 17.4361 57.4728 17.4361C53.6339 17.4361 51.3454 14.6367 51.3454 11.1235ZM66.0257 7.18968H63.6119V5.04253H66.0257V1.49167H68.5557V5.04253H72.2229V7.18968H68.5557V12.6318C68.5557 14.49 69.1498 15.1503 70.6098 15.1503C71.2763 15.1503 71.6584 15.093 72.2229 14.9991V17.123C71.5197 17.3216 70.8487 17.4128 70.1222 17.4128C67.3909 17.4128 66.0257 15.9206 66.0257 12.9333V7.18968ZM82.8763 9.27779C82.3682 7.99487 81.2347 7.05012 79.5688 7.05012C77.4038 7.05012 76.018 8.58623 76.018 11.0886C76.018 13.5283 77.2937 15.1386 79.4651 15.1386C81.172 15.1386 82.3905 14.1456 82.8763 12.9101V9.27779ZM85.4064 17.1462H82.9229V15.4518C82.2286 16.4493 80.9654 17.4361 78.9193 17.4361C75.6288 17.4361 73.4298 14.6815 73.4298 11.0886C73.4298 7.46166 75.6816 4.75177 79.0589 4.75177C80.7283 4.75177 82.0381 5.41918 82.9229 6.59743V5.04253H85.4064V17.1462Z" fill="#192830"/>
</g>
<defs>
<linearGradient id="paint0_linear_75_2970" x1="6.05103" y1="10.826" x2="23.7651" y2="11.7207" gradientUnits="userSpaceOnUse">
<stop stop-color="#0064E1"/>
<stop offset="0.4" stop-color="#0064E1"/>
<stop offset="0.83" stop-color="#0073EE"/>
<stop offset="1" stop-color="#0082FB"/>
</linearGradient>
<linearGradient id="paint1_linear_75_2970" x1="4.61967" y1="12.7942" x2="4.61967" y2="6.26332" gradientUnits="userSpaceOnUse">
<stop stop-color="#0082FB"/>
<stop offset="1" stop-color="#0064E0"/>
</linearGradient>
<clipPath id="clip0_75_2970">
<rect width="86" height="17.641" fill="white" transform="translate(0 0.179443)"/>
</clipPath>
</defs>
</svg>
