<svg width="172" height="32" viewBox="0 0 172 32" fill="none" xmlns="http://www.w3.org/2000/svg">
<path d="M24.7869 12.1213H33.4033C34.2173 12.1213 34.8772 12.7812 34.8772 13.5953V21.4436C34.8772 24.4354 32.4519 26.8607 29.4601 26.8607H29.4345C26.4427 26.8611 24.017 24.4362 24.0166 21.4444V12.8917C24.0166 12.4662 24.3615 12.1213 24.7869 12.1213Z" fill="#5059C9"/>
<path d="M30.6105 10.5697C32.5385 10.5697 34.1014 9.00677 34.1014 7.0788C34.1014 5.15082 32.5385 3.58789 30.6105 3.58789C28.6826 3.58789 27.1196 5.15082 27.1196 7.0788C27.1196 9.00677 28.6826 10.5697 30.6105 10.5697Z" fill="#5059C9"/>
<path d="M19.7499 10.5698C22.5348 10.5698 24.7924 8.31227 24.7924 5.52741C24.7924 2.74256 22.5348 0.484985 19.7499 0.484985C16.9651 0.484985 14.7075 2.74256 14.7075 5.52741C14.7075 8.31227 16.9651 10.5698 19.7499 10.5698Z" fill="#7B83EB"/>
<path d="M26.4734 12.1213H12.2507C11.4463 12.1412 10.81 12.8088 10.8287 13.6131V22.5646C10.7164 27.3915 14.5352 31.3972 19.362 31.5153C24.1889 31.3972 28.0077 27.3915 27.8954 22.5646V13.6131C27.914 12.8088 27.2777 12.1412 26.4734 12.1213Z" fill="#7B83EB"/>
<path opacity="0.1" d="M20.1379 12.1213V24.6653C20.134 25.2406 19.7854 25.7573 19.2535 25.9764C19.0841 26.048 18.9021 26.0849 18.7182 26.085H11.5114C11.4106 25.829 11.3175 25.573 11.2399 25.3092C10.9684 24.4191 10.8298 23.4937 10.8288 22.563V13.6108C10.8101 12.8077 11.4454 12.1412 12.2484 12.1213H20.1379Z" fill="black"/>
<path opacity="0.2" d="M19.3621 12.1213V25.4411C19.3621 25.625 19.3252 25.807 19.2535 25.9764C19.0345 26.5083 18.5177 26.8569 17.9425 26.8607H11.8761C11.7442 26.6047 11.6201 26.3487 11.5114 26.085C11.4028 25.8212 11.3175 25.573 11.2399 25.3092C10.9684 24.4191 10.8298 23.4937 10.8288 22.563V13.6108C10.8101 12.8077 11.4454 12.1412 12.2484 12.1213H19.3621Z" fill="black"/>
<path opacity="0.2" d="M19.3621 12.1213V23.8896C19.3562 24.6712 18.7241 25.3033 17.9425 25.3092H11.2399C10.9684 24.4191 10.8298 23.4937 10.8288 22.563V13.6108C10.8101 12.8077 11.4454 12.1412 12.2484 12.1213H19.3621Z" fill="black"/>
<path opacity="0.2" d="M18.5863 12.1213V23.8896C18.5804 24.6712 17.9483 25.3033 17.1667 25.3092H11.2399C10.9684 24.4191 10.8298 23.4937 10.8288 22.563V13.6108C10.8101 12.8077 11.4454 12.1412 12.2484 12.1213H18.5863Z" fill="black"/>
<path opacity="0.1" d="M20.1377 8.11054V10.5542C20.0058 10.5619 19.8817 10.5697 19.7498 10.5697C19.618 10.5697 19.4938 10.5619 19.362 10.5542C19.1001 10.5368 18.8404 10.4953 18.5862 10.4301C17.0153 10.058 15.7175 8.95633 15.0953 7.46667C14.9882 7.2165 14.9051 6.95676 14.847 6.69092H18.7181C19.5009 6.69388 20.1347 7.32772 20.1377 8.11054Z" fill="black"/>
<path opacity="0.2" d="M19.3621 8.8863V10.5542C19.1003 10.5368 18.8406 10.4953 18.5864 10.4301C17.0155 10.058 15.7176 8.95634 15.0955 7.46667H17.9425C18.7253 7.46964 19.3591 8.10349 19.3621 8.8863Z" fill="black"/>
<path opacity="0.2" d="M19.3621 8.8863V10.5542C19.1003 10.5368 18.8406 10.4953 18.5864 10.4301C17.0155 10.058 15.7176 8.95634 15.0955 7.46667H17.9425C18.7253 7.46964 19.3591 8.10349 19.3621 8.8863Z" fill="black"/>
<path opacity="0.2" d="M18.5864 8.88631V10.4301C17.0155 10.058 15.7176 8.95634 15.0955 7.46667H17.1667C17.9495 7.46965 18.5834 8.10351 18.5864 8.88631Z" fill="black"/>
<path d="M2.94161 7.46667H17.1643C17.9497 7.46667 18.5863 8.10331 18.5863 8.88863V23.1114C18.5863 23.8967 17.9497 24.5333 17.1643 24.5333H2.94161C2.15628 24.5333 1.51965 23.8967 1.51965 23.1114V8.88863C1.51965 8.10331 2.15629 7.46667 2.94161 7.46667Z" fill="url(#paint0_linear_75_504)"/>
<path d="M13.7952 12.88H10.952V20.6221H9.14063V12.88H6.31067V11.3782H13.7952V12.88Z" fill="white"/>
<path d="M53.1073 22.5V11.3H54.7553L58.5793 20.5L62.3873 11.3H64.0353V22.5H62.7073V13.892L59.1553 22.5H57.9873L54.4353 13.892V22.5H53.1073ZM65.8242 11.108H67.3122V12.996H65.8242V11.108ZM65.9362 22.5V14.436H67.2162V22.5H65.9362ZM72.765 22.628C71.549 22.628 70.589 22.2227 69.885 21.412C69.1916 20.5907 68.845 19.6093 68.845 18.468C68.845 17.3267 69.1916 16.3507 69.885 15.54C70.589 14.7187 71.549 14.308 72.765 14.308C73.7036 14.308 74.5196 14.564 75.213 15.076C75.9063 15.588 76.3116 16.2813 76.429 17.156H75.165C75.0796 16.6653 74.813 16.26 74.365 15.94C73.917 15.62 73.389 15.46 72.781 15.46C71.9383 15.46 71.293 15.7427 70.845 16.308C70.397 16.8733 70.173 17.5933 70.173 18.468C70.173 19.3427 70.397 20.0627 70.845 20.628C71.3036 21.1933 71.949 21.476 72.781 21.476C73.389 21.476 73.901 21.3373 74.317 21.06C74.733 20.772 75.0156 20.3827 75.165 19.892H76.413C76.2743 20.724 75.885 21.3907 75.245 21.892C74.605 22.3827 73.7783 22.628 72.765 22.628ZM82.3518 15.572H81.1038C80.3465 15.572 79.8292 15.8493 79.5518 16.404C79.2745 16.948 79.1358 17.7533 79.1358 18.82V22.5H77.8558V14.436H79.1358V16.116C79.3172 15.5187 79.5625 15.0707 79.8718 14.772C80.1918 14.4627 80.6345 14.308 81.1998 14.308H82.3518V15.572ZM89.9006 21.46C89.1326 22.2387 88.1513 22.628 86.9566 22.628C85.7619 22.628 84.7806 22.2387 84.0126 21.46C83.2446 20.6707 82.8606 19.6733 82.8606 18.468C82.8606 17.252 83.2446 16.2547 84.0126 15.476C84.7806 14.6973 85.7619 14.308 86.9566 14.308C88.1619 14.308 89.1486 14.6973 89.9166 15.476C90.6846 16.2547 91.0686 17.252 91.0686 18.468C91.0686 19.6733 90.6793 20.6707 89.9006 21.46ZM86.9566 21.476C87.7886 21.476 88.4606 21.1987 88.9726 20.644C89.4953 20.0787 89.7566 19.3533 89.7566 18.468C89.7566 17.5827 89.4953 16.8627 88.9726 16.308C88.4606 15.7427 87.7886 15.46 86.9566 15.46C86.1353 15.46 85.4633 15.7427 84.9406 16.308C84.4286 16.8627 84.1726 17.5827 84.1726 18.468C84.1726 19.3533 84.4286 20.0787 84.9406 20.644C85.4633 21.1987 86.1353 21.476 86.9566 21.476ZM95.5926 22.628C94.6646 22.628 93.9126 22.388 93.3366 21.908C92.7713 21.428 92.4566 20.7667 92.3926 19.924H93.6086C93.7259 20.9907 94.3873 21.524 95.5926 21.524C96.1046 21.524 96.5153 21.4067 96.8246 21.172C97.1446 20.9267 97.3046 20.6333 97.3046 20.292C97.3046 19.9187 97.1873 19.6307 96.9526 19.428C96.7179 19.2147 96.4246 19.0867 96.0726 19.044C95.7313 18.9907 95.3579 18.9213 94.9526 18.836C94.5473 18.7507 94.1686 18.6547 93.8166 18.548C93.4753 18.4413 93.1873 18.2173 92.9526 17.876C92.7179 17.5347 92.6006 17.0867 92.6006 16.532C92.6006 15.8707 92.8619 15.3373 93.3846 14.932C93.9073 14.516 94.5953 14.308 95.4486 14.308C96.3233 14.308 97.0379 14.532 97.5926 14.98C98.1473 15.428 98.4513 16.0253 98.5046 16.772H97.2886C97.2353 16.3027 97.0166 15.956 96.6326 15.732C96.2593 15.4973 95.8539 15.38 95.4166 15.38C94.9473 15.38 94.5633 15.4867 94.2646 15.7C93.9766 15.9133 93.8326 16.1907 93.8326 16.532C93.8326 16.8733 93.9499 17.14 94.1846 17.332C94.4193 17.5133 94.7126 17.6253 95.0646 17.668C95.4166 17.7 95.7953 17.7587 96.2006 17.844C96.6059 17.9293 96.9846 18.0307 97.3366 18.148C97.6886 18.2653 97.9819 18.5053 98.2166 18.868C98.4513 19.22 98.5686 19.684 98.5686 20.26C98.5686 20.9747 98.2966 21.5507 97.7526 21.988C97.2086 22.4147 96.4886 22.628 95.5926 22.628ZM106.776 21.46C106.008 22.2387 105.026 22.628 103.832 22.628C102.637 22.628 101.656 22.2387 100.888 21.46C100.12 20.6707 99.7356 19.6733 99.7356 18.468C99.7356 17.252 100.12 16.2547 100.888 15.476C101.656 14.6973 102.637 14.308 103.832 14.308C105.037 14.308 106.024 14.6973 106.792 15.476C107.56 16.2547 107.944 17.252 107.944 18.468C107.944 19.6733 107.554 20.6707 106.776 21.46ZM103.832 21.476C104.664 21.476 105.336 21.1987 105.848 20.644C106.37 20.0787 106.632 19.3533 106.632 18.468C106.632 17.5827 106.37 16.8627 105.848 16.308C105.336 15.7427 104.664 15.46 103.832 15.46C103.01 15.46 102.338 15.7427 101.816 16.308C101.304 16.8627 101.048 17.5827 101.048 18.468C101.048 19.3533 101.304 20.0787 101.816 20.644C102.338 21.1987 103.01 21.476 103.832 21.476ZM110.187 22.5V15.572H108.507V14.436H110.187V13.668C110.187 12.9 110.411 12.292 110.859 11.844C111.318 11.396 111.931 11.172 112.699 11.172H113.979V12.308H112.747C112.363 12.308 112.054 12.436 111.819 12.692C111.585 12.9373 111.467 13.2733 111.467 13.7V14.436H113.979V15.572H111.467V22.5H110.187ZM116.531 11.86H117.811V14.436H120.291V15.572H117.811V19.908C117.811 20.356 117.923 20.708 118.147 20.964C118.382 21.2093 118.702 21.332 119.107 21.332H120.291V22.5H119.059C118.291 22.5 117.678 22.276 117.219 21.828C116.761 21.3693 116.531 20.7507 116.531 19.972V15.572H114.851V14.436H116.531V11.86ZM128.918 22.5V12.532H125.334V11.3H133.862V12.532H130.294V22.5H128.918ZM139.541 19.908H140.837C140.699 20.74 140.293 21.4013 139.621 21.892C138.96 22.3827 138.133 22.628 137.141 22.628C135.968 22.628 135.008 22.2227 134.261 21.412C133.525 20.5907 133.157 19.5933 133.157 18.42C133.157 17.2147 133.504 16.228 134.197 15.46C134.901 14.692 135.835 14.308 136.997 14.308C138.149 14.308 139.061 14.6653 139.733 15.38C140.416 16.084 140.757 16.9853 140.757 18.084C140.757 18.308 140.747 18.4947 140.725 18.644H134.421C134.475 19.476 134.752 20.1587 135.253 20.692C135.755 21.2253 136.384 21.492 137.141 21.492C138.475 21.492 139.275 20.964 139.541 19.908ZM136.997 15.396C136.315 15.396 135.755 15.588 135.317 15.972C134.88 16.356 134.603 16.9053 134.485 17.62H139.445C139.392 16.9373 139.147 16.3987 138.709 16.004C138.283 15.5987 137.712 15.396 136.997 15.396ZM145.596 14.308C146.588 14.308 147.409 14.58 148.06 15.124C148.721 15.6573 149.052 16.3507 149.052 17.204V22.5H147.804V21.108C147.59 21.5667 147.233 21.9347 146.732 22.212C146.23 22.4893 145.665 22.628 145.036 22.628C144.225 22.628 143.558 22.404 143.036 21.956C142.513 21.4973 142.252 20.916 142.252 20.212C142.252 19.38 142.518 18.74 143.052 18.292C143.596 17.844 144.401 17.62 145.468 17.62H147.34C147.649 17.62 147.804 17.4813 147.804 17.204V17.188C147.804 16.644 147.596 16.212 147.18 15.892C146.764 15.5613 146.241 15.396 145.612 15.396C145.025 15.396 144.529 15.556 144.124 15.876C143.718 16.196 143.494 16.58 143.452 17.028H142.252C142.326 16.2493 142.678 15.604 143.308 15.092C143.948 14.5693 144.71 14.308 145.596 14.308ZM145.228 21.54C146.038 21.54 146.668 21.3053 147.116 20.836C147.574 20.356 147.804 19.7 147.804 18.868V18.58H145.548C144.225 18.58 143.564 19.1187 143.564 20.196C143.564 20.5907 143.718 20.916 144.028 21.172C144.348 21.4173 144.748 21.54 145.228 21.54ZM150.762 22.5V14.436H152.042V15.988C152.202 15.4867 152.495 15.0813 152.922 14.772C153.359 14.4627 153.877 14.308 154.474 14.308C155.146 14.308 155.722 14.4573 156.202 14.756C156.682 15.0547 156.991 15.476 157.13 16.02C157.279 15.5293 157.599 15.124 158.09 14.804C158.581 14.4733 159.13 14.308 159.738 14.308C160.613 14.308 161.295 14.5853 161.786 15.14C162.287 15.6947 162.538 16.4573 162.538 17.428V22.5H161.258V17.764C161.258 17.0707 161.093 16.5107 160.762 16.084C160.442 15.6573 159.999 15.444 159.434 15.444C158.773 15.444 158.25 15.6573 157.866 16.084C157.482 16.5107 157.29 17.0707 157.29 17.764V22.5H156.01V17.764C156.01 17.0707 155.845 16.5107 155.514 16.084C155.194 15.6573 154.757 15.444 154.202 15.444C153.53 15.444 153.002 15.6573 152.618 16.084C152.234 16.5107 152.042 17.0707 152.042 17.764V22.5H150.762ZM167.296 22.628C166.368 22.628 165.616 22.388 165.04 21.908C164.474 21.428 164.16 20.7667 164.096 19.924H165.312C165.429 20.9907 166.09 21.524 167.296 21.524C167.808 21.524 168.218 21.4067 168.528 21.172C168.848 20.9267 169.008 20.6333 169.008 20.292C169.008 19.9187 168.89 19.6307 168.656 19.428C168.421 19.2147 168.128 19.0867 167.776 19.044C167.434 18.9907 167.061 18.9213 166.656 18.836C166.25 18.7507 165.872 18.6547 165.52 18.548C165.178 18.4413 164.89 18.2173 164.656 17.876C164.421 17.5347 164.304 17.0867 164.304 16.532C164.304 15.8707 164.565 15.3373 165.088 14.932C165.61 14.516 166.298 14.308 167.152 14.308C168.026 14.308 168.741 14.532 169.296 14.98C169.85 15.428 170.154 16.0253 170.208 16.772H168.992C168.938 16.3027 168.72 15.956 168.336 15.732C167.962 15.4973 167.557 15.38 167.12 15.38C166.65 15.38 166.266 15.4867 165.968 15.7C165.68 15.9133 165.536 16.1907 165.536 16.532C165.536 16.8733 165.653 17.14 165.888 17.332C166.122 17.5133 166.416 17.6253 166.768 17.668C167.12 17.7 167.498 17.7587 167.904 17.844C168.309 17.9293 168.688 18.0307 169.04 18.148C169.392 18.2653 169.685 18.5053 169.92 18.868C170.154 19.22 170.272 19.684 170.272 20.26C170.272 20.9747 170 21.5507 169.456 21.988C168.912 22.4147 168.192 22.628 167.296 22.628Z" fill="#2C2C2C"/>
<defs>
<linearGradient id="paint0_linear_75_504" x1="4.48448" y1="6.35557" x2="15.6215" y2="25.6444" gradientUnits="userSpaceOnUse">
<stop stop-color="#5A62C3"/>
<stop offset="0.5" stop-color="#4D55BD"/>
<stop offset="1" stop-color="#3940AB"/>
</linearGradient>
</defs>
</svg>
