<svg width="59" height="23" viewBox="0 0 59 23" fill="none" xmlns="http://www.w3.org/2000/svg">
<g id="6524187a32866ca48b04b758_logo 2" clip-path="url(#clip0_75_3027)">
<path id="Vector" d="M6.54711 8.33571C4.08966 7.79319 2.82223 6.859 2.82223 5.53224C2.82223 4.16775 4.14705 3.12135 5.93275 3.12135C7.7567 3.12135 9.13889 4.26136 9.13889 5.7567V5.86847H11.6542V5.75624C11.6542 3.00912 9.21586 0.934449 5.97099 0.934449C4.41574 0.934449 2.97617 1.402 1.93918 2.26122C0.883056 3.14043 0.307414 4.35496 0.307414 5.68218C0.307414 6.93443 0.806551 7.99948 1.7857 8.84007C2.66875 9.58797 3.89748 10.1487 5.47186 10.4849C8.12149 11.0647 9.46496 12.0361 9.46496 13.382C9.46496 14.8396 8.00627 15.9424 6.06709 15.9424C4.07054 15.9424 2.55353 14.7087 2.55353 13.083V12.9708H0V13.083C0 15.961 2.59179 18.1288 6.00925 18.1288C7.64148 18.1288 9.15801 17.6426 10.2524 16.7457C11.3659 15.8301 11.9803 14.5783 11.9803 13.1761C11.9803 10.7652 10.1563 9.1395 6.54711 8.33571ZM20.6587 4.99017C18.7005 4.99017 16.953 5.84984 15.8203 7.36381V5.28915H13.4394V22.3708H15.8395V15.8669C16.9726 17.3809 18.7005 18.2405 20.6778 18.2405C24.4028 18.2405 27.2058 15.3999 27.2058 11.6249C27.1867 7.84954 24.3831 4.98972 20.6587 4.98972V4.99017ZM24.6905 12.1102C24.4983 14.129 22.8475 15.7547 20.7739 15.9605C19.4301 16.0914 18.1822 15.7174 17.2604 14.895C16.3386 14.0726 15.8203 12.914 15.8203 11.6245C15.8203 9.13905 17.7213 7.27021 20.2556 7.27021C21.5609 7.27021 22.7323 7.75639 23.5771 8.65332C24.4214 9.55024 24.825 10.7839 24.6905 12.1106V12.1102ZM56.5999 5.28915V7.36381C55.4672 5.84984 53.7203 5.0088 51.7424 5.0088C48.0371 5.0088 45.2341 7.79365 45.2341 11.5127C45.2341 15.213 48.0371 18.0161 51.7424 18.0161C53.7203 18.0161 55.4672 17.1756 56.5999 15.6802V15.9983C56.5999 18.5768 54.9491 20.2402 52.3759 20.2402C50.648 20.2402 49.1888 19.4928 48.5172 18.2592L48.4785 18.2033H46.0018L46.0598 18.3714C46.501 19.605 47.3075 20.6328 48.3828 21.343C49.4772 22.0531 50.8593 22.4267 52.3759 22.4267C54.3347 22.4267 55.9855 21.8287 57.176 20.6701C58.3665 19.5296 59 17.923 59 16.0356V5.2887H56.5999V5.28915ZM55.2559 14.6897C54.2386 15.6429 52.7794 16.0351 51.2624 15.7738C49.4385 15.4748 48.018 14.0354 47.7684 12.2042C47.5571 10.7275 48.018 9.32579 49.0163 8.35388C49.842 7.56919 50.9554 7.13935 52.1842 7.13935C52.472 7.13935 52.7407 7.15798 53.029 7.21433C54.853 7.49467 56.3122 8.97093 56.5426 10.8025C56.7534 12.316 56.2929 13.7364 55.2559 14.6897ZM42.6041 0.616843C42.3122 0.552426 42.0084 0.559686 41.7202 0.637968C41.4319 0.716251 41.1682 0.8631 40.9527 1.06531C40.53 1.47651 40.3575 2.07447 40.4917 2.67288C40.6262 3.28946 41.1635 3.81289 41.7974 3.94375C41.9318 3.98102 42.0661 3.98102 42.2005 3.98102C42.6614 3.98102 43.1218 3.81289 43.4484 3.47666C43.871 3.065 44.0436 2.46705 43.9092 1.86909C43.7749 1.27114 43.2562 0.766331 42.6035 0.616843H42.6041ZM41.01 15.6802H38.9365C37.4578 15.6802 36.5751 14.7083 36.5751 13.0825C36.5751 11.494 37.3621 9.58751 38.9748 7.28929L38.9944 7.25158V6.59729L32.1207 5.64401C32.1207 5.08378 31.8137 4.54171 31.3142 4.27998C30.6998 3.94375 30.028 3.94375 29.4716 4.26136C28.9337 4.56034 28.6072 5.13966 28.6072 5.73807C28.6058 6.07414 28.7076 6.40295 28.8991 6.6825C29.0905 6.96205 29.3634 7.17964 29.6823 7.30748L27.5511 17.923H29.9319L31.9098 7.8309L35.6152 8.44749C34.6169 10.1855 34.1177 11.8117 34.1177 13.2693C34.1177 15.9605 35.7877 17.7357 38.4948 17.9039V17.923H43.391V5.32641H40.991V15.6802H41.01Z" fill="#0B2330"/>
</g>
<defs>
<clipPath id="clip0_75_3027">
<rect width="59" height="22" fill="white" transform="translate(0 0.5)"/>
</clipPath>
</defs>
</svg>
