<svg width="50" height="18" viewBox="0 0 50 18" fill="none" xmlns="http://www.w3.org/2000/svg">
<g id="Uber-Logo.wine 1" clip-path="url(#clip0_75_2963)">
<path id="Vector" d="M3.18216 12.6099C3.39054 13.1629 3.67903 13.6357 4.0477 14.0284C4.41636 14.4211 4.85312 14.7216 5.35797 14.93C5.86287 15.1384 6.41182 15.2425 7.00487 15.2425C7.58191 15.2425 8.12283 15.1343 8.62774 14.9179C9.13264 14.7015 9.57339 14.397 9.95003 14.0044C10.3267 13.6116 10.6192 13.1429 10.8276 12.5979C11.036 12.0529 11.1401 11.4439 11.1401 10.7707V0.384521H13.6645V17.214H11.1642V15.6512C10.6032 16.2442 9.94199 16.701 9.18068 17.0216C8.4193 17.3422 7.59793 17.5025 6.71638 17.5025C5.81877 17.5025 4.98132 17.3462 4.20394 17.0336C3.42661 16.7211 2.75339 16.2763 2.18443 15.6993C1.61548 15.1223 1.16665 14.4291 0.838095 13.6197C0.509491 12.8103 0.345215 11.9087 0.345215 10.9149V0.384521H2.86962V10.7707C2.86962 11.4439 2.97379 12.0569 3.18216 12.6099ZM18.0159 0.384521V6.51523C18.5769 5.95426 19.2261 5.50952 19.9633 5.18092C20.7006 4.85231 21.5021 4.68804 22.3675 4.68804C23.2651 4.68804 24.1065 4.8563 24.8919 5.19289C25.6773 5.52947 26.3585 5.98628 26.9355 6.56332C27.5125 7.14036 27.9693 7.82151 28.3059 8.60688C28.6425 9.39229 28.8108 10.2257 28.8108 11.1073C28.8108 11.9888 28.6425 12.8183 28.3059 13.5956C27.9693 14.373 27.5125 15.0502 26.9355 15.6271C26.3585 16.2042 25.6773 16.661 24.8919 16.9975C24.1065 17.3341 23.2651 17.5024 22.3675 17.5024C21.502 17.5024 20.6966 17.3381 19.9513 17.0095C19.206 16.681 18.5529 16.2362 17.9919 15.6752V17.2139H15.5877V0.384521H18.0159ZM18.2924 12.7662C18.5088 13.2791 18.8093 13.7279 19.194 14.1126C19.5787 14.4972 20.0275 14.8018 20.5403 15.0262C21.0533 15.2506 21.6062 15.3628 22.1993 15.3628C22.7763 15.3628 23.3212 15.2506 23.8341 15.0262C24.347 14.8018 24.7917 14.4973 25.1685 14.1126C25.5451 13.7279 25.8456 13.2791 26.07 12.7662C26.2944 12.2533 26.4066 11.7003 26.4066 11.1073C26.4066 10.5142 26.2944 9.95726 26.07 9.43634C25.8456 8.91542 25.5451 8.46266 25.1685 8.07798C24.7918 7.69336 24.347 7.39279 23.8341 7.17643C23.3212 6.96007 22.7763 6.85182 22.1993 6.85182C21.6223 6.85182 21.0773 6.96002 20.5644 7.17643C20.0515 7.39284 19.6028 7.69336 19.218 8.07798C18.8334 8.46266 18.5289 8.91542 18.3045 9.43634C18.0801 9.95726 17.9679 10.5142 17.9679 11.1073C17.9678 11.7003 18.076 12.2533 18.2924 12.7662ZM30.1809 8.63097C30.5015 7.86162 30.9423 7.18446 31.5032 6.59944C32.0642 6.01442 32.7294 5.55362 33.4988 5.21704C34.2681 4.88045 35.1016 4.71219 35.9991 4.71219C36.8807 4.71219 37.6981 4.87247 38.4514 5.19299C39.2047 5.51356 39.8539 5.95835 40.3988 6.52736C40.9438 7.09631 41.3686 7.76954 41.673 8.54687C41.9776 9.32425 42.1298 10.1697 42.1298 11.0834V11.8767H32.1524C32.2326 12.3736 32.3929 12.8344 32.6333 13.2591C32.8737 13.6838 33.1742 14.0525 33.5348 14.365C33.8955 14.6776 34.3042 14.9221 34.761 15.0983C35.2178 15.2746 35.7026 15.3628 36.2155 15.3628C37.6741 15.3628 38.8522 14.7617 39.7497 13.5596L41.5048 14.8579C40.8957 15.6753 40.1425 16.3165 39.2449 16.7812C38.3473 17.246 37.3375 17.4785 36.2156 17.4785C35.302 17.4785 34.4485 17.3181 33.6551 16.9976C32.8617 16.6771 32.1725 16.2282 31.5875 15.6512C31.0025 15.0742 30.5417 14.397 30.2051 13.6197C29.8685 12.8423 29.7002 11.9968 29.7002 11.0832C29.7001 10.2178 29.8604 9.40033 30.1809 8.63097ZM33.5589 7.68128C32.8777 8.25029 32.4249 9.00762 32.2005 9.95327H39.6776C39.4692 9.00762 39.0244 8.25029 38.3432 7.68128C37.662 7.11233 36.8647 6.82782 35.9511 6.82782C35.0375 6.82782 34.2401 7.11233 33.5589 7.68128ZM46.6736 7.95775C46.1608 8.51873 45.9043 9.28004 45.9043 10.2418V17.214H43.476V4.95254H45.8802V6.46719C46.1847 5.97032 46.5814 5.57761 47.0703 5.28912C47.5591 5.00058 48.1402 4.8563 48.8134 4.8563H49.6548V7.11626H48.6451C47.8437 7.11632 47.1865 7.39678 46.6736 7.95775Z" fill="#010202"/>
</g>
<defs>
<clipPath id="clip0_75_2963">
<rect width="49.9999" height="17.9487" fill="white" transform="translate(0.00012207 0.0258789)"/>
</clipPath>
</defs>
</svg>
