<svg width="51" height="17" viewBox="0 0 51 17" fill="none" xmlns="http://www.w3.org/2000/svg">
<g id="Visa_Inc._logo 1" clip-path="url(#clip0_75_3000)">
<g id="g4158">
<path id="polygon9" d="M22.1 16.2692H17.9686L20.5527 0.780762H24.6838L22.1 16.2692Z" fill="#00579F"/>
<path id="path11" d="M37.0765 1.1594C36.2617 0.846017 34.9692 0.5 33.371 0.5C29.2912 0.5 26.4182 2.60895 26.4006 5.62412C26.3667 7.8487 28.4575 9.08429 30.0214 9.82604C31.6197 10.584 32.1631 11.0787 32.1631 11.7543C32.1468 12.7919 30.8715 13.2702 29.682 13.2702C28.0326 13.2702 27.1488 13.0236 25.8057 12.4464L25.2617 12.1989L24.6836 15.6757C25.6526 16.1036 27.4378 16.4834 29.2912 16.5C33.6261 16.5 36.4483 14.4237 36.4817 11.2105C36.4982 9.44739 35.3941 8.09639 33.0139 6.99242C31.5689 6.28374 30.684 5.80589 30.684 5.08079C30.7009 4.4216 31.4324 3.74643 33.0636 3.74643C34.4066 3.71336 35.3935 4.02631 36.141 4.33948L36.5147 4.50394L37.0765 1.1594Z" fill="#00579F"/>
<path id="path13" d="M42.5674 10.7822C42.9077 9.8924 44.2169 6.44865 44.2169 6.44865C44.1997 6.48172 44.5564 5.54244 44.7604 4.96582L45.0491 6.30039C45.0491 6.30039 45.8315 10.0078 46.0014 10.7822C45.3557 10.7822 43.3834 10.7822 42.5674 10.7822ZM47.6671 0.780762H44.4715C43.486 0.780762 42.7373 1.06064 42.3121 2.06584L36.1755 16.269H40.5104C40.5104 16.269 41.2241 14.3573 41.3775 13.9456C41.8531 13.9456 46.0701 13.9456 46.6818 13.9456C46.8004 14.4894 47.1748 16.269 47.1748 16.269H51L47.6671 0.780762Z" fill="#00579F"/>
<path id="path15" d="M14.518 0.780762L10.472 11.3424L10.0299 9.20037C9.28186 6.72875 6.93593 4.0434 4.31799 2.70816L8.02395 16.2528H12.3927L18.8865 0.780762H14.518Z" fill="#00579F"/>
<path id="path17" d="M6.71495 0.780762H0.0680009L0 1.09371C5.18504 2.37901 8.61899 5.47718 10.0298 9.20102L8.58487 2.08271C8.34698 1.09349 7.61591 0.813392 6.71495 0.780762Z" fill="#FAA61A"/>
</g>
</g>
<defs>
<clipPath id="clip0_75_3000">
<rect width="51" height="16" fill="white" transform="translate(0 0.5)"/>
</clipPath>
</defs>
</svg>
